<?xml version="1.0" encoding="utf-8"?>
<!-- Generator: Adobe Illustrator 18.1.1, SVG Export Plug-In . SVG Version: 6.00 Build 0)  -->
<svg version="1.1" id="Layer_1" xmlns="http://www.w3.org/2000/svg" xmlns:xlink="http://www.w3.org/1999/xlink" x="0px" y="0px"
	 viewBox="-260 351 91 91" enable-background="new -260 351 91 91" xml:space="preserve">
<g>
	<path d="M-215.4,420.1c-1.1,0-2.1,0.9-2.1,2.1c0,1.1,0.9,2.1,2.1,2.1s2.1-0.9,2.1-2.1C-213.3,421.1-214.2,420.1-215.4,420.1z"/>
	<path d="M-205.3,360.6h-20.2c-3.7,0-6.6,3-6.6,6.6v54c0,3.7,3,6.6,6.6,6.6h20.2c3.7,0,6.6-3,6.6-6.6v-54
		C-198.6,363.6-201.6,360.6-205.3,360.6z M-215.4,425.4c-1.8,0-3.2-1.4-3.2-3.2s1.4-3.2,3.2-3.2c1.8,0,3.2,1.4,3.2,3.2
		S-213.6,425.4-215.4,425.4z M-200.8,416.8h-29.1v-51.2h29.1L-200.8,416.8L-200.8,416.8z"/>
</g>
</svg>
