<?xml version="1.0" encoding="utf-8"?>
<!-- Generator: Adobe Illustrator 18.1.1, SVG Export Plug-In . SVG Version: 6.00 Build 0)  -->
<svg version="1.1" id="Layer_1" xmlns="http://www.w3.org/2000/svg" xmlns:xlink="http://www.w3.org/1999/xlink" x="0px" y="0px"
	 viewBox="-196.9 396 393.8 792" enable-background="new -196.9 396 393.8 792" xml:space="preserve">
<g>
	<path d="M-0.1,1097c-12.9,0-24.8,10.7-24.8,24.8c0,12.9,10.7,24.8,24.8,24.8s24.8-10.7,24.8-24.8C24.6,1108.9,14.2,1097-0.1,1097z"
		/>
	<path d="M118.7,395.9H-119c-43.8,0-77.9,35.5-77.9,77.9v636.5c0,43.8,35.5,77.9,77.9,77.9h238c43.8,0,77.9-35.5,77.9-77.9V473.7
		C198,431.4,162.5,395.9,118.7,395.9z M-0.1,1159.5c-21.2,0-37.7-16.5-37.7-37.7s16.5-37.7,37.7-37.7s37.7,16.5,37.7,37.7
		S21.1,1159.5-0.1,1159.5z M171.9,1058.2H-171V454.8h342.9V1058.2L171.9,1058.2z"/>
</g>
</svg>
