<?xml version="1.0" encoding="utf-8"?>
<!-- Generator: Adobe Illustrator 18.1.1, SVG Export Plug-In . SVG Version: 6.00 Build 0)  -->
<svg version="1.1" id="Layer_1" xmlns="http://www.w3.org/2000/svg" xmlns:xlink="http://www.w3.org/1999/xlink" x="0px" y="0px"
	 viewBox="0 0 1920 1080" enable-background="new 0 0 1920 1080" xml:space="preserve">
<g>
	<polygon fill="#A7A9AC" points="651.5,506.8 660.9,506.8 660.9,524.8 651.5,524.8 	"/>
	<polygon fill="#A7A9AC" points="658.9,516.1 667.6,516.1 667.6,524.8 658.9,524.8 	"/>
	<polygon fill="#A7A9AC" points="668.9,435.5 692.8,435.5 692.8,441.3 668.9,441.3 	"/>
	<polygon fill="#A7A9AC" points="700.5,479.7 716.7,479.7 716.7,487.8 700.5,487.8 	"/>
	<polygon fill="#A7A9AC" points="753.1,458.7 762.5,458.7 762.5,478.7 753.1,478.7 	"/>
	<polygon fill="#A7A9AC" points="581.2,449.7 587.6,449.7 587.6,485.2 581.2,485.2 	"/>
	<polygon fill="#A7A9AC" points="294.1,460.3 284.8,460.3 284.8,464.2 294.1,464.2 	"/>
	<polygon fill="#A7A9AC" points="301.9,408.7 320.6,408.7 320.6,416.5 301.9,416.5 	"/>
	<polygon fill="#A7A9AC" points="316.7,399.7 315.8,399.7 315.8,412.9 316.7,412.9 	"/>
	<polygon fill="#A7A9AC" points="372.5,463.6 386.4,463.6 386.4,513.2 372.5,513.2 	"/>
	<polygon fill="#A7A9AC" points="383.2,492.9 397.7,492.9 397.7,519.4 383.2,519.4 	"/>
	<polygon fill="#6D6E71" points="276.7,348.1 254.2,348.1 254.2,355.8 276.7,355.8 	"/>
	<polygon fill="#A7A9AC" points="122.9,493.6 150.3,493.6 150.3,556.8 122.9,556.8 	"/>
	<polygon fill="#A7A9AC" points="157.7,513.9 184.8,513.9 184.8,582.6 157.7,582.6 	"/>
	<polygon fill="#A7A9AC" points="1217.5,316.8 1227.9,316.8 1227.9,321.3 1217.5,321.3 	"/>
	<polygon fill="#A7A9AC" points="1393.3,337.5 1404.9,337.5 1404.9,342.6 1393.3,342.6 	"/>
	<polygon fill="#A7A9AC" points="1400.7,336.2 1416.2,336.2 1416.2,341.3 1400.7,341.3 	"/>
	<polygon fill="#A7A9AC" points="1425.6,329.1 1424.9,329.1 1424.9,342.3 1425.6,342.3 	"/>
	<polygon fill="#A7A9AC" points="1329.1,404.5 1348.5,404.5 1348.5,414.5 1329.1,414.5 	"/>
	<polygon fill="#A7A9AC" points="1031.8,491.3 1067.2,491.3 1067.2,568.1 1031.8,568.1 	"/>
	<polygon fill="#A7A9AC" points="1036.6,427.4 1026.9,427.4 1026.9,434.9 1036.6,434.9 	"/>
	<polygon fill="#6D6E71" points="977.3,282.6 992.4,282.6 992.4,287.8 977.3,287.8 	"/>
	<polygon fill="#6D6E71" points="1015.6,281 1001.4,281 1001.4,291.7 1015.6,291.7 	"/>
	<polygon fill="#6D6E71" points="1061.4,286.8 1095.6,286.8 1095.6,291 1061.4,291 	"/>
	<polygon fill="#A7A9AC" points="890.8,431.3 913.4,431.3 913.4,444.9 890.8,444.9 	"/>
	<polygon fill="#A7A9AC" points="880.2,438.4 887.9,438.4 887.9,442.3 880.2,442.3 	"/>
	<path fill="#E3E4E5" d="M1150.8,582.9h15.2v2.3h-48.1v-0.3h-2.6V274.2h21.9l1.3-35.2l1,25.2h3.9l3.2,10h4.2V582.9L1150.8,582.9z
		 M1544.6,264.9l1.6-92.2l1.6,92.2h7.7v43.2h2.9v276.7h-2.9h-7.7h-33.2h-2.9h-7.4V352.6h7.4v-44.5h2.9v-43.2h11.6l1.6-71.6l1.6,71.6
		H1544.6L1544.6,264.9z M1390.7,337.8h43.5v246.7h-43.5V337.8L1390.7,337.8z M1295.6,385.5h35.5v199.3h-35.5V385.5L1295.6,385.5z
		 M1214.3,317.8h35.5v267.1h-35.5V317.8L1214.3,317.8z M1010.2,430.3h30.6v154.5h-30.6L1010.2,430.3L1010.2,430.3z M819.9,497.7
		h10.3v-47.1h21.9v-11v-62.9h30.6v62.9h17.7v145.1h-17.7h-4.2h-10.3h-16.4h-21.9h-10.3v-87.1h0.3V497.7z M777.9,395.2h35.5v189.6
		h-35.5V395.2L777.9,395.2z M733.4,467.8H756v14.8v102.2h-22.6h-37.7h-29.3V482.6v-46.4h29.3v46.4h37.7V467.8L733.4,467.8z
		 M584.4,427.8h57.4v156.7h-57.4V427.8L584.4,427.8z M520.9,354.9h53.9v230h-53.9V354.9L520.9,354.9z M440.9,332.9h39v251.9h-39
		V332.9L440.9,332.9z M297.4,410.3h53.2v174.2h-26.8H297h-26.8V462.3H297v-51.9h0.4V410.3z"/>
	<path fill="#9C9D9F" d="M1796.1,584.8h25.2h3.9h11.3h2.6h8.1v-27.4h-10.6v-8.1h-11.3v8.1v7.1h-3.9v-26.1h-25.2v26.1L1796.1,584.8
		L1796.1,584.8z M83.2,421.6H88v14.8H77v148.4h11h41h11V436.5h-11v-14.8h4.8v-4.5H83.2V421.6L83.2,421.6z M228.7,584.8h54.2V351
		h-54.2V584.8L228.7,584.8z M436.7,399.1v-4.2h-6.8v4.2h-14.5v14.5h-22.6v170.9h4.2h61.6h4.2V428.4h-4.2v-14.8h-21.9L436.7,399.1
		L436.7,399.1z M498.9,584.8h54.2V402.6h-54.2L498.9,584.8L498.9,584.8z M586.4,584.8h14.8v-109h-14.8v-13.2h-21.9v13.2v109H586.4
		L586.4,584.8z M635.4,584.8H657v-96.1h-21.6V584.8L635.4,584.8z M682.5,584.8h21.6v-58.1h-21.6V584.8L682.5,584.8z M708.3,584.8
		h33.2V363.3h-33.2V584.8L708.3,584.8z M807.3,584.8h33.2v-78.7h-33.2V584.8L807.3,584.8z M895.7,584.8h28.7v-97.1h-28.7V584.8
		L895.7,584.8z M959.5,584.8h64.8V283.3h-64.8L959.5,584.8L959.5,584.8z M1122.1,584.8h14.5v-60.6h-14.5V287.5h-64.8v297.4h14.5
		h50.3V584.8z M1364,535.5V410h-39.3v125.5H1313v49.3h54.5v-49.3H1364L1364,535.5z M1440.7,531.3v-28.7h-31.3v28.7h-22.9v53.2h54.5
		v-28.7v-24.5H1440.7z M1444.3,584.8h55.5V425.2h-4.2v-6.1h-2.3l-2.9-2.9l-2.9,2.9h-2.3v6.1h-8.1v-6.1h-2.3l-2.9-2.9l-2.9,2.9h-2.3
		v6.1h-8.1v-6.1h-2.3l-2.9-2.9l-2.9,2.9h-2.3v6.1h-4.2v159.6H1444.3z M1602.6,439.7v-44.2h-40v44.2h-19.4v145.1h64.2V439.7H1602.6
		L1602.6,439.7z M1728.1,551v-26.1h-18.4V551h-4.2v-18.7h-18.4V551h-7.4v24.2h62.2V551H1728.1L1728.1,551z"/>
	<polygon fill="#666766" points="205.4,252 248.3,236.5 256.4,236.5 256.4,262.3 259.6,262.3 259.6,343.3 259.6,372.3 259.6,415.2 
		259.6,427.1 259.6,496.1 259.6,525.2 259.6,580 168.7,580 168.7,427.1 177.7,427.1 177.7,372.3 187.4,372.3 187.4,343.3 
		202.2,343.3 202.2,262.3 205.4,262.3 	"/>
	<polygon fill="#666766" points="405.4,485.5 430.9,475.2 436.7,464.5 439.3,464.5 445.1,475.2 470.6,485.5 470.6,489.4 
		465.4,489.4 465.4,508.7 622.2,508.7 622.2,515.8 636.7,515.8 636.7,580 310.9,580 310.9,515.8 325.4,515.8 325.4,508.7 
		333.2,508.7 333.2,404.9 336.7,404.9 336.7,386.8 340.6,386.8 340.6,366.2 344.1,366.2 344.1,358.1 347.7,358.1 355.7,343.6 
		358.3,343.6 366.4,358.1 369.9,358.1 369.9,366.2 373.2,366.2 373.2,386.8 377.4,386.8 377.4,404.9 380.9,404.9 380.9,508.7 
		410.9,508.7 410.9,489.4 405.4,489.4 	"/>
	<polygon fill="#666766" points="645.1,521.6 677.3,521.6 677.3,580 645.1,580 	"/>
	<polygon fill="#666766" points="722.1,537.4 762.8,537.4 762.8,559 762.8,580 722.1,580 667,580 667,559 722.1,559 	"/>
	<polygon fill="#666766" points="761.8,445.8 774.4,423.2 778.6,423.2 791.2,445.8 795.7,445.8 795.7,474.5 817.9,474.5 817.9,580 
		735,580 735,474.5 757.3,474.5 757.3,445.8 	"/>
	<polygon fill="#666766" points="828.6,529.4 864.4,529.4 864.4,580 828.6,580 	"/>
	<polygon fill="#666766" points="1061.8,470.7 1065.9,470.7 1073.7,449 1078.2,449 1085.9,470.7 1090.1,470.7 1090.1,482.3 
		1091.8,486.8 1097.6,486.8 1097.6,580 1054.3,580 1054.3,486.8 1060.1,486.8 1061.8,482.3 	"/>
	<polygon fill="#666766" points="1235.9,164.6 1304,164.6 1304,169.1 1308.5,169.1 1308.5,173.9 1313.3,173.9 1313.3,179.4 
		1321.1,179.4 1321.1,540.6 1326.6,540.6 1326.6,559.7 1326.6,567.7 1359.4,567.7 1359.4,580 1326.6,580 1321.1,580 1301.1,580 
		1235.9,580 1168.2,580 1127.9,580 1127.9,559.7 1127.9,523.6 1135.9,523.6 1135.9,310.7 1143,310.7 1143,299.1 1146.6,299.1 
		1146.6,290.7 1148.5,290.7 1165,262.3 1166.6,262.3 1168.2,262.3 1168.2,231 1170.4,231 1170.4,262.6 1186.9,290.7 1188.8,290.7 
		1188.8,299.1 1192.4,299.1 1192.4,310.7 1199.2,310.7 1199.2,559.7 1235.9,559.7 1235.9,184.3 1235.9,179.7 1235.9,179.4 
		1235.9,175.2 1235.9,173.9 1235.9,169.1 	"/>
	<polygon fill="#666766" points="1379.4,551.6 1426.5,551.6 1426.5,580 1379.4,580 1357.5,580 1337.2,580 1337.2,463.9 1342,463.9 
		1342,453.6 1366.9,453.6 1366.9,463.9 1379.4,463.9 	"/>
	<polygon fill="#666766" points="1492,456.1 1601.3,456.1 1601.3,580 1492,580 	"/>
	<polygon fill="#666766" points="1683.3,559 1690.4,559 1690.4,563.2 1707.1,563.2 1707.1,570.3 1748.4,570.3 1748.4,397.8 
		1763.6,397.8 1763.6,390.3 1799.4,390.3 1799.4,397.8 1810.3,397.8 1810.3,570.3 1823.2,570.3 1823.2,577.1 1867.4,577.1 
		1867.4,579.7 1823.2,579.7 1810.3,579.7 1748.4,579.7 1722.6,579.7 1683.3,579.7 1678.4,579.7 1652.9,579.7 1610.1,579.7 
		1610.1,393.6 1652.9,393.6 1652.9,412 1683.3,412 	"/>
	<polygon fill="#666766" points="51.3,530.3 164.2,530.3 164.2,580 51.3,580 	"/>
	<polygon fill="#666766" points="996.3,500.7 1039.5,500.7 1039.5,508.1 1043.7,508.1 1043.7,580 996.3,580 951.8,580 909.2,580 
		898.6,580 868.9,580 868.9,531.9 898.6,531.9 898.6,361 917.6,361 917.6,243.6 917.6,238.4 927.6,238.4 927.6,166.5 933.1,166.5 
		934.4,139.1 935.6,166.5 942.4,166.5 944,111.4 945.3,166.5 955.3,166.5 955.3,166.2 953.1,166.2 954.7,131.4 956,163 963.1,163 
		964,157.2 965.6,166.2 963.7,166.2 963.7,166.5 966.3,166.5 966.3,238.4 973.1,238.4 973.1,243.6 981.1,243.6 981.1,361 996.3,361 
			"/>
	<path fill="#666766" d="M157.7,559.7V579h4.5v-19.4h124.2V579h6.8v-19.4h337V579h8.4v-19.4h19V579h2.9v-19.4h95.8V579h3.9v-19.4
		h57.1V579h5.2v-19.4H896V579h7.4v-19.4h204.2V579h4.5v-19.4h25.2V579h4.5v-15.8v-3.5h79v3.5h8.4v-3.5h73.2v3.5v6.8h26.4v9.4h2.3
		V560h89.3v19.4h25.8V560h149v19.4h8.4V560h80.3v3.5h17.1v7.1h21.9v-11h87.7v10.6h6.1v7.1h9.7v-13.2h28.7v13.2h5.5v1.9h9.4V610l0,0
		v37.7c-608.6,0-1219.2,0.3-1828.4,0.3v-38.4l0,0V579h2.9v-19.4h113.2V559.7z"/>
	<polygon fill="#A7A9AC" points="850.8,379.7 855,379.7 855,397.8 850.8,397.8 	"/>
	<polygon fill="#A7A9AC" points="850.8,399.7 855,399.7 855,417.8 850.8,417.8 	"/>
	<polygon fill="#A7A9AC" points="850.8,420 855,420 855,438.1 850.8,438.1 	"/>
	<polygon points="1298.2,163.6 1236.6,163.6 1236.6,168.1 1298.2,168.1 	"/>
	<polygon fill="#6D6E71" points="1326.9,408.4 1361.1,408.4 1361.1,413.9 1326.9,413.9 	"/>
	<polygon fill="#6D6E71" points="1358.5,407.4 1350.7,407.4 1350.7,409.7 1358.5,409.7 	"/>
	<line fill="none" x1="1349.8" y1="456.1" x2="1349.8" y2="452.9"/>
	<path d="M1361.7,456.1"/>
	<line fill="none" x1="1377.5" y1="463.2" x2="1377.5" y2="464.5"/>
	<polyline points="1368.2,464.5 1368.2,463.2 1368.2,463.2 	"/>
	<polygon fill="#A7A9AC" points="443.8,329.1 443.5,329.1 443.5,336.5 443.8,336.5 	"/>
	<polygon fill="#A7A9AC" points="476.7,328.1 476.4,328.1 476.4,335.2 476.7,335.2 	"/>
	<polygon fill="#A7A9AC" points="443.8,331.6 467,331.6 467,336.5 443.8,336.5 	"/>
	<polygon fill="#A7A9AC" points="523.1,353.6 542.2,353.6 542.2,362.3 523.1,362.3 	"/>
	<polygon fill="#A7A9AC" points="572.8,351.6 568.9,351.6 568.9,356.5 572.8,356.5 	"/>
	<polygon fill="#A7A9AC" points="558.3,352.9 569.9,352.9 569.9,356.5 558.3,356.5 	"/>
	<polygon fill="#6D6E71" points="504.4,401.6 526.7,401.6 526.7,406.8 504.4,406.8 	"/>
	<polygon fill="#6D6E71" points="524.4,400 540.6,400 540.6,404.9 524.4,404.9 	"/>
	<polygon fill="#6D6E71" points="587.6,474.8 599.3,474.8 599.3,477.8 587.6,477.8 	"/>
	<polygon fill="#6D6E71" points="562.8,464.5 567.6,464.5 567.6,471.6 562.8,471.6 	"/>
	<polygon fill="#6D6E71" points="562.8,475.8 567.6,475.8 567.6,483.2 562.8,483.2 	"/>
	<polygon fill="#6D6E71" points="562.8,487.4 567.6,487.4 567.6,494.8 562.8,494.8 	"/>
	<polygon fill="#6D6E71" points="562.8,498.7 567.6,498.7 567.6,506.1 562.8,506.1 	"/>
	<polygon fill="#A7A9AC" points="638.6,425.8 618.6,425.8 618.6,431.6 638.6,431.6 	"/>
	<polygon fill="#A7A9AC" points="605.7,426.8 625.7,426.8 625.7,431 605.7,431 	"/>
	<polygon fill="#6D6E71" points="685.4,525.2 695.4,525.2 695.4,528.1 685.4,528.1 	"/>
	<polygon fill="#6D6E71" points="637.3,487.4 654.7,487.4 654.7,492.9 637.3,492.9 	"/>
	<polygon fill="#6D6E71" points="709.2,362.6 715,362.6 715,364.5 709.2,364.5 	"/>
	<polygon fill="#6D6E71" points="734.4,362.6 740.2,362.6 740.2,364.5 734.4,364.5 	"/>
	<polygon fill="#A7A9AC" points="778.6,394.5 786.6,394.5 786.6,396.5 778.6,396.5 	"/>
	<path fill="#BFBFBF" d="M657.3,732.9h3.5v-5.5h5.8v20v27.7h2.3v0.3h23.9v-0.3h3.2v-27.7h4.5v1.6h7.4v70h1v0.3h5.8V819h19.4v0.3h5.8
		V819h1v-62.6h11.6v5.5h4.2v7.7h4.8l12.6,13.5h3.5V800h0.6v0.3h8.1V800h26.8v-47.7h4.2v-19h1.9v5.2h10.3v28.4h21.9v6.5v1h-1v11h1
		v1.3h-1v11h1v1.3h-1v11h1v1.9H882v-37.1h5.2v-0.6h3.2v4.8h7.4v42.3h19v70.3v3.2h10V937h5.5l1.3,16.4L935,937h6.8l1.6,32.9l1.3-32.9
		h10v0.3h-2.3l1.6,21l1.3-19h7.4l1,3.5l1.3-5.5h-1.9V937h2.6v-43.2h6.8v-3.2h7.7v-23.2h11.3V867h9v1.3h14.5V867h8.7v-88h2.6v1.6h9.7
		V779h4.5v-36.8h13.5v2.9h2.9v119.7h4.2v0.3h34.2v-0.3h19.7v8.1h21.9l1.3,21.3l1-15.2h3.9l3.2-6.1h4.2v-7.4l13.9,14.2h1.9h1.6v18.7
		h2.3v-18.7l16.4-16.8h1.6v-5.2h3.5v-7.1h7.1V701.3h15.2v145.1h3.2v0.6h10.3v-0.6h8.1v80v2.9v0.3v2.6v0.6v2.9v2.6h0.6v0.6h61.9v-0.6
		h5.5v-2.6h4.5v-2.9h4.8v-3.2h7.7V805.8h10.3v-11.6h17.1v-2.3h2.3v0.6h7.7v-0.6h2.3v-1h2.9v-26.1h2.9v-6.1h1.3v0.3h9.4v-0.3h1.6
		v-52.6h6.8v12.3h4.5v116.1h2.6v0.3h7.7v1h15.5v-1h8.7v5.2h0.6v-5.2h8.7v-99h6.5v-17.1v-14.8v-6.1h3.5v84.8h4.2v3.5h2.3l2.9,1.9
		l2.9-1.9h2.3v-3.5h8.1v3.5h2.3l2.9,1.9l2.9-1.9h2.3v-3.5h8.1v3.5h2.3l2.9,1.9l2.9-1.9h2.3v-3.5h4.2v-18.7h4.2v62.2h7.4v26.8h2.9
		v25.8h11.6l1.6,42.9l1.6-42.9h15.5l1.6,55.2l1.6-55.2h7.7v-25.8h2.9v-79h4.5v26.4h40v-26.4h4.8V702h2.6v99.7h43.2v-11h30.3v-83.5
		h4.2v11.3h18.4v-11.3h4.2V723h18.4v-15.8h14.5V702h5.8v96.4h15.2v4.5h35.8v-4.5h11v-84.5h11v-15.5h3.9v4.2v4.8h11.3v-4.8h10.6v-3.9
		h8.4V691h12.3v-1.3h2.6v-18.4l0,0v-22.6c-608.6,0-1219.1-0.3-1828.4-0.3v22.9l0,0v18.4h2.9v11.6h6.5V719h9v1.3h16.8v54.8h11v9h-4.8
		v2.6h51v-2.6H129v-9h11v-34.5h10v-21.9h7.4v10h11v52.2h9v32.9h9.7v17.4h14.5v48.7h3.2v6.1l43.5,9h8.1v-15.5h3.2v-48.7V828h17.1
		v-1.6h6.1v-66.8h1.9v1.3h9.4v-1.3h3.2v31.3h4.5v1H316v5.5h1v-5.5h3.9v-1h12.6v3.2h3.5v11h3.9v12.6h3.5v4.8h3.5l8.1,8.7h2.6l8.1-8.7
		h3.5v-4.8h3.5v-12.9h3.9v-11h3.5v-35.2h5.5v-17.7h6.5v47.4h22.6v8.7h14.5v2.6h6.8V797v-8.7h4.2v48.4h2.6v2.3h0.3v-1.6H467v-0.6h9.4
		v2.9h0.6v-2.9h3.2V731.3h19v63.9h5.2v0.6h16.4v28.1h1.9v0.6h19.4v-0.3h16.1v1.3h10.6v0.6h4.2v-1.9h1.9v-64.5h6.5v7.7h3.2v12.9h21
		v0.6h13.2v0.6h20v-1.3h3.2v-35.8h12.9v-0.6h2.3L657.3,732.9L657.3,732.9z"/>
</g>
<text transform="matrix(1 0 0 1 77.0001 691.0187)" fill="#FFCD00" font-family="'FuturaPT-Heavy'" font-size="224.6031">CHICAGO</text>
<text transform="matrix(1 0 0 1 1173.8997 691.0193)" fill="#FFCD00" font-family="'FuturaPT-Heavy'" font-size="202.4667">15,308</text>
</svg>
