<?xml version="1.0" encoding="utf-8"?>
<!-- Generator: Adobe Illustrator 18.1.1, SVG Export Plug-In . SVG Version: 6.00 Build 0)  -->
<svg version="1.1" id="Layer_1" xmlns="http://www.w3.org/2000/svg" xmlns:xlink="http://www.w3.org/1999/xlink" x="0px" y="0px"
	 viewBox="0 0 2000.364 969.074" enable-background="new 0 0 2000.364 969.074" xml:space="preserve">
<g>
	<polygon fill-rule="evenodd" clip-rule="evenodd" fill="#A7A9AC" points="673.701,442.292 683.849,442.292 683.849,461.794 
		673.701,461.794 673.701,442.292 	"/>
	<polygon fill-rule="evenodd" clip-rule="evenodd" fill="#A7A9AC" points="681.859,452.242 691.213,452.242 691.213,461.993 
		681.859,461.993 681.859,452.242 	"/>
	<polygon fill-rule="evenodd" clip-rule="evenodd" fill="#A7A9AC" points="692.805,364.479 718.677,364.479 718.677,370.847 
		692.805,370.847 692.805,364.479 	"/>
	<polygon fill-rule="evenodd" clip-rule="evenodd" fill="#A7A9AC" points="727.235,412.838 744.548,412.838 744.548,421.395 
		727.235,421.395 727.235,412.838 	"/>
	<polygon fill-rule="evenodd" clip-rule="evenodd" fill="#A7A9AC" points="784.346,389.951 794.729,389.951 794.729,411.642 
		784.346,411.642 784.346,389.951 	"/>
	<polygon fill-rule="evenodd" clip-rule="evenodd" fill="#A7A9AC" points="597.425,379.9 604.456,379.9 604.456,418.7 
		597.425,418.7 597.425,379.9 	"/>
	<polygon fill-rule="evenodd" clip-rule="evenodd" fill="#A7A9AC" points="284.995,391.638 274.694,391.638 274.694,395.9 
		284.995,395.9 284.995,391.638 	"/>
	<polygon fill-rule="evenodd" clip-rule="evenodd" fill="#A7A9AC" points="293.166,335.51 313.768,335.51 313.768,344.036 
		293.166,344.036 293.166,335.51 	"/>
	<polygon fill-rule="evenodd" clip-rule="evenodd" fill="#A7A9AC" points="309.505,325.564 308.441,325.564 308.441,340.128 
		309.505,340.128 309.505,325.564 	"/>
	<polygon fill-rule="evenodd" clip-rule="evenodd" fill="#A7A9AC" points="370.25,395.189 385.171,395.189 385.171,449.186 
		370.25,449.186 370.25,395.189 	"/>
	<polygon fill-rule="evenodd" clip-rule="evenodd" fill="#A7A9AC" points="381.618,427.161 397.605,427.161 397.605,455.934 
		381.618,455.934 381.618,427.161 	"/>
	<polygon fill-rule="evenodd" clip-rule="evenodd" fill="#6D6E71" points="265.813,269.436 241.301,269.436 241.301,277.962 
		265.813,277.962 265.813,269.436 	"/>
	<polygon fill-rule="evenodd" clip-rule="evenodd" fill="#A7A9AC" points="98.345,427.925 128.39,427.925 128.39,496.695 
		98.345,496.695 98.345,427.925 	"/>
	<polygon fill-rule="evenodd" clip-rule="evenodd" fill="#A7A9AC" points="136.403,449.959 165.779,449.959 165.779,524.74 
		136.403,524.74 136.403,449.959 	"/>
	<polygon fill-rule="evenodd" clip-rule="evenodd" fill="#A7A9AC" points="1289.965,235.499 1301.172,235.499 1301.172,240.26 
		1289.965,240.26 1289.965,235.499 	"/>
	<polygon fill-rule="evenodd" clip-rule="evenodd" fill="#A7A9AC" points="1481.154,257.951 1493.718,257.951 1493.718,263.393 
		1481.154,263.393 1481.154,257.951 	"/>
	<polygon fill-rule="evenodd" clip-rule="evenodd" fill="#A7A9AC" points="1489.422,256.377 1506.23,256.377 1506.23,262.015 
		1489.422,262.015 1489.422,256.377 	"/>
	<polygon fill-rule="evenodd" clip-rule="evenodd" fill="#A7A9AC" points="1516.274,248.896 1515.657,248.896 1515.657,263.246 
		1516.274,263.246 1516.274,248.896 	"/>
	<polygon fill-rule="evenodd" clip-rule="evenodd" fill="#A7A9AC" points="1411.198,331.086 1432.253,331.086 1432.253,341.97 
		1411.198,341.97 1411.198,331.086 	"/>
	<polygon fill-rule="evenodd" clip-rule="evenodd" fill="#A7A9AC" points="1087.807,425.426 1126.458,425.426 1126.458,508.923 
		1087.807,508.923 1087.807,425.426 	"/>
	<polygon fill-rule="evenodd" clip-rule="evenodd" fill="#A7A9AC" points="1092.764,355.803 1082.356,355.803 1082.356,363.98 
		1092.764,363.98 1092.764,355.803 	"/>
	<polygon fill-rule="evenodd" clip-rule="evenodd" fill="#6D6E71" points="1028.419,198.164 1044.716,198.164 1044.716,203.699 
		1028.419,203.699 1028.419,198.164 	"/>
	<polygon fill-rule="evenodd" clip-rule="evenodd" fill="#6D6E71" points="1070.234,196.626 1054.555,196.626 1054.555,208.003 
		1070.234,208.003 1070.234,196.626 	"/>
	<polygon fill-rule="evenodd" clip-rule="evenodd" fill="#6D6E71" points="1120.047,202.777 1157.249,202.777 1157.249,207.387 
		1120.047,207.387 1120.047,202.777 	"/>
	<polygon fill-rule="evenodd" clip-rule="evenodd" fill="#A7A9AC" points="934.335,360.201 958.931,360.201 958.931,374.652 
		934.335,374.652 934.335,360.201 	"/>
	<polygon fill-rule="evenodd" clip-rule="evenodd" fill="#A7A9AC" points="922.65,367.888 930.951,367.888 930.951,371.885 
		922.65,371.885 922.65,367.888 	"/>
	<path fill-rule="evenodd" clip-rule="evenodd" fill="#E3E4E5" d="M1217.352,525.148h16.324v2.359h-52.144v-0.425h-2.852V189.018
		h23.952l1.505-38.35l1.073,27.409h4.275l3.425,10.941h4.443V525.148L1217.352,525.148z M1645.721,178.943l1.69-100.284
		l1.69,100.284h8.577v46.94h3.202v301.198h-3.202h-8.536h-36.255h-3.198h-8.001V274.426h8.001v-48.543h3.198v-46.94h12.54
		l1.714-77.88l1.714,77.88H1645.721L1645.721,178.943z M1478.466,258.421h47.455v268.661h-47.455V258.421L1478.466,258.421z
		 M1374.98,310.162h38.672v216.92h-38.672V310.162L1374.98,310.162z M1286.431,236.55h38.675v290.532h-38.675V236.55
		L1286.431,236.55z M1064.301,359.011h33.488v168.07h-33.488V359.011L1064.301,359.011z M856.892,432.267h11.164V380.92h23.811
		v-11.906v-68.461h33.487v68.461h19.348v158.067h-19.348h-4.465h-11.162h-17.86h-23.811h-11.164V432.267L856.892,432.267z
		 M811.5,320.645h38.696v206.437H811.5V320.645L811.5,320.645z M763.13,399.634h24.559v16.263v111.185H763.13h-40.927h-31.997
		V415.896v-50.603h31.997v50.603h40.927V399.634L763.13,399.634z M600.906,356.363h62.509v170.718h-62.509V356.363L600.906,356.363z
		 M531.701,276.742h58.788v250.34h-58.788V276.742L531.701,276.742z M444.635,252.927h42.417v274.154h-42.417V252.927
		L444.635,252.927z M288.365,337.39h58.044v189.691h-29.022h-29.022h-29.02V393.878h29.02V337.39L288.365,337.39z"/>
	<path fill-rule="evenodd" clip-rule="evenodd" fill="#9C9D9F" d="M1919.522,527.078h27.414h4.179h12.269h2.869h8.618v-29.735
		h-11.487v-8.632h-12.269v8.632v7.847h-4.179v-28.508h-27.414v28.508V527.078L1919.522,527.078z M55.33,349.476h5.375V365.6H48.609
		v161.478h12.096h44.568h12.092V365.6h-12.092v-16.124h5.375v-4.926H55.33V349.476L55.33,349.476z M213.443,527.078h59.002V272.515
		h-59.002V527.078L213.443,527.078z M439.924,325.084v-4.652h-7.444v4.652h-15.736v15.817h-24.656v186.177h4.652h66.91h4.654
		V357.184h-4.654v-16.283h-23.726V325.084L439.924,325.084z M507.926,527.078h59.004V328.807h-59.004V527.078L507.926,527.078z
		 M602.751,527.078h16.282v-118.72h-16.282v-14.422h-23.647v14.422v118.72H602.751L602.751,527.078z M656.331,527.078h23.645
		V422.315h-23.645V527.078L656.331,527.078z M707.505,527.078h23.647v-63.359h-23.647V527.078L707.505,527.078z M735.417,527.078
		h36.207V286.006h-36.207V527.078L735.417,527.078z M843.349,527.078h36.205v-85.689h-36.205V527.078L843.349,527.078z
		 M939.648,527.078h31.089V421.385h-31.089V527.078L939.648,527.078z M1008.965,527.078h70.635V198.834h-70.635V527.078
		L1008.965,527.078z M1186.133,527.078h15.817v-66.151h-15.817V203.501h-70.631v323.577h15.817H1186.133L1186.133,527.078z
		 M1449.222,473.523V336.983h-42.772v136.541h-12.749v53.555h59.449v-53.555H1449.222L1449.222,473.523z M1532.935,469v-31.257
		h-34.359V469h-25.09v58.078h59.449v-31.254V469L1532.935,469z M1536.771,527.078h60.409V353.223h-4.59v-6.561h-2.396l-3.256-3.255
		l-3.253,3.255h-2.396v6.561h-8.662v-6.561h-2.396l-3.253-3.255l-3.257,3.255h-2.393v6.561h-8.666v-6.561h-2.393l-3.257-3.255
		l-3.257,3.255h-2.393v6.561h-4.59V527.078L1536.771,527.078z M1709.136,369.155v-48.228h-43.488v48.228h-21.227v157.923h69.884
		V369.155H1709.136L1709.136,369.155z M1845.62,490.405v-28.509h-19.845v28.509h-4.436v-20.4h-19.845v20.4h-8.094v26.334h67.886
		v-26.334H1845.62L1845.62,490.405z"/>
	<polygon fill-rule="evenodd" clip-rule="evenodd" fill="#666766" points="188.197,164.931 235.038,148.204 243.785,148.204 
		243.785,176.214 247.338,176.214 247.338,264.298 247.338,295.807 247.338,342.63 247.338,355.432 247.338,430.716 
		247.338,462.221 247.338,521.847 148.326,521.847 148.326,355.432 158.264,355.432 158.264,295.807 168.748,295.807 
		168.748,264.298 184.644,264.298 184.644,176.214 188.197,176.214 188.197,164.931 	"/>
	<polygon fill-rule="evenodd" clip-rule="evenodd" fill="#666766" points="406.003,419.021 433.839,407.779 440.088,396.375 
		442.954,396.375 449.202,407.777 477.037,419.022 477.037,423.409 471.194,423.409 471.194,444.45 641.924,444.45 641.924,452.12 
		657.748,452.12 657.748,521.847 302.968,521.847 302.968,452.12 318.79,452.12 318.79,444.45 327.42,444.45 327.42,331.294 
		331.256,331.294 331.256,311.694 335.572,311.694 335.572,289.16 339.338,289.16 339.338,280.53 343.093,280.53 351.866,264.521 
		354.732,264.521 363.502,280.53 367.258,280.53 367.258,289.16 371.023,289.16 371.023,311.694 375.339,311.694 375.339,331.294 
		379.175,331.294 379.175,444.45 411.848,444.45 411.848,423.409 406.003,423.409 406.003,419.021 	"/>
	<polygon fill-rule="evenodd" clip-rule="evenodd" fill="#666766" points="666.915,458.503 701.982,458.503 701.982,521.847 
		666.915,521.847 666.915,458.503 	"/>
	<polygon fill-rule="evenodd" clip-rule="evenodd" fill="#666766" points="750.835,475.582 794.8,475.582 794.8,498.93 
		794.8,521.847 750.835,521.847 690.51,521.847 690.51,498.93 750.835,498.93 750.835,475.582 	"/>
	<polygon fill-rule="evenodd" clip-rule="evenodd" fill="#666766" points="793.951,375.86 807.509,351.118 812.135,351.118 
		825.691,375.86 830.863,375.86 830.863,407.12 854.909,407.12 854.909,521.847 764.736,521.847 764.736,407.12 788.782,407.12 
		788.782,375.86 793.951,375.86 	"/>
	<polygon fill-rule="evenodd" clip-rule="evenodd" fill="#666766" points="866.615,466.602 905.394,466.602 905.394,521.847 
		866.615,521.847 866.615,466.602 	"/>
	<polygon fill-rule="evenodd" clip-rule="evenodd" fill="#666766" points="1120.315,403.003 1124.788,403.003 1133.297,379.492 
		1138.254,379.492 1146.766,403.003 1151.232,403.003 1151.232,415.348 1153.073,420.438 1159.175,420.438 1159.175,521.847 
		1112.372,521.847 1112.372,420.438 1118.477,420.438 1120.315,415.353 1120.315,403.003 	"/>
	<polygon fill-rule="evenodd" clip-rule="evenodd" fill="#666766" points="1309.964,69.842 1383.77,69.842 1383.77,74.782 
		1388.699,74.782 1388.699,79.849 1394.137,79.849 1394.137,85.76 1402.467,85.76 1402.467,478.983 1408.668,478.983 
		1408.668,499.698 1408.668,508.642 1444.152,508.642 1444.152,521.847 1408.668,521.847 1402.467,521.847 1380.702,521.847 
		1309.964,521.847 1236.193,521.847 1192.41,521.847 1192.41,499.698 1192.41,460.293 1201.186,460.293 1201.186,228.823 
		1208.765,228.823 1208.765,216.245 1212.687,216.245 1212.687,206.943 1214.583,206.943 1232.521,176.189 1234.551,176.189 
		1236.152,176.189 1236.152,142.187 1238.709,142.187 1238.709,176.293 1256.586,206.943 1258.475,206.943 1258.475,216.245 
		1262.4,216.245 1262.4,228.823 1269.979,228.823 1269.979,499.698 1309.964,499.698 1309.964,91.192 1309.964,86.125 
		1309.964,85.76 1309.964,81.187 1309.964,79.849 1309.964,74.782 1309.964,69.842 	"/>
	<polygon fill-rule="evenodd" clip-rule="evenodd" fill="#666766" points="1465.944,490.96 1517.423,490.96 1517.423,521.847 
		1465.944,521.847 1442.17,521.847 1420.22,521.847 1420.22,395.588 1425.411,395.588 1425.411,384.415 1452.375,384.415 
		1452.375,395.588 1465.944,395.588 1465.944,490.96 	"/>
	<polygon fill-rule="evenodd" clip-rule="evenodd" fill="#666766" points="1588.62,387.208 1707.768,387.208 1707.768,521.847 
		1588.62,521.847 1588.62,387.208 	"/>
	<polygon fill-rule="evenodd" clip-rule="evenodd" fill="#666766" points="1796.791,499.153 1804.411,499.153 1804.411,503.565 
		1822.865,503.565 1822.865,511.185 1867.775,511.185 1867.775,323.476 1884.23,323.476 1884.23,315.454 1923.135,315.454 
		1923.135,323.476 1935.168,323.476 1935.168,511.185 1949.205,511.185 1949.205,518.806 1997.335,518.806 1997.335,521.61 
		1949.205,521.61 1935.168,521.61 1867.775,521.61 1839.7,521.61 1796.791,521.61 1791.57,521.61 1763.902,521.61 1716.969,521.61 
		1716.969,319.064 1763.902,319.064 1763.902,339.118 1796.791,339.118 1796.791,499.153 	"/>
	<polygon fill-rule="evenodd" clip-rule="evenodd" fill="#666766" points="20.561,467.864 143.473,467.864 143.473,521.847 
		20.561,521.847 20.561,467.864 	"/>
	<polygon fill-rule="evenodd" clip-rule="evenodd" fill="#666766" points="1049.131,435.657 1096.099,435.657 1096.099,443.502 
		1100.62,443.502 1100.62,521.847 1049.131,521.847 1000.765,521.847 954.307,521.847 942.542,521.847 910.471,521.847 
		910.471,469.48 942.542,469.48 942.542,283.504 963.244,283.504 963.244,155.79 963.244,150.074 974.299,150.074 974.299,71.841 
		980.174,71.841 981.736,41.893 983.21,71.841 990.522,71.841 992.123,11.99 993.635,71.841 1004.454,71.841 1004.454,71.489 
		1002.03,71.489 1003.672,33.464 1005.076,67.843 1013.027,67.843 1014.059,61.68 1015.612,71.489 1013.579,71.489 1013.579,71.841 
		1016.38,71.841 1016.38,150.074 1023.87,150.074 1023.87,155.79 1032.427,155.79 1032.427,283.504 1049.131,283.504 
		1049.131,435.657 	"/>
	<path fill-rule="evenodd" clip-rule="evenodd" fill="#666766" d="M136.398,499.763v21.23h4.854v-21.23h135.147v21.23h7.54v-21.23
		h366.734v21.23h9.167v-21.23h20.582v21.23h3.015v-21.23h104.288v21.23h4.223v-21.23h62.073v21.23h5.519v-21.23h79.925v21.23h8.021
		v-21.23h222.165v21.23h5.029v-21.23h27.524v21.23h4.827v-17.26v-3.97h85.855v3.97h9.191v-3.97h79.808v3.97v7.233h28.689v10.027
		h2.571v-21.23h97.202v21.23h28.11v-21.23h162.236v21.23h9.201v-21.23h87.446v3.836h18.449v7.621h23.863v-11.457h95.656v11.457
		h6.822v7.621h10.664v-14.305h31.37v14.305h6.095v2.153h10.024v33.362h0.01v41.243c-662.524,0-1326.867,0.483-1990.102,0.483
		v-41.726h0.008v-33.362h3.286v-21.23H136.398L136.398,499.763z"/>
	<polygon fill-rule="evenodd" clip-rule="evenodd" fill="#A7A9AC" points="890.673,303.933 895.286,303.933 895.286,323.611 
		890.673,323.611 890.673,303.933 	"/>
	<polygon fill-rule="evenodd" clip-rule="evenodd" fill="#A7A9AC" points="890.673,325.764 895.286,325.764 895.286,345.441 
		890.673,345.441 890.673,325.764 	"/>
	<polygon fill-rule="evenodd" clip-rule="evenodd" fill="#A7A9AC" points="890.673,347.594 895.286,347.594 895.286,367.273 
		890.673,367.273 890.673,347.594 	"/>
	<polygon fill-rule="evenodd" clip-rule="evenodd" fill="#231F20" points="1377.768,68.766 1310.503,68.766 1310.503,73.784 
		1377.768,73.784 1377.768,68.766 	"/>
	<polygon fill-rule="evenodd" clip-rule="evenodd" fill="#6D6E71" points="1408.994,335.195 1445.9,335.195 1445.9,340.98 
		1408.994,340.98 1408.994,335.195 	"/>
	<polygon fill-rule="evenodd" clip-rule="evenodd" fill="#6D6E71" points="1443.391,334.189 1434.855,334.189 1434.855,336.703 
		1443.391,336.703 1443.391,334.189 	"/>
	<polygon fill-rule="evenodd" clip-rule="evenodd" fill="#231F20" points="1424.595,387.097 1426.802,387.097 1426.802,399.317 
		1424.595,399.317 1424.595,387.097 	"/>
	<polygon fill-rule="evenodd" clip-rule="evenodd" fill="#231F20" points="1433.772,383.489 1446.668,383.489 1446.668,387.214 
		1433.772,387.214 1433.772,383.489 	"/>
	<polygon fill-rule="evenodd" clip-rule="evenodd" fill="#231F20" points="1453.874,394.894 1464.096,394.894 1464.096,396.291 
		1453.874,396.291 1453.874,394.894 	"/>
	<polygon fill-rule="evenodd" clip-rule="evenodd" fill="#A7A9AC" points="447.907,248.758 447.41,248.758 447.41,256.895 
		447.907,256.895 447.907,248.758 	"/>
	<polygon fill-rule="evenodd" clip-rule="evenodd" fill="#A7A9AC" points="483.713,247.597 483.05,247.597 483.05,255.567 
		483.713,255.567 483.713,247.597 	"/>
	<polygon fill-rule="evenodd" clip-rule="evenodd" fill="#A7A9AC" points="447.577,251.748 472.937,251.748 472.937,256.895 
		447.577,256.895 447.577,251.748 	"/>
	<polygon fill-rule="evenodd" clip-rule="evenodd" fill="#A7A9AC" points="533.941,275.328 554.828,275.328 554.828,284.959 
		533.941,284.959 533.941,275.328 	"/>
	<polygon fill-rule="evenodd" clip-rule="evenodd" fill="#A7A9AC" points="588.312,273.334 583.836,273.334 583.836,278.648 
		588.312,278.648 588.312,273.334 	"/>
	<polygon fill-rule="evenodd" clip-rule="evenodd" fill="#A7A9AC" points="572.399,274.663 584.997,274.663 584.997,278.648 
		572.399,278.648 572.399,274.663 	"/>
	<polygon fill-rule="evenodd" clip-rule="evenodd" fill="#6D6E71" points="513.717,327.633 538.086,327.633 538.086,333.279 
		513.717,333.279 513.717,327.633 	"/>
	<polygon fill-rule="evenodd" clip-rule="evenodd" fill="#6D6E71" points="535.432,326.138 553.005,326.138 553.005,331.285 
		535.432,331.285 535.432,326.138 	"/>
	<polygon fill-rule="evenodd" clip-rule="evenodd" fill="#6D6E71" points="604.192,407.538 616.794,407.538 616.794,410.461 
		604.192,410.461 604.192,407.538 	"/>
	<polygon fill-rule="evenodd" clip-rule="evenodd" fill="#6D6E71" points="577.398,396.111 582.571,396.111 582.571,404.083 
		577.398,404.083 577.398,396.111 	"/>
	<polygon fill-rule="evenodd" clip-rule="evenodd" fill="#6D6E71" points="577.397,408.601 582.57,408.601 582.57,416.575 
		577.397,416.575 577.397,408.601 	"/>
	<polygon fill-rule="evenodd" clip-rule="evenodd" fill="#6D6E71" points="577.397,421.091 582.57,421.091 582.57,429.063 
		577.397,429.063 577.397,421.091 	"/>
	<polygon fill-rule="evenodd" clip-rule="evenodd" fill="#6D6E71" points="577.398,433.582 582.571,433.582 582.571,441.553 
		577.398,441.553 577.398,433.582 	"/>
	<polygon fill-rule="evenodd" clip-rule="evenodd" fill="#A7A9AC" points="659.903,353.991 638.149,353.991 638.149,360.369 
		659.903,360.369 659.903,353.991 	"/>
	<polygon fill-rule="evenodd" clip-rule="evenodd" fill="#A7A9AC" points="623.823,355.054 645.709,355.054 645.709,359.57 
		623.823,359.57 623.823,355.054 	"/>
	<polygon fill-rule="evenodd" clip-rule="evenodd" fill="#6D6E71" points="710.619,462.072 721.433,462.072 721.433,465.19 
		710.619,465.19 710.619,462.072 	"/>
	<polygon fill-rule="evenodd" clip-rule="evenodd" fill="#6D6E71" points="658.189,421.04 677.359,421.04 677.359,426.948 
		658.189,426.948 658.189,421.04 	"/>
	<polygon fill-rule="evenodd" clip-rule="evenodd" fill="#6D6E71" points="736.527,285.391 742.933,285.391 742.933,287.47 
		736.527,287.47 736.527,285.391 	"/>
	<polygon fill-rule="evenodd" clip-rule="evenodd" fill="#6D6E71" points="763.995,285.391 770.402,285.391 770.402,287.47 
		763.995,287.47 763.995,285.391 	"/>
	<polygon fill-rule="evenodd" clip-rule="evenodd" fill="#A7A9AC" points="812.266,319.949 820.952,319.949 820.952,322.095 
		812.266,322.095 812.266,319.949 	"/>
	<path fill-rule="evenodd" clip-rule="evenodd" fill="#CFCECE" d="M679.976,688.357h3.874v-5.972h6.356v21.809v30.359h2.6v0.49
		h25.871v-0.49h3.526v-30.359h5.032v1.834h8.183v76.099h1.109v0.367h6.407v-0.367h21.062v0.367h6.407v-0.367h1.222v-68.177h12.721
		v5.811h4.436v8.454h5.169l13.558,14.843h3.991v18.285h0.766v0.418h8.687v-0.418h29.243v-51.887h4.714v-20.558h1.983v5.471h11.164
		v30.808h23.811v7.144v1.046h-1.193v11.806h1.193v1.292h-1.193v11.806h1.193v1.292h-1.193v11.806h1.193v2.026h33.487v-40.4h5.598
		v-0.675h3.383v5.289h8.207v46.018h20.702v76.627v3.428h11.055v46.943h5.876l1.562,17.967l1.474-17.967h7.312l1.601,35.909
		l1.512-35.909h10.819v0.209h-2.424l1.642,22.814l1.404-20.627h7.951l1.032,3.699l1.553-5.886h-2.033v-0.209h2.801v-46.943h7.49
		v-3.428h8.556v-25.422h12.29v-0.404h9.838v1.327h15.68v-1.327h9.365v-96.105h2.756v1.923h10.408v-1.923h5.025v-39.851h14.583v2.996
		h3.13v130.159h4.545v0.436h37.201v-0.436h21.432v8.69h23.952l1.505,23.013l1.073-16.448h4.275l3.425-6.565h4.443v-7.905
		l15.169,15.604h2.03h1.601v20.4h2.557v-20.462l17.877-18.392h1.889v-5.581h3.925v-7.549h7.579V653.912h16.452v157.889h3.534v0.631
		h11.206v-0.631h8.793v87.213v3.041v0.219v2.746v0.802v3.041v2.962h0.538v0.648h67.265v-0.648h6.003v-2.962h4.929v-3.041h5.437
		v-3.548h8.33v-134.64h11.186v-12.557h18.601v-2.465h2.602v0.607h8.536v-0.607h2.51v-1.073h3.322v-28.456h3.154v-6.705h1.498v0.415
		h10.222v-0.415h1.847v-57.224h7.542v13.177h4.981v126.347h2.688v0.281h8.269v0.943h16.808v-1.224h9.427v5.715h0.617v-5.715h9.647
		V691.086h7.014v-18.755v-16.095v-6.722h3.836v92.283h4.59v3.935h2.393l3.257,1.954l3.257-1.954h2.393v-3.935h8.666v3.935h2.393
		l3.257,1.954l3.253-1.954h2.396v-3.935h8.662v3.935h2.396l3.253,1.954l3.256-1.954h2.396v-3.935h4.59v-20.39h4.508v67.67h8.001
		v29.124h3.198v28.165h12.54l1.714,46.728l1.714-46.728h16.866l1.69,60.169l1.69-60.169h8.577v-28.165h3.202V732.24h4.768v28.936
		h43.488V732.24h5.17v-78.365h2.664v108.419h46.933v-12.032h32.889V659.49h4.703v12.238h19.845V659.49h4.436v17.106h19.845V659.49
		h15.666v-5.615h6.489v105.769h16.455v4.813h38.905v-4.813h12.033V667.72h11.768v-17.103h4.179v4.707v5.18h12.269v-5.18h11.487
		v-4.316h9.294v-8.56h13.17v-1.313h2.948v-20.02h0.01v-24.744c-662.524,0-1326.867-0.291-1990.102-0.291v25.035h0.008v20.02h3.286
		v12.739h7.075v19.135h9.681v1.532h18.367v59.83h12.096v9.674H55.33V747h55.318v-2.955h-5.375v-9.674h12.092v-37.396h11.025V673.01
		h8.013v10.747h11.923v56.714h9.938v35.779h10.485v18.902h15.896v52.85h3.553v6.77l46.841,10.037h8.747v-16.808h3.553v-52.85v-3.082
		h18.475v-1.848h6.632v-72.818h2.249v1.344h10.301v-1.344h3.37v33.893h4.801v1.128h15.275v5.968h1.064v-5.968h4.263v-1.128h13.652
		v3.658h3.836v11.762h4.316v13.52h3.766v5.18h3.755l8.773,9.602h2.866l8.771-9.602h3.755v-5.18h3.766v-13.52h4.316v-11.762h3.836
		v-38.336h5.996v-19.184h6.916v51.757h24.656v9.489h15.736v2.79h7.444v-2.79v-9.489h4.712v52.781h2.775v2.503h0.497v-1.793h25.03
		v-0.709h10.113v3.202h0.663v-3.202h3.339V687.061h20.873v69.387h5.792v0.703h17.983v30.534h2.24v0.85h20.887v-0.85h17.571v1.248
		h11.438v0.799h4.475v-2.047h2.177v-70.316h6.937v8.423h3.481v14.12h22.916v0.788h14.326v0.638h21.754v-1.426h3.512v-38.806h13.944
		v-0.765h2.617V688.357L679.976,688.357z"/>
</g>
<g>
	<path fill="#FFCD00" d="M150.709,644.993c-12.98,6.6-23.54,7.92-32.34,7.92c-27.061,0-45.32-9.24-57.641-21.34
		c-13.2-12.76-22.88-32.12-22.88-55.66c0-23.101,9.68-42.46,22.88-55.221c12.98-12.54,31.9-21.12,54.78-21.12
		c9.68,0,20.9,1.98,35.2,8.14v39.16c-7.48-7.92-18.7-15.62-34.32-15.62c-12.32,0-22.22,3.96-29.92,11.44
		c-8.14,7.92-13.86,19.8-13.86,33.88c0,15.18,6.16,25.96,12.76,32.34c3.08,3.08,13.64,12.32,31.68,12.32
		c8.8,0,20.68-2.42,33.66-15.18V644.993z"/>
	<path fill="#FFCD00" d="M211.648,558.752h58.52v-55.88h33.88v146.741h-33.88v-62.26h-58.52v62.26h-33.88V502.872h33.88V558.752z"/>
	<path fill="#FFCD00" d="M370.705,502.872v146.741h-33.88V502.872H370.705z"/>
	<path fill="#FFCD00" d="M509.525,644.993c-12.98,6.6-23.54,7.92-32.34,7.92c-27.06,0-45.32-9.24-57.64-21.34
		c-13.2-12.76-22.88-32.12-22.88-55.66c0-23.101,9.68-42.46,22.88-55.221c12.98-12.54,31.9-21.12,54.78-21.12
		c9.68,0,20.9,1.98,35.2,8.14v39.16c-7.48-7.92-18.7-15.62-34.32-15.62c-12.32,0-22.22,3.96-29.92,11.44
		c-8.14,7.92-13.86,19.8-13.86,33.88c0,15.18,6.16,25.96,12.76,32.34c3.08,3.08,13.64,12.32,31.68,12.32
		c8.8,0,20.68-2.42,33.66-15.18V644.993z"/>
	<path fill="#FFCD00" d="M622.825,621.893h-55.44l-11.22,27.72h-35.2l59.18-146.741h31.021l57.86,146.741h-35.2L622.825,621.893z
		 M613.584,595.933l-18.04-49.28l-18.26,49.28H613.584z"/>
	<path fill="#FFCD00" d="M751.744,569.532h72.82v1.54c0,17.82-6.38,44.88-22.66,61.82c-16.28,16.94-34.98,20.02-52.36,20.02
		c-17.6,0-36.52-2.86-53.68-20.46c-8.58-8.8-21.56-26.62-21.56-55.88c0-23.98,8.8-43.12,21.12-55.66
		c18.04-18.7,40.26-21.34,57.64-21.34c12.1,0,27.5,1.98,41.14,11c9.9,6.6,18.48,16.94,23.76,26.18l-30.58,16.5
		c-2.86-5.72-7.26-11.66-12.98-15.84c-6.6-4.84-14.08-7.04-22.44-7.04c-13.42,0-23.32,4.4-30.36,11.88
		c-8.14,8.58-12.54,21.12-12.54,34.76c0,16.72,6.16,27.5,12.32,33.66c8.58,8.8,18.48,11.44,29.7,11.44
		c14.52,0,22.22-5.06,25.52-7.92c1.1-0.88,7.7-6.6,10.56-17.38h-35.42V569.532z"/>
	<path fill="#FFCD00" d="M979.884,520.912c13.86,13.42,22.88,32.78,22.88,55.44c0,19.58-7.04,39.6-22.88,55
		c-13.64,13.2-32.121,21.56-56.761,21.56c-27.5,0-46.2-11-57.2-21.56c-14.08-13.2-22.88-33-22.88-54.56
		c0-21.12,9.46-42.46,22.66-55.66c9.9-9.9,28.16-21.561,57.42-21.561C946.004,499.572,965.144,506.612,979.884,520.912z
		 M890.784,543.352c-6.38,6.16-12.98,16.94-12.98,33.22c0,13.42,4.4,24.2,13.42,33c9.46,9.02,20.02,12.1,31.46,12.1
		c14.96,0,25.52-5.5,32.56-12.541c5.72-5.5,12.76-15.84,12.76-32.78c0-15.18-6.16-26.4-12.76-33c-7.26-7.04-18.92-12.54-32.34-12.54
		C910.143,530.812,898.704,535.432,890.784,543.352z"/>
</g>
<g>
	<path fill="#FFCD00" d="M1209.998,523.363h-23.75v-32.5h62.25v166.75h-38.5V523.363z"/>
	<path fill="#FFCD00" d="M1401.997,523.363h-56.25l-4.5,22.25c4.25-0.75,9.5-1.25,13.75-1.25c18.75,0,33.25,6.75,42.5,16.25
		c7.5,7.5,15.25,20.5,15.25,40.25c0,21.5-9.25,35.25-17,43c-15.25,15-33.5,17.5-50.5,17.5c-15.75,0-34.5-2-55.5-18.25l8.75-35.75
		c4.5,5,10.75,10.5,16,13.75c7,4.5,15.25,7.25,25.25,7.25c8.75,0,17.75-2,23.75-6.75c5.25-4,9.75-11.25,9.75-21
		c0-10-4.5-16-8.5-19.5c-2-1.75-10.25-8.75-27.75-8.75c-14,0-25.75,4.25-34,8.75l17-90.25h82V523.363z"/>
	<path fill="#FFCD00" d="M1462.245,619.113l32.75,1.75l-37.75,69.75l-22.5-1L1462.245,619.113z"/>
	<path fill="#FFCD00" d="M1527.745,540.863c1.5-14,7.75-28.75,16.5-37.75c12.25-12.75,28.5-15.75,42.25-15.75
		c20.5,0,35.25,6.25,43.75,14.75c7,6.75,12.75,17.75,12.75,34c0,8.25-1.5,15.5-6.75,22.75c-3.5,5-7.75,8.25-12.5,10.5
		c7,2.5,14.5,7.25,19,13.5c5,6.75,7.75,17.25,7.75,26.25c0,12.75-5,27.25-16.75,38c-14.25,13-30.5,14.5-44,14.5
		c-16.25,0-34-2.5-48.75-17.25c-9.5-9.75-16.75-24.5-18.5-41.25h38.5c0.5,6.5,3.5,14.25,8,18.75c4,4,10.5,6.75,18.5,6.75
		c6.5,0,12.75-2,16.75-5.75s6.75-10.25,6.75-17c0-7-3.25-12.75-7.25-16c-6-4.75-14.75-5.25-20.5-5.25h-3v-26.5h2.25
		c2.25,0,11.25-0.25,16.75-4.75c3.5-3,6.25-8.25,6.25-15c0-5.75-2.25-10.5-5.5-13.5c-3-2.75-8-5-14.25-5c-6.5,0-11.75,2.25-15,5.5
		c-3.5,3.75-5.75,10.25-6,15.5H1527.745z"/>
	<path fill="#FFCD00" d="M1785.993,644.113c-9.75,9.5-24.25,17.25-44.75,17.25c-20,0-34.25-7.5-44.25-17.25
		c-16.25-16-24-41.25-24-69.75c0-28.75,7.75-54.25,24-70c10-9.75,24.25-17.25,44.25-17.25c20.5,0,35,7.75,44.75,17.25
		c16.25,15.75,24,41.25,24,70C1809.993,602.863,1802.243,628.113,1785.993,644.113z M1725.993,526.363c-12.25,12-14,36-14,47.75
		c0,13,2.25,36.5,14,48c4.5,4.25,9,6.25,15.5,6.25s11-2,15.5-6.25c11.75-11.5,14-35,14-48c0-11.75-1.75-35.75-14-47.75
		c-4.5-4.25-9-6.25-15.5-6.25S1730.493,522.113,1725.993,526.363z"/>
	<path fill="#FFCD00" d="M1850.989,647.363c-12.75-11.5-16-25.25-16-36.25c0-14.25,6.25-23.25,11.25-28.5
		c5.5-5.75,13.5-10.25,20.75-12.5c-4.25-1.75-10-4.75-15.25-10.25c-7.5-7.75-10.25-16.25-10.25-26.5c0-14,5.25-24,12.25-31
		c12.25-12.5,28.25-15.25,43.25-15.25c14.5,0,30.5,2.75,42.75,15.25c7,7,12.25,17,12.25,31c0,10.25-2.75,18.75-10.25,26.5
		c-5.25,5.5-11,8.5-15.25,10.25c7.25,2.25,15.25,6.75,20.75,12.5c5,5.25,11.25,14.25,11.25,28.5c0,11-3.25,24.75-16,36.25
		c-14.75,13.25-30.25,14-46,14C1881.489,661.363,1865.739,660.613,1850.989,647.363z M1880.489,591.613c-4,4-6.5,10.75-6.5,16.5
		c0,6,2,12.5,6.5,16.75c4.25,4,10.5,6,16.25,6s12-2,16.25-6c3.75-3.5,6.5-9.75,6.5-17c0-7-2.75-12.75-6.5-16.25
		c-4-4-10.25-6-16.75-6S1883.989,588.113,1880.489,591.613z M1881.989,521.113c-4.25,4-6.25,8.75-6.25,14.25
		c0,7,3.25,11.5,6.25,14.25c3.75,3.25,8.75,5.5,14.75,5.5c5.25,0,10.25-1.5,14.5-5.5s6.25-8.5,6.25-14.25
		c0-8.25-4.5-12.75-6.25-14.5c-3.5-3-8.5-5.25-14.5-5.25C1891.489,515.613,1886.489,517.113,1881.989,521.113z"/>
</g>
</svg>
