<?xml version="1.0" encoding="utf-8"?>
<!-- Generator: Adobe Illustrator 18.1.1, SVG Export Plug-In . SVG Version: 6.00 Build 0)  -->
<svg version="1.1" id="Layer_1" xmlns="http://www.w3.org/2000/svg" xmlns:xlink="http://www.w3.org/1999/xlink" x="0px" y="0px"
	 viewBox="0 0 2000.19 1231.665" enable-background="new 0 0 2000.19 1231.665" xml:space="preserve">
<g>
	<g>
		<polygon fill="#756525" points="1808.526,541.14 1789.253,541.14 1789.253,515.707 1779.615,515.707 1779.615,541.14 
			1751.118,541.14 1751.118,472.341 1718.181,472.341 1718.181,593.863 1751.118,593.863 1751.118,592.802 1808.526,592.802 		"/>
		<rect x="1404.981" y="459.091" fill="#756525" width="22.888" height="120.46"/>
		<rect x="903.044" y="300.005" fill="#756525" width="65.058" height="310.835"/>
		<polygon fill="#756525" points="988.456,605.395 988.456,553.979 1039.346,553.979 1045.879,560.512 1052.067,554.324 
			1062.383,564.638 1073.042,564.638 1073.042,346.295 1077.17,346.295 1077.17,310.535 1117.742,310.535 1117.742,300.908 
			1132.871,300.908 1132.871,249.331 1135.623,246.58 1135.623,307.097 1179.634,307.097 1185.825,333.917 1185.825,379.304 
			1190.639,379.304 1216.77,388.244 1216.77,413.689 1216.77,523.72 1220.898,523.72 1220.898,415.752 1237.401,415.752 
			1237.401,404.062 1277.288,404.062 1283.476,414.377 1306.17,414.377 1306.17,564.295 1318.549,564.295 1318.549,605.395 		"/>
		<polygon fill="#756525" points="1421.539,592.053 1421.539,572.312 1433.92,572.312 1433.92,477.611 1443.624,477.611 
			1443.624,410.686 1454.667,410.686 1454.667,391.612 1480.435,391.612 1480.435,393.619 1484.785,393.619 1484.785,408.342 
			1490.138,408.342 1490.138,391.275 1510.552,391.275 1510.552,381.573 1523.269,381.573 1523.269,376.218 1539.997,376.218 
			1539.997,383.915 1580.824,383.915 1580.824,394.288 1592.87,394.288 1592.87,549.222 1599.898,549.222 1599.898,448.163 
			1608.264,448.163 1608.264,424.405 1611.609,424.405 1611.609,415.37 1625.328,380.234 1643.064,414.366 1643.064,422.732 
			1649.422,422.732 1649.422,448.498 1654.44,454.856 1654.44,599.75 		"/>
		<polygon fill="#756525" points="125.377,608.312 125.377,388.327 148.017,384.881 148.509,379.96 166.718,377.498 189.85,379.468 
			190.833,386.849 210.519,386.849 210.519,577.801 212.98,575.34 212.98,412.932 220.361,412.932 220.361,407.027 228.48,407.027 
			228.48,413.118 230.695,413.118 230.695,406.657 238.63,406.657 238.63,413.487 254.133,413.487 254.133,529.571 271.481,529.571 
			271.542,609.79 		"/>
		<polygon fill="#756525" points="790.888,580.342 793.699,293.631 796.309,292.829 795.707,289.214 794.1,289.214 794.1,266.928 
			798.718,266.928 799.32,264.318 823.213,264.318 831.444,266.727 839.275,266.727 839.275,148.068 877.423,125.379 
			900.713,125.379 901.315,126.986 904.728,126.986 912.76,156.299 912.76,172.16 914.164,177.381 914.164,591.586 		"/>
		<polygon fill="#756525" points="450.368,547.95 450.368,355.471 468.037,319.063 479.28,319.063 484.099,319.063 486.509,276.23 
			486.509,320.135 495.075,320.135 524.254,356.81 527.736,356.541 527.736,433.909 544.332,442.475 560.395,442.475 
			568.159,447.562 568.159,360.022 596.267,344.762 603.494,344.762 603.494,337.804 609.921,334.858 619.557,337.267 
			619.557,344.495 645.525,354.669 646.06,357.881 653.824,360.825 653.824,579.003 446.086,579.003 		"/>
		<path fill="#756525" d="M667.79,572.715l-2.548-235.543l3.568-3.571v-31.608c0,0,3.823-1.53,3.569-2.294
			c-0.254-0.764,0-40.277,0-40.277l5.099-5.099h12.745v-20.14l6.372-5.098h11.727v-4.08h4.844v-2.294h6.628v-7.901l0.637-0.639
			v-12.873h1.402v13.257h3.823v7.392h2.805v3.059h24.982l2.039,5.353v23.964h14.53l3.823,5.099v37.217l3.315,5.863v28.041
			l3.823,3.059v244.465L667.79,572.715z"/>
		<polygon fill="#756525" points="1289.465,595.105 1289.465,291.162 1303.312,291.162 1303.312,295.67 1313.615,295.67 
			1313.615,283.757 1317.478,283.757 1317.478,268.947 1319.41,267.013 1319.41,232.564 1324.239,232.564 1324.239,224.193 
			1331,214.855 1341.303,223.548 1341.303,230.311 1344.201,230.311 1344.201,263.152 1347.421,266.371 1347.421,282.149 
			1352.894,282.149 1352.894,294.06 1361.587,294.06 1361.587,325.614 1367.707,325.614 1367.707,321.428 1370.604,321.428 
			1370.604,325.614 1374.468,325.614 1374.468,320.784 1377.688,320.784 1377.688,602.512 		"/>
		<polygon fill="#756525" points="1068.05,501.143 1057.878,501.143 1057.878,255.925 1057.878,205.597 1049.444,205.597 
			1049.444,184.715 1047.437,182.707 1047.437,172.267 1039.809,172.267 1039.809,159.82 1032.579,159.82 1032.579,150.182 
			1027.76,150.182 1027.76,142.151 1024.952,136.93 1024.952,91.555 1018.324,84.929 1017.455,11.413 1017.455,0 1017.39,5.706 
			1017.321,0 1017.321,11.413 1016.452,84.929 1009.827,91.555 1009.827,136.93 1007.016,142.151 1007.016,150.182 
			1002.197,150.182 1002.197,159.82 994.969,159.82 994.969,172.267 987.339,172.267 987.339,182.707 985.331,184.715 
			985.331,205.597 976.898,205.597 976.898,255.925 976.898,501.143 966.725,501.143 966.725,583.595 1017.321,588.267 
			1017.321,588.279 1017.39,588.272 1017.455,588.279 1017.455,588.267 1068.05,583.595 		"/>
	</g>
	<g>
		<polygon fill="#B59200" points="1396.749,604.987 1397.955,550.376 1418.835,547.967 1448.951,547.967 1448.951,575.674 
			1452.165,572.462 1452.165,546.36 1468.627,546.36 1468.627,541.944 1489.107,541.944 1489.107,547.565 1505.972,547.565 
			1505.972,573.264 1540.908,573.264 1540.908,560.013 1556.97,560.013 1556.97,570.053 1570.623,570.053 1570.623,550.777 
			1581.064,543.55 1590.299,543.55 1590.299,565.234 1595.922,565.234 1595.922,521.464 1613.59,521.464 1613.59,507.007 
			1644.509,507.007 1644.509,553.99 1646.917,551.581 1646.917,486.127 1699.122,486.127 1699.122,535.919 1702.734,535.919 
			1702.734,514.236 1722.411,514.236 1722.411,508.614 1737.268,508.614 1744.898,516.243 1744.898,541.14 1769.794,541.14 
			1769.794,550.376 1784.651,550.376 1783.447,601.373 		"/>
		<polygon fill="#B59200" points="774.772,599.817 774.772,471.074 755.417,466.194 713.139,466.194 713.139,575.409 
			700.405,575.409 700.405,411.423 646.921,411.423 646.921,590.665 646.921,603.478 		"/>
		<polygon fill="#B59200" points="1357.082,602.295 1357.082,376.351 1401.646,376.351 1401.646,601.512 		"/>
		<polygon fill="#B59200" points="1209.406,612.563 1209.406,446.721 1264.218,446.721 1264.218,553.134 1275.665,553.134 
			1281.486,567.589 1281.486,609.753 		"/>
		<polygon fill="#B59200" points="394.882,612.051 394.882,584.762 420.381,584.762 420.381,504.685 432.46,503.789 432.46,498.869 
			436.933,499.317 436.933,483.212 467.355,483.212 467.355,496.633 481.669,497.08 481.669,510.053 512.09,510.053 512.09,552.552 
			542.063,552.552 542.063,540.922 549.668,540.922 571.589,553.893 571.589,559.709 653.008,559.709 653.008,605.341 		"/>
		<polygon fill="#B59200" points="867.801,601.956 867.801,390.497 879.472,389.497 879.472,383.16 896.15,383.16 896.15,373.488 
			914.493,371.486 919.497,381.157 919.497,388.829 929.502,388.829 929.502,491.557 939.509,491.557 939.509,468.211 
			974.528,468.211 989.871,475.882 989.871,605.624 869.467,605.624 		"/>
		<polygon fill="#B59200" points="258.96,614.207 258.96,582.733 269.159,581.275 269.159,575.739 281.107,573.116 281.107,566.997 
			290.433,566.997 290.433,573.116 295.968,573.116 295.968,516.292 310.54,516.292 310.54,491.52 331.231,491.52 337.933,493.269 
			337.933,512.211 341.14,512.211 341.14,499.681 347.55,499.097 347.55,494.726 382.229,499.681 385.726,503.178 396.217,503.178 
			396.217,511.92 411.953,511.92 411.953,560.004 406.708,560.004 406.708,610.71 		"/>
		<polygon fill="#B59200" points="1009.958,589.762 1009.958,517.481 1012.568,514.872 1012.568,343.206 1017.186,343.206 
			1017.186,333.167 1039.272,328.75 1076.214,328.75 1076.214,341.6 1079.829,341.6 1079.829,513.466 1083.444,513.466 
			1083.444,603.414 1009.958,605.021 		"/>
		<polygon fill="#B59200" points="607.779,594.263 607.779,439.529 638.298,439.529 638.298,593.727 		"/>
		<polygon fill="#B59200" points="774.66,607.35 774.66,540.657 781.329,540.657 781.329,515.758 786.664,515.758 786.664,473.963 
			794.667,473.963 794.667,401.489 812.007,384.148 830.237,384.148 848.69,402.6 848.69,488.191 853.359,488.191 853.359,609.129 
					"/>
		<rect x="1302.592" y="484.385" fill="#B59200" width="48.184" height="116.847"/>
		<rect x="1085.763" y="559.069" fill="#FFCD00" width="136.119" height="48.184"/>
	</g>
	<rect x="4.669" y="605.004" fill="#1A4268" width="1997.311" height="11.478"/>
	<g>
		<path fill="#FFCD00" d="M1283.633,553.499h-9.557l-1.125-30.034c0,0-0.003-5.828-3.934-9.414
			c-3.932-3.587-7.303-3.587-7.303-3.587l-1.615-14.751v-0.042l-0.036,0.022l-0.037-0.022v0.042l-1.615,14.751
			c0,0-3.372,0-7.303,3.587c-3.934,3.586-3.937,9.414-3.937,9.414l-1.123,30.034h-9.557v57.829l23.535,1.339v0.007l0.037-0.003
			l0.036,0.003v-0.007l23.535-1.339V553.499z"/>
		<polygon fill="#FFCD00" points="398.434,612.465 398.969,595.731 423.598,596.041 424.402,542.31 442.069,542.077 
			441.802,520.912 455.991,520.912 482.761,520.912 482.761,544.046 529.073,544.046 529.073,602.622 534.694,602.622 
			534.694,609.266 		"/>
		<polygon fill="#FFCD00" points="8.685,608.704 8.685,567.257 28.23,567.257 28.23,560.314 35.173,560.314 35.173,606.388 
			78.124,606.388 78.124,513.508 106.156,513.508 106.156,498.848 127.759,498.848 127.759,516.08 144.476,516.08 144.476,604.332 
			162.221,604.332 162.221,560.22 166.337,560.22 166.337,549.931 178.424,549.931 178.424,564.077 180.224,564.077 
			180.224,533.986 190.512,533.986 190.512,528.329 203.114,528.329 203.114,533.986 239.376,533.986 239.376,609.732 
			8.685,609.732 		"/>
		<polygon fill="#FFCD00" points="1465.13,606.951 1465.13,601.401 1479.495,601.401 1479.495,594.217 1488.641,594.217 
			1488.641,586.707 1488.895,557.539 1532.069,557.539 1533.702,583.767 1537.456,580.012 1561.456,580.012 1561.967,515.69 
			1596.396,515.991 1596.396,581.155 1627.414,581.155 1627.414,547.645 1637.209,547.645 1637.209,552.542 1685.325,552.542 
			1685.21,533.956 1712.966,533.956 1712.966,596.176 1747.903,596.176 1747.903,592.258 1747.901,552.107 1777.618,552.107 
			1777.618,543.453 1784.148,543.453 1784.148,551.29 1818.433,551.29 1819.588,593.4 1841.62,593.4 1845.944,597.727 
			1926.824,597.727 1926.801,546.862 1951.984,546.862 1952.23,583.248 1984.639,583.248 1984.639,606.298 1995.088,606.298 
			1995.088,611.849 		"/>
		<polygon fill="#FFCD00" points="794.368,612.277 794.368,490.482 840.216,490.772 840.216,565.828 849.58,565.828 849.58,517.632 
			884.772,517.632 884.772,527.067 893.168,527.067 893.168,586.821 906.728,586.821 906.728,456.611 923.517,456.611 
			923.517,430.366 925.131,430.366 925.131,456.338 937.724,456.338 937.724,603.556 937.724,611.757 		"/>
		<polygon fill="#FFCD00" points="1125.474,613.63 1125.474,585.071 1158.019,585.071 1158.019,572.452 1182.592,572.452 
			1182.592,583.079 1191.89,583.079 1191.89,598.355 1199.86,598.355 1199.86,608.981 1250.335,608.981 1250.335,573.78 
			1295.731,573.78 1295.731,525.547 1344.908,525.547 1344.908,574.445 1408.842,574.445 1409.242,496.544 1437.753,496.544 
			1437.753,574.445 1470.836,574.445 1470.836,606.324 		"/>
		<polygon fill="#FFCD00" points="1047.251,610.718 1047.251,484.809 1062.297,484.387 1095.165,484.387 1095.165,554.923 
			1105.065,554.923 1105.065,522.766 1146.645,522.766 1146.645,605.408 1146.645,612.841 		"/>
		<polygon fill="#FFCD00" points="1213.189,520.625 1208.925,517.581 1208.925,473.114 1205.268,467.632 1204.357,444.487 
			1196.133,444.487 1196.133,421.948 1190.958,417.99 1190.958,408.852 1187.301,405.502 1181.553,369.81 1181.553,369.565 
			1181.535,369.686 1181.514,369.565 1181.514,369.81 1175.765,405.502 1172.112,408.852 1172.112,417.99 1166.934,421.948 
			1166.934,444.487 1158.71,444.487 1157.798,467.632 1154.144,473.114 1154.144,517.581 1149.878,520.625 1150.181,608.34 
			1181.514,609.252 1181.514,609.253 1181.535,609.253 1181.553,609.253 1181.553,609.252 1212.883,608.34 		"/>
		<polygon fill="#FFCD00" points="1046.277,611.695 1046.277,452.462 1016.796,452.559 1016.796,439.655 992.517,439.809 
			992.517,451.207 982.113,451.207 982.113,528.564 971.708,528.564 971.402,614.458 1044.544,614.458 		"/>
		<polygon fill="#FFCD00" points="796.315,612.466 796.825,592.78 765.623,568.393 765.258,501.103 732.53,501.166 732.53,582.451 
			729.693,582.451 729.693,457.69 688.721,457.69 686.83,561.795 662.562,561.795 648.695,561.682 648.695,603.394 644.283,603.394 
			644.283,530.151 637.033,530.151 628.839,535.312 628.839,606.837 622.942,606.837 622.942,556.533 605.517,556.533 
			605.517,609.13 566.05,609.13 539.076,608.557 533.343,610.853 530.186,612.466 		"/>
		<rect x="223.448" y="586.233" fill="#FFCD00" width="77.099" height="26.503"/>
		<rect x="290.106" y="598.28" fill="#FFCD00" width="104.776" height="13.771"/>
		<rect x="355.159" y="560.534" fill="#FFCD00" width="32.124" height="46.581"/>
		<rect x="328.656" y="583.824" fill="#FFCD00" width="23.29" height="16.866"/>
		<rect x="510.16" y="580.612" fill="#FFCD00" width="77.902" height="30.518"/>
		<rect x="553.528" y="493.073" fill="#FFCD00" width="17.669" height="101.995"/>
		<rect x="919.746" y="572.581" fill="#FFCD00" width="61.839" height="37.746"/>
	</g>
</g>
<path fill="#FFF0B3" d="M1984.639,634.135v21.488h-32.408l-0.246,35.937h-25.184l0.024-50.236h-80.88l-4.324,4.272h-22.032
	l-1.154,41.591h-9.907v10.025h-19.273v25.118h-9.638V697.21h-9.821h-18.676v67.95h-32.937v-41.379h-15.446v-19.477h-3.612v47.239
	h-44.682v30.885l-5.018,6.28v25.448h-6.358v8.264l-17.737,33.709l-13.719-34.701v-8.923h-3.345v-23.467h-8.366v-72.394h-3.502v5.405
	l-3.526,0.031v120.168h-12.046v10.245h-40.826v7.604h-16.729v-5.29h-12.716v-9.583h-20.414v-16.855h-5.353v14.541h-4.35v1.982
	h-25.767v-18.839h-11.043v-66.096h-9.704v-18.7h-6.052v36.989h-22.888v-89.356l-3.335-0.38v171.453h-23.958v54.883h-3.22v-4.772
	h-3.864v4.133h-2.898v-4.133h-6.12v31.165h-8.693v11.763h-5.473v15.582l-3.22,3.18v32.434h-2.898v6.68l-10.303,8.586l-6.761-9.224
	v-8.266h-4.829V967.95l-1.932-1.911v-14.627h-3.864v-11.766h-10.303v4.452h-13.847V822.406h-5.989l-6.188,10.188h-39.886v-11.546
	h-16.504v-30.586h-4.128v32.625v25.131l-26.131,8.829h-4.814v44.826l-6.191,26.49h-44.012v59.769l-2.751-2.717v-50.941h-15.13v-9.51
	h-40.572v-30.681h-0.956v12.693h-18.336v71.926v49.705h-8.434v20.624l-2.008,1.984v10.311h-7.628v12.295h-7.23v9.517h-4.819v7.931
	l-2.809,5.157v44.815l-6.628,6.544l-0.869,72.609v11.271l-0.065-5.636l-0.068,5.636v-11.271l-0.869-72.609l-6.625-6.544v-44.815
	l-2.811-5.157v-7.931h-4.819v-9.517h-7.228v-12.295h-7.63v-10.311l-2.008-1.984v-20.624h-8.432v-49.705V768.068l-2.37,1.17h-6.426
	v166.129h-53.938v121.11l-1.404,5.154v15.666l-8.032,28.95h-3.413l-0.602,1.589h-23.29l-38.148-22.409V968.233h-7.83l-8.231,2.379
	H799.32l-0.602-2.578H794.1v-22.011h1.606l0.602-3.568l-2.61-0.793l-1.768-178.105h-5.267v-41.279h-5.335v-24.592h-0.357v204.497
	l-3.823,3.021v27.696l-3.315,5.79v36.756l-3.823,5.036h-14.53v23.668l-2.039,5.287H728.46v3.021h-2.805v7.3h-3.823v13.093h-1.402
	v-12.716l-0.637-0.631v-7.8h-6.628v-2.267h-4.844v-4.028h-11.727l-6.372-5.036v-19.891h-12.745l-5.099-5.036
	c0,0-0.254-39.023,0-39.779c0.254-0.754-3.569-2.264-3.569-2.264v-31.22l-3.568-3.526l0.802-73.334h-12.22v49.972l-7.764,2.908
	l-0.535,3.173l-25.968,10.049v7.138l-9.637,2.379l-6.426-2.908v-6.874h-7.227l-28.109-15.072v-86.458l-7.764,5.026h-16.063
	l-16.596,8.46v76.41l-3.482-0.265l-29.179,36.222h-8.566v43.363l-2.409-42.302h-4.819h-11.244l-17.669-35.96V754.422h-13.435
	v-15.904l-4.474,0.44v-4.858l-12.079-0.885v-79.09h-13.673v24.453h5.244v47.491h-15.736v8.635h-10.491l-3.497,3.453l-34.679,4.895
	v-4.319l-6.41-0.576v-12.376h-3.207v18.708l-6.702,1.727h-20.69v-24.464h-14.572v-56.126h-5.535v6.047h-9.326v-6.047l-9.591-2.078
	l-0.035,45.088h-17.348v114.652H238.63v6.743h-7.935v-6.379h-2.216v6.015h-8.118v-5.834h-7.382V704.275h-2.461v145.319h-19.686
	l-0.984,7.29l-23.132,1.945l-18.209-2.429l-0.492-4.861l-22.639-3.403V738.979h-19.221v-14.478H78.124v-90.366h-42.95v44.137H28.23
	v-6.858H8.685v-37.279H4.669v-11.337H2001.98v11.337H1984.639z"/>
<g>
	<text transform="matrix(1 0 0 1 90.9062 680.7734)"><tspan x="0" y="0" font-family="'FuturaPT-Heavy'" font-size="200">NEW </tspan><tspan x="506.595" y="0" font-family="'FuturaPT-Heavy'" font-size="200" letter-spacing="-7">Y</tspan><tspan x="625.394" y="0" font-family="'FuturaPT-Heavy'" font-size="200">ORK</tspan></text>
	<text transform="matrix(1 0 0 1 1221.8817 706.7752)" font-family="'FuturaPT-Heavy'" font-size="300">50%</text>
</g>
</svg>
