<?xml version="1.0" encoding="utf-8"?>
<!-- Generator: Adobe Illustrator 18.1.1, SVG Export Plug-In . SVG Version: 6.00 Build 0)  -->
<svg version="1.1" id="Layer_1" xmlns="http://www.w3.org/2000/svg" xmlns:xlink="http://www.w3.org/1999/xlink" x="0px" y="0px"
	 viewBox="0 0 1920 1080" enable-background="new 0 0 1920 1080" xml:space="preserve">
<g>
	<polygon fill="#BFBFBF" stroke="#BFBEBE" stroke-width="12" stroke-miterlimit="10" points="990.5,439.5 990.5,413.9 994.1,413.9 
		994.1,409.4 1015,409.4 1015,396.6 1018.6,396.6 1018.6,392.1 1105.3,392.1 1105.3,314.7 1063.3,314.7 1063.3,375 1010.3,375 
		1010.3,360.7 978.2,360.7 978.2,439.5 	"/>
	<polygon fill="#BFBFBF" stroke="#BFBEBE" stroke-width="12" stroke-miterlimit="10" points="1250.9,392.1 1250.9,396.6 
		1254.4,396.6 1254.4,409.4 1281,409.4 1281,413.9 1284.5,413.9 1284.5,424.5 1294.5,424.5 1300.9,424.5 1306.4,424.5 1310.8,424.5 
		1310.8,365.5 1293.5,365.5 1293.5,340.1 1249.3,340.1 1249.3,309.9 1229.6,309.9 1162.8,309.9 1162.8,392.1 	"/>
	<polygon fill="#BFBFBF" stroke="#BFBEBE" stroke-width="12" stroke-miterlimit="10" points="452.4,365.8 483.8,365.8 513.2,365.8 
		513.2,292.5 505.6,292.5 505.6,283 455.1,283 455.1,300.4 448.9,316.2 448.9,336.9 452.4,336.9 	"/>
	<path fill="#999999" stroke="#999999" stroke-width="15" stroke-miterlimit="10" d="M448.9,374.8v-4.5h-3.5v-23.4
		c-0.6-0.3-1-0.8-1-1.6v-12.8l-37.3-36.8l-46.8,47.6h-20.9V329l-49.3-46L236,329v15.9h-7.4v14.3h-8.1v11.2H217v4.5h-27.4v165.2h-4.2
		c-0.6,5.4-1.8,11.7,0.3,16c3.1,6,14.9,3.1,20.3,3.7c0.9,0.1,1.6,0.8,1.7,1.6H414v-41.1h3.5v-4.5h27.9v-14.2h3.5v-4.5h31.3V374.8
		H448.9z M332.3,349.2c-2.4,0-2.4-3.7,0-3.7C334.7,345.5,334.7,349.2,332.3,349.2z"/>
	<polygon fill="#999999" stroke="#999999" stroke-width="15" stroke-miterlimit="10" points="541.8,370.3 541.8,453 608.3,453 
		608.3,444.1 611.8,444.1 611.8,439.5 703.5,439.5 703.5,444.1 707.1,444.1 707.1,444.5 708.9,444.5 708.9,313.1 695.1,313.1 
		695.1,435.8 688,435.8 688,313.1 691.5,313.1 691.5,173.4 574.5,152.7 516.7,152.7 516.7,292.5 520.2,292.5 520.2,365.8 
		538.3,365.8 538.3,370.3 	"/>
	<path fill="#BFBFBF" stroke="#BFBEBE" stroke-width="12" stroke-miterlimit="10" d="M824.5,233.7V221h-78.7v11.1h-13.6l-19.7,17.5
		v63.5h3.5v131.4h0.4V444h3.5v-4.5h40.9v-90.3h3.5v-4.5h13.3c2.3-5.2,8.1-15.9,16.5-16.2c6.1-0.3,11.6,5.3,16.7,16.2h45.7v-111
		L824.5,233.7L824.5,233.7z"/>
	<path fill="#666666" stroke="#666666" stroke-width="15" stroke-miterlimit="10" d="M715.9,448.2v9.3h-7v-9.3h-1.8v9.3h-7v-9h-84.7
		v9h-3.5v4.5h-72.6c-0.1,8.5-0.3,17-0.6,25.5h38.6v-15.3h3.5v-4.5h80.9v4.5h3.5v5.5H700v-5.5h3.5v-4.5h12.8v-19.4L715.9,448.2
		L715.9,448.2z"/>
	<path fill="#666666" stroke="#666666" stroke-width="15" stroke-miterlimit="10" d="M511,501.5h3.5v14.2h20
		c0.2-19.4,1.1-38.7,1.2-58.1h-0.8v-82.7h-47.4V497h23.8v4.5L511,501.5L511,501.5z"/>
	<path fill="#333333" stroke="#333333" stroke-width="16" stroke-miterlimit="10" d="M203.8,602h644.3c-0.2-4.3-0.4-8.5-0.5-12.8
		h-1.5v-30.6H672.5v30.6h-7v-64.5H537.6c-0.7,0.6-1.8,0.6-2.6,0h-24v-4.5h-3.5V506h-55.1v14.1h-3.5v4.5H421v54h-7v-8.3H205v18.9
		h-1.1L203.8,602L203.8,602z"/>
	<path fill="#666666" stroke="#666666" stroke-width="15" stroke-miterlimit="10" d="M200.1,589.2h-2.2v-23.4h3.5v-2.5
		c-6.3,0.2-13.7,1.1-17.9-3.7c-5-5.7-1.8-16.5-1.6-23.3c0-0.6,0.2-1,0.6-1.3v-60.6h-31.1l-25.5,16.9v36.1h-3.5v4.5H60.7v-6.1
		c-3.1,0-6.3,0.1-9.4-0.1v1.7H-2.9V602h203.1L200.1,589.2L200.1,589.2z"/>
	<path fill="#333333" stroke="#333333" stroke-width="16" stroke-miterlimit="10" d="M888.9,589.2V486.6h-20.1V482h-3.5v-5.5h-20.2
		v5.5h-3.5v4.5h-77.2V482h-3.5v-33.6h-37.4V472H720v4.5h-12.8v5.5h-3.5v4.5h-41.8V482h-3.5v-5.5h-73.8v15.3H581v4.5h-42.4
		c-0.2,6.4-0.3,12.7-0.4,19h130.9v4.5h3.5v29.4h177.2v4.5h3.5v35.1h-1.8c0.1,4.3,0.3,8.5,0.5,12.8h35.2c0.7-4.3,1.6-8.6,2.4-12.8
		L888.9,589.2L888.9,589.2z"/>
	<path fill="#333333" stroke="#333333" stroke-width="16" stroke-miterlimit="10" d="M895.9,589.2h-2.6c-0.9,4.3-1.8,8.5-2.5,12.8
		h80.8c-0.2-0.3-0.3-0.6-0.3-1V482.1h-0.2V377.3h-76.9v104.8h1.6L895.9,589.2L895.9,589.2z"/>
	<path fill="#999999" stroke="#969696" stroke-width="10" stroke-miterlimit="10" d="M1081.6,522.3v1.3h1.3v65.5h-1.3v10.5
		c0,0.9-0.6,1.5-1.2,1.7c0,0.2,0,0.4,0,0.6h218c-0.3-4.3-0.3-8.5-0.3-12.8h-0.7v-66.9h-215.8V522.3z"/>
	<path fill="#666666" stroke="#666666" stroke-width="26" stroke-miterlimit="10" d="M1076.7,602c0.3-4.3,0.5-8.5,0.6-12.8h-1.5
		v-65.5h2v-5.8c0-1,0.6-1.6,1.5-1.8v-2.8h127.2v-23.8h-14.1l-0.9-2.6c-0.3-0.8-0.6-1.6-0.9-2.2l0,0h-0.8h-0.8h-0.8h-0.8h-0.8h-0.8
		h-0.8h-0.8h-0.8h-0.8h-0.8h-0.8h-0.5c-0.7,1-1.3,2.1-1.7,2.9l-1,2.1h-45.9l-0.9-2.6c-0.4-1.1-0.8-2.2-1.3-3.1h-0.1h-0.8h-0.8h-0.8
		h-0.8h-0.8h-0.8h-0.8h-0.8h-0.8h-0.8h-0.8h-0.8h-0.8h-0.8h-0.8h-0.8h-0.8h-0.8h-0.8h-0.8h-0.6c-0.2,0.3-0.3,0.6-0.5,0.8l-1,2.3
		h-83.4v37.1h-3.2v66.2c0.2,0.3,0.3,0.6,0.3,1v11.2h52.6V602H1076.7z"/>
	<path fill="#999999" stroke="#999999" stroke-width="15" stroke-miterlimit="10" d="M1319.4,457.6v-23.8h-8.6v-0.2H1281V429h-3.5
		v-10.5H1251V414h-3.5v-12.8h-88.1v-4.5h-3.5v-86.8h3.5V294c-11.1-9.5-19.7-68.2-19.7-68.2h-9.9c-4.9,49.2-20.9,71.4-20.9,71.4v17.5
		h3.5v82h-3.5v4.5h-86.8V414h-3.5v4.5h-21v25.6h-3.5v4.5h-15.8v33.6h-3.2V601c0,0.4-0.1,0.7-0.3,1h46.2v-6.2c-0.2-0.3-0.3-0.6-0.3-1
		v-71.2h-0.1V482h3.5v-4.5h82.9c2.3-4.3,7.6-12.8,15-12.4c5.5,0.3,10.2,5.5,14.1,15.3h37.7c2.1-3.6,6.7-10.3,12.8-9.9
		c4,0.3,7.4,3.6,10.2,9.9h13.3v4.5h3.5v28.3h46V490c0-0.2,0-0.4,0.1-0.6c-0.1-0.9,0.6-1.9,1.8-1.9h65.3v-30.1L1319.4,457.6
		L1319.4,457.6z"/>
	<path fill="#666666" stroke="#666666" stroke-width="15" stroke-miterlimit="10" d="M1505.6,483.7h-90.4v4.6c0.5,0.6,0.5,1.6,0,2.2
		v54.2h-2v18.8h3.1V559h30v-23.6h3.5v-4.5h55.5V485h0.3V483.7L1505.6,483.7z"/>
	<path fill="#BFBFBF" stroke="#BFBEBE" stroke-width="12" stroke-miterlimit="10" d="M1528.7,340.1V329h-44.4v-30.1h-43.1v41.2
		h-40.7v147.5h7.5v-8.4h3.5v-4.5h97.1v1.9c0.3,0.3,0.5,0.6,0.5,1.2v7.3h3.1v45.8h6.6V512h3.5v-4.5h29.9V472h3.5V351.2L1528.7,340.1z
		"/>
	<polygon fill="#666666" stroke="#666666" stroke-width="15" stroke-miterlimit="10" points="1673.2,563.5 1673.2,516.5 
		1525.9,516.5 1525.9,530.8 1529.7,530.8 1529.7,535.4 1533.2,535.4 1533.2,547.9 1546,547.9 1546,552.4 1549.5,552.4 1549.5,589.2 
		1548.1,589.2 1548.1,602 1631.8,602 1631.8,589.3 1628.8,589.3 1628.8,576.3 1632.3,576.3 1632.3,571.8 1674.3,571.8 1674.3,563.5 
			"/>
	<polygon fill="#333333" stroke="#333333" stroke-width="16" stroke-miterlimit="10" points="1542.5,589.2 1542.5,556.9 
		1529.7,556.9 1529.7,552.4 1526.2,552.4 1526.2,539.9 1453.3,539.9 1453.3,563.5 1449.8,563.5 1449.8,568 1419.7,568 1419.7,589.2 
		1416.2,589.2 1416.2,602 1544.4,602 1544.4,589.2 	"/>
	<path fill="#333333" stroke="#333333" stroke-width="16" stroke-miterlimit="10" d="M1412.5,602v-9.5c-1,0.8-3.1,0.4-3.1-1.4v-46.4
		h-1.3v-53.4h-18.5c-0.5,0-0.9-0.2-1.2-0.5H1328c-0.3,0.3-0.6,0.5-1.2,0.5h-63.5v22h37.5v4.5h3.5v33.6c0.2,0.3,0.3,0.6,0.3,0.9V602
		H1412.5z"/>
	<path fill="#999999" stroke="#999999" stroke-width="15" stroke-miterlimit="10" d="M1757,598.4c0-0.2-0.1-0.4-0.1-0.6v-41.4h-0.2
		v-11.7h3.5v-4.5h58.2v-37.8h-12v7.8h-3.5v4.5h-69.1v61.6h-3.5v4.5h-94.6v8.4h-0.3V602h121.4L1757,598.4L1757,598.4z"/>
	<path fill="#333333" stroke="#333333" stroke-width="16" stroke-miterlimit="10" d="M1867.8,549.2h-104v7.2h-3.1v21.9
		c0,0.2,0.1,0.4,0.1,0.6V602h118.3v-18.9c0-1.8,1.9-2.2,3.1-1.4v-14L1867.8,549.2z"/>
	<path fill="#666666" stroke="#666666" stroke-width="15" stroke-miterlimit="10" d="M1868.5,440.1v17.5h-17.3V502h-14.8v-1.5h-11
		v39.7h43.7v4.5l2.5-3.2L1890,565l-2.5,3.2l-1.8,2.3V598c0,1.8-1.9,2.2-3.1,1.4v2.7h29.9v-162H1868.5z"/>
	<polygon fill="#999999" stroke="#999999" stroke-width="15" stroke-miterlimit="10" points="1668.2,457.6 1654.3,457.6 
		1654.3,443.2 1564.4,443.2 1564.4,471.9 1559.3,471.9 1559.3,507.5 1668.2,507.5 	"/>
	<polygon fill="#BFBFBF" stroke="#BFBEBE" stroke-width="12" stroke-miterlimit="10" points="1803.3,408.4 1803.3,367.1 
		1713.3,367.1 1713.3,478.2 1686.3,478.2 1686.3,457.6 1671.9,457.6 1671.9,507.5 1676.7,507.5 1676.7,512 1680.2,512 1680.2,563.5 
		1678,563.5 1678,571.8 1726.8,571.8 1726.8,510.2 1730.3,510.2 1730.3,505.7 1799.5,505.7 1799.5,497.9 1803,497.9 1803,493.4 
		1822,493.4 1822,496.8 1836.5,496.8 1836.5,408.4 	"/>
	<path fill="#999999" stroke="#999999" stroke-width="26" stroke-miterlimit="10" d="M837.9,472.2h3.5v-4.5h27.3v4.5h3.5v5.5h18.3
		V377.3H885c-2.4,0-2.4-3.7,0-3.7h6c0.7-0.7,2-0.7,2.8,0h77.4v-12.9h3.5v-20.6h-9.9v-19l-23.4-15.9l-22.2,14.3v20.6h-7.4v14.3H881
		c-8.6-33.4-24.6-1.6-24.6-1.6v1h-47.7v-4.5l-3.1,2.1c-0.3-0.7-0.6-1.5-1-2.1h-20.9c-0.4,0.7-0.6,1.5-0.8,1.9l-0.9,2.6h-14.1v123.9
		H838L837.9,472.2L837.9,472.2z"/>
	<path fill="#BFBFBF" stroke="#BFBEBE" stroke-width="12" stroke-miterlimit="10" d="M63,522.2c0.6,0,1.2,0.3,1.5,0.7H119v-34.3h3.5
		l-1.6-4l28.1-18.8l1.7,4v-4.5h31.9v-95h3.5v-4.5h27.4v-6.7h1.7v-54H204v-36.9h-40.7L61.1,279.7v34.9h-9.8V522
		C55.2,522.3,59.1,522.2,63,522.2z"/>
	<g>
		<polygon fill="#CCCCCC" stroke="#CCCCCC" stroke-width="4" stroke-miterlimit="10" points="990.5,744.3 990.5,766.5 994.1,766.5 
			994.1,770.4 1015,770.4 1015,781.5 1018.6,781.5 1018.6,785.4 1105.3,785.4 1105.3,852.6 1063.3,852.6 1063.3,800.3 1010.3,800.3 
			1010.3,812.7 978.2,812.7 978.2,744.3 		"/>
		<polygon fill="#CCCCCC" stroke="#CCCCCC" stroke-width="4" stroke-miterlimit="10" points="696.1,754.1 696.1,776.3 699.6,776.3 
			699.6,780.2 720.6,780.2 720.6,791.3 724.1,791.3 724.1,795.2 810.9,795.2 810.9,862.4 768.9,862.4 768.9,810.1 715.9,810.1 
			715.9,822.5 683.8,822.5 683.8,754.1 		"/>
		<polygon fill="#CCCCCC" stroke="#CCCCCC" stroke-width="4" stroke-miterlimit="10" points="1032.6,649.1 1032.6,671.3 
			1036.1,671.3 1036.1,675.2 1057.1,675.2 1057.1,686.2 1060.6,686.2 1060.6,690.2 1147.4,690.2 1147.4,757.4 1105.3,757.4 
			1105.3,705.1 1052.5,705.1 1052.5,717.5 1020.2,717.5 1020.2,649.1 		"/>
		<polygon fill="#CCCCCC" stroke="#CCCCCC" stroke-width="4" stroke-miterlimit="10" points="1250.9,785.4 1250.9,781.5 
			1254.4,781.5 1254.4,770.4 1281,770.4 1281,766.5 1284.5,766.5 1284.5,757.4 1294.5,757.4 1300.9,757.4 1306.4,757.4 
			1310.8,757.4 1310.8,808.5 1293.5,808.5 1293.5,830.5 1249.3,830.5 1249.3,856.7 1229.6,856.7 1162.8,856.7 1162.8,785.4 		"/>
		<polygon fill="#CCCCCC" stroke="#CCCCCC" stroke-width="4" stroke-miterlimit="10" points="452.4,808.2 483.8,808.2 513.2,808.2 
			513.2,871.8 505.6,871.8 505.6,880 455.1,880 455.1,865 448.9,851.2 448.9,833.3 452.4,833.3 		"/>
		<path fill="#CCCCCC" stroke="#CCCCCC" stroke-width="15" stroke-miterlimit="10" d="M1635.5,603.4v2.5c0,2.4-3.7,2.4-3.7,0v-2.5
			H1548v2.5c0,2.4-3.7,2.4-3.7,0v-2.5h-128.2v11.1h3.5v18.4h30.1v4h3.5v20.4h72.8v-10.8h3.5v-3.9h12.8v-28h7v32h-3.5v4H1533v10.8
			h-3.5v4h-3.8v12.5H1673V637h7v44.6h-3.5v4h-117.4v30.9h5.1v24.8h89.8v-12.4h32V711h27.1v96.1h89.8v-35.8h33.3v-81.2h14.8v38.5
			h17.3v15.2h44.1V603.4H1635.5z M1871.7,655.8l-2.5-2.8v3.9h-43.7v36.7h-3.5v4h-19v-4h-3.5V687h-69.1v-3.9h-3.5v-53.4h-94.5v-3.9
			h-3.5v-11.3h7v7.3h94.6v3.9h3.5v53.4h69.1v4h3.5v6.7h12v-32.7h-58.2v-3.9h-3.5V643h7v6.3h104L1885,630l2.5,2.8l2.5,2.8
			L1871.7,655.8z"/>
		<polygon fill="#CCCCCC" stroke="#CCCCCC" stroke-width="15" stroke-miterlimit="10" points="448.9,690.7 445.4,690.7 445.4,678.3 
			417.5,678.3 417.5,674.4 414,674.4 414,638.7 201.5,638.7 201.5,634.8 198,634.8 198,614.5 200.1,614.5 200.1,603.4 -2.9,603.4 
			-2.9,668.1 51.3,668.1 51.3,852.6 61.1,852.6 61.1,882.8 163.3,892.8 204,892.8 204,860.8 215,860.8 215,814 213.4,814 
			213.4,808.2 186.1,808.2 186.1,804.3 182.5,804.3 182.5,722 150.7,722 150.7,718 149,721.5 120.9,705.3 122.5,701.7 119,701.7 
			119,672 60.7,672 60.7,664.1 122.5,664.1 122.5,668.1 126,668.1 126,699.4 151.5,714.1 182.5,714.1 182.5,657.1 189.6,657.1 
			189.6,800.4 216.9,800.4 216.9,804.3 220.4,804.3 220.4,814 228.6,814 228.6,826.4 236,826.4 236,840.1 290.1,880 339.4,840.1 
			339.4,827.7 360.3,827.7 407.1,869 448.9,833.3 445.4,833.3 445.4,804.3 448.9,804.3 448.9,800.4 480.3,800.4 480.3,694.5 
			448.9,694.5 		"/>
		<path fill="#CCCCCC" stroke="#CCCCCC" stroke-width="15" stroke-miterlimit="10" d="M848.2,603.4H203.8v11.1h1.1v16.4H414v-7.2h7
			v46.9h27.9v4h3.5v12.3h55.1v-12.3h3.5v-4h154.4v-55.9h7v26.5h173.7v-26.5h2.8C848.7,610.8,848.4,607.1,848.2,603.4z"/>
		<path fill="#CCCCCC" stroke="#CCCCCC" stroke-width="15" stroke-miterlimit="10" d="M1552.3,716.3v-30.9h-29.9v-4h-3.5V665h-6.6
			v39.7h-7V665h-55.5v-4h-3.5v-20.3h-30v-3.9h-3.5v-20.2c-0.1-0.3-0.2-0.6-0.2-0.8v-12.4h-108.2c-0.5,0.6-1.3,0.7-2,0.6
			c0.1,1.1,0.2,2.1,0.3,3.2c0.3,2.4-3.4,2.3-3.7,0c-0.1-1.3-0.3-2.5-0.4-3.8h-218.1c-0.2,3.7-0.5,7.4-0.7,11.1h3.3v56.8h-7v-29.9
			c-0.6-0.3-0.9-0.8-0.9-1.6c0-8.2,0.5-16.5,0.9-24.8v-0.6l0,0c0.2-3.7,0.5-7.4,0.7-11.1h-52v3.1c0,2.4-3.7,2.4-3.7,0v-3.1H890.7
			c-2.5,14.4-4.3,28.9-6.1,43.4c-0.3,2.3-4,2.3-3.7,0c1.8-14.5,3.6-29,6-43.4H852c0.2,3.7,0.5,7.4,0.6,11.1h0.6v7.4
			c1,12.5,2.3,25,3.6,37.4c0.3,2.4-3.4,2.3-3.7,0c-0.5-4.8-1-9.6-1.5-14.3h-1.9v3.9H672.5v25.5H669v3.9H514.5v12.4H511v3.9h-23.8
			v105.8h47.4v-71.7h3.5v-3.9h73.6v3.9h3.5v7.8H700v-7.8h7v11.6h-3.5v3.9h-91.7v-3.9h-3.5v-7.8h-66.5v71.8h-3.5v3.9h-18.1v63.6h-3.4
			V993h57.9l116.9-17.9V854h-3.5V747.5h7V854H709V728.7h7V854h-3.5v55.1l19.7,15.2h13.6v9.5h78.8v-11h32v-96.2h-45.7
			c-5,9.4-10.5,14.2-16.7,14c-8.3-0.3-14.1-9.5-16.5-14h-13.2v-3.9H761v-78.4h-40.9v-3.9h-3.6V720h-12.8v-3.9H700v-4.7h-34.8v4.7
			h-3.4v3.9H581v-3.9h-3.5v-13.4h-39.2v-7.9H581v3.9h3.5V712h73.8v-4.7h3.5v-3.9h41.8v3.9h3.5v4.7h12.8v4h3.5v20.4h37.4v-29.1h3.5
			v-3.9h77.2v3.9h3.5v4.7h20.2v-4.7h3.5v-3.9h20.1v-88.9h7v92.9h-3.5v4h-20.1v4.7h-3.5v3.9h-27.3v-3.9H838v-4.7h-70.2v107.3h14
			l0.9,2.2c0.2,0.5,0.5,1,0.8,1.8h21c0.4-0.6,0.6-1.3,1-1.8l3.1,1.8v-3.9h47.7v0.8c0,0,16,27.5,24.6-1.4h30.8v12.4h7.4v17.9
			l22.2,12.4l23.4-13.8v-16.5h9.9v-17.9h-3.5V707.4h7v29.1H994v3.9h3.5v22.2h21v4h3.5v11h86.8v3.9h3.5v71.1h-3.5v15.2
			c0,0,16,19.3,20.9,61.9h9.9c0,0,8.6-50.9,19.7-59.2v-13.8h-3.5v-75.2h3.5v-3.9h88.1v-11h3.5v-4h26.4v-9.2h3.5v-4h29.9v-0.2h8.6
			v-20.6h7.4v-28.9h73.8v130.8h40.7v35.8h43.1v-26.2h44.4v-9.6l27.1-9.6V716.3H1552.3z M1304.4,676.4h-3.5v4h-87.3v24.5h-3.5v3.9
			h-13.3c-2.8,5.5-6.2,8.3-10.2,8.6c-6.1,0.4-10.7-5.5-12.8-8.6H1136c-4,8.6-8.8,13-14.1,13.3c-7.3,0.4-12.7-7-15-10.7H1024v-4h-3.5
			v-36h7v32.1h83.4l1,2c0.1,0.2,0.3,0.5,0.5,0.7h0.6h0.8h0.8h0.8h0.8h0.8h0.8h0.8h0.8h0.8h0.8h0.8h0.8h0.8h0.8h0.8h0.8h0.8h0.8h0.8
			h0.9c0.5-0.8,0.8-1.8,1.3-2.8l0.9-2.3h45.9l1,1.8c0.4,0.6,1,1.6,1.7,2.5h0.5h0.8h0.8h0.8h0.8h0.8h0.8h0.8h0.8h0.8h0.8h0.8h0.8l0,0
			c0.3-0.6,0.6-1.2,0.9-1.9l0.9-2.2h14.1v-20.5h-127.2v-7.9h218v-58h7v61.6L1304.4,676.4L1304.4,676.4z M1508.8,713.9h-97.1v-4h-3.5
			V653h7v52.9h93.6V713.9z"/>
	</g>
</g>
<text transform="matrix(1 0 0 1 24.0005 649.0995)" fill="#0EB2AF" font-family="'FuturaPT-Heavy'" font-size="226.0746">OAKLAND</text>
<text transform="matrix(1 0 0 1 1234.2198 682.8619)" fill="#0EB2AF" font-family="'FuturaPT-Heavy'" font-size="328.0808">75%</text>
</svg>
