<?xml version="1.0" encoding="utf-8"?>
<!-- Generator: Adobe Illustrator 18.1.1, SVG Export Plug-In . SVG Version: 6.00 Build 0)  -->
<svg version="1.1" id="Layer_1" xmlns="http://www.w3.org/2000/svg" xmlns:xlink="http://www.w3.org/1999/xlink" x="0px" y="0px"
	 viewBox="-9 251 629 224" enable-background="new -9 251 629 224" xml:space="preserve">
<g>
	<polygon fill="#BFBFBF" stroke="#BFBEBE" stroke-width="12" stroke-miterlimit="10" points="316.71,352.422 316.71,344.287 
		317.824,344.287 317.824,342.85 324.494,342.85 324.494,338.807 325.61,338.807 325.61,337.364 353.178,337.364 353.178,312.77 
		339.827,312.77 339.827,331.929 323.013,331.929 323.013,327.395 312.791,327.395 312.791,352.422 	"/>
	<polygon fill="#BFBFBF" stroke="#BFBEBE" stroke-width="12" stroke-miterlimit="10" points="399.418,337.364 399.418,338.807 
		400.535,338.807 400.535,342.85 408.932,342.85 408.932,344.287 410.051,344.287 410.051,347.638 413.258,347.638 415.276,347.638 
		417.006,347.638 418.417,347.638 418.417,328.904 412.941,328.904 412.941,320.839 398.867,320.839 398.867,311.259 
		392.614,311.259 371.44,311.259 371.44,337.364 	"/>
	<polygon fill="#BFBFBF" stroke="#BFBEBE" stroke-width="12" stroke-miterlimit="10" points="145.838,329.001 155.79,329.001 
		165.112,329.001 165.112,305.717 162.706,305.717 162.706,302.69 146.678,302.69 146.678,308.234 144.722,313.277 144.722,319.831 
		145.838,319.831 	"/>
	<path fill="#999999" stroke="#999999" stroke-width="15" stroke-miterlimit="10" d="M144.722,331.877v-1.439h-1.116v-7.44
		c-0.179-0.083-0.315-0.25-0.315-0.506v-4.072l-11.861-11.696l-14.862,15.124h-6.646v-4.538L94.282,302.69l-17.201,14.619v5.043
		h-2.347v4.537h-2.598v3.548h-1.114v1.439h-8.689v52.468h-1.327c-0.201,1.693-0.594,3.72,0.091,5.074
		c0.972,1.92,4.719,0.969,6.461,1.171c0.306,0.035,0.485,0.256,0.54,0.497h65.525v-13.064h1.116v-1.437h8.865v-4.508h1.116v-1.439
		h9.949v-38.763H144.722z M107.674,323.747c-0.757,0-0.756-1.174,0-1.174C108.43,322.573,108.429,323.747,107.674,323.747z"/>
	<polygon fill="#999999" stroke="#999999" stroke-width="15" stroke-miterlimit="10" points="174.201,330.438 174.201,356.698 
		195.326,356.698 195.326,353.859 196.441,353.859 196.441,352.422 225.561,352.422 225.561,353.859 226.679,353.859 
		226.679,353.997 227.281,353.997 227.281,312.269 222.865,312.269 222.865,351.258 220.632,351.258 220.632,312.269 
		221.749,312.269 221.749,267.908 184.603,261.352 166.228,261.352 166.228,305.717 167.343,305.717 167.343,329.001 
		173.089,329.001 173.089,330.438 	"/>
	<path fill="#BFBFBF" stroke="#BFBEBE" stroke-width="12" stroke-miterlimit="10" d="M263.977,287.063v-4.034h-25.024v3.532h-4.303
		l-6.255,5.544v20.165h1.116v41.728h0.124v-0.137h1.114v-1.437h13.012v-28.675h1.118v-1.435h4.235
		c0.739-1.639,2.585-5.035,5.221-5.123c1.946-0.08,3.71,1.672,5.306,5.123h14.499v-35.25H263.977z"/>
	<path fill="#666666" stroke="#666666" stroke-width="15" stroke-miterlimit="10" d="M229.511,355.171v2.966h-2.231v-2.966h-0.602
		v2.966h-2.231v-2.838h-26.891v2.838h-1.117v1.435h-23.03c-0.029,2.698-0.095,5.396-0.166,8.093h12.279v-4.884h1.114v-1.437h25.661
		v1.437h1.116v1.722h11.034v-1.722h1.113v-1.437h4.075v-6.173H229.511L229.511,355.171z"/>
	<path fill="#666666" stroke="#666666" stroke-width="15" stroke-miterlimit="10" d="M164.436,372.079h1.116v4.508h6.326
		c0.07-6.151,0.338-12.298,0.368-18.449h-0.276v-26.26h-15.068v38.763h7.534L164.436,372.079L164.436,372.079z"/>
	<path fill="#333333" stroke="#333333" stroke-width="16" stroke-miterlimit="10" d="M66.875,404.027H271.5
		c-0.068-1.355-0.12-2.711-0.152-4.069h-0.482v-9.711h-55.142v9.711h-2.234v-20.492h-40.635c-0.221,0.193-0.594,0.193-0.814,0
		h-7.604v-1.443h-1.114v-4.506h-17.483v4.506h-1.116v1.443h-8.867v17.149h-2.231v-2.65H67.237v5.993h-0.362V404.027z"/>
	<path fill="#666666" stroke="#666666" stroke-width="15" stroke-miterlimit="10" d="M65.701,399.958h-0.697v-7.436h1.118v-0.798
		c-2.01,0.054-4.346,0.357-5.681-1.177c-1.593-1.83-0.549-5.219-0.513-7.393c0.003-0.18,0.073-0.315,0.175-0.41v-19.266h-9.861
		l-8.089,5.386v11.467h-1.116v1.435H21.431v-1.93c-1.005,0.012-2.004,0.023-2.998-0.028v0.523H1.226v23.697h64.475
		C65.701,404.027,65.701,399.958,65.701,399.958z"/>
	<path fill="#333333" stroke="#333333" stroke-width="16" stroke-miterlimit="10" d="M284.417,399.958V367.38h-6.382v-1.439h-1.112
		v-1.72h-6.422v1.72h-1.114v1.439h-24.506v-1.439h-1.118v-10.643h-11.895v7.482h-1.116v1.441h-4.071v1.72h-1.118v1.439h-13.262
		v-1.439h-1.114v-1.72h-23.43v4.883h-1.116v1.439h-13.468c-0.051,2.014-0.094,4.028-0.117,6.043h41.553v1.437h1.118v9.348h56.258
		v1.435h1.112v11.152h-0.572c0.032,1.357,0.084,2.713,0.153,4.069h11.193c0.236-1.36,0.493-2.717,0.775-4.069L284.417,399.958
		L284.417,399.958z"/>
	<path fill="#333333" stroke="#333333" stroke-width="16" stroke-miterlimit="10" d="M286.647,399.958h-0.807
		c-0.286,1.352-0.546,2.708-0.785,4.069h25.644c-0.059-0.086-0.097-0.193-0.097-0.326v-37.76h-0.044v-33.274h-24.416v33.274h0.505
		V399.958z"/>
	<path fill="#999999" stroke="#969696" stroke-width="10" stroke-miterlimit="10" d="M345.631,378.717v0.425h0.411v20.817h-0.411
		v3.352c0,0.285-0.166,0.461-0.373,0.532c-0.004,0.061-0.008,0.123-0.011,0.185h69.234c-0.077-1.355-0.082-2.711-0.075-4.069h-0.243
		v-21.241C414.162,378.717,345.631,378.717,345.631,378.717z"/>
	<path fill="#666666" stroke="#666666" stroke-width="26" stroke-miterlimit="10" d="M344.073,404.027
		c0.083-1.356,0.16-2.712,0.218-4.069h-0.479v-20.817h0.645v-1.858c0-0.327,0.22-0.512,0.469-0.556v-0.885h40.404v-7.532h-4.492
		l-0.303-0.822c-0.096-0.267-0.2-0.489-0.303-0.716h-0.01l-0.259-0.006l-0.256-0.002l-0.263-0.002l-0.259-0.004l-0.259-0.004
		l-0.261-0.008h-0.259l-0.258-0.008l-0.261-0.004l-0.259-0.004h-0.259l-0.26-0.006h-0.144c-0.225,0.335-0.413,0.667-0.537,0.916
		l-0.329,0.669h-14.587l-0.301-0.834c-0.13-0.359-0.263-0.694-0.397-1.01h-0.036l-0.261-0.002l-0.259-0.006h-0.26l-0.261-0.008
		h-0.258l-0.256-0.008l-0.259-0.004l-0.263-0.006h-0.259l-0.259-0.006l-0.259-0.004l-0.26-0.006l-0.259-0.004h-0.261l-0.256-0.006
		l-0.26-0.004l-0.259-0.004h-0.259l-0.263-0.012h-0.259l-0.198-0.004c-0.05,0.094-0.098,0.188-0.134,0.273l-0.319,0.726h-26.489
		v11.761h-1.023v21.003c0.06,0.086,0.098,0.195,0.098,0.328v3.554L344.073,404.027L344.073,404.027z"/>
	<path fill="#999999" stroke="#999999" stroke-width="15" stroke-miterlimit="10" d="M421.157,358.137v-7.554h-2.74v-0.066h-9.484
		v-1.441h-1.114v-3.349h-8.4v-1.439h-1.114v-4.044h-27.978v-1.435h-1.116v-27.549h1.116v-5.041
		c-3.52-3.026-6.258-21.674-6.258-21.674h-3.129c-1.563,15.625-6.646,22.684-6.646,22.684v5.542h1.114v26.037h-1.114v1.435h-27.569
		v4.044h-1.114v1.439h-6.67v8.133h-1.116v1.439h-5.033v10.643h-1.014v37.76c0,0.132-0.037,0.24-0.096,0.326h14.675v-1.955
		c-0.06-0.086-0.098-0.195-0.098-0.328v-22.603h-0.034v-13.2h1.114v-1.439h26.342c0.726-1.369,2.419-4.073,4.748-3.945
		c1.718,0.088,3.227,1.73,4.493,4.876h11.99c0.679-1.15,2.157-3.269,4.095-3.133c1.263,0.096,2.347,1.15,3.215,3.133h4.223v1.437
		h1.116v8.971h14.623v-7.365c0-0.059,0.009-0.112,0.023-0.162c-0.015-0.304,0.172-0.62,0.565-0.62h20.73v-9.558
		C423.502,358.137,421.157,358.137,421.157,358.137z"/>
	<path fill="#666666" stroke="#666666" stroke-width="15" stroke-miterlimit="10" d="M480.264,366.45h-28.696v1.479
		c0.138,0.205,0.138,0.499,0,0.704v17.198h-0.657v5.945h0.986v-1.437h9.551v-7.482h1.116v-1.439h17.626v-14.547h0.075
		L480.264,366.45L480.264,366.45z"/>
	<path fill="#BFBFBF" stroke="#BFBEBE" stroke-width="12" stroke-miterlimit="10" d="M487.625,320.839v-3.53h-14.076v-9.576h-13.685
		v13.106h-12.901v46.856h2.375v-2.684h1.116v-1.439h30.85v0.618c0.081,0.092,0.134,0.215,0.134,0.373v2.308h0.98v14.547h2.095
		v-5.993h1.114v-1.439h9.486v-11.304h1.114v-38.314L487.625,320.839z"/>
	<path fill="#666666" stroke="#666666" stroke-width="15" stroke-miterlimit="10" d="M493.766,403.388v0.639h26.614v-0.558
		C511.508,403.76,502.637,403.623,493.766,403.388z"/>
	<path fill="#666666" stroke="#666666" stroke-width="15" stroke-miterlimit="10" d="M519.398,399.974v-4.117h1.116v-1.427h13.367
		v-2.654h-0.357v-14.916h-46.782v4.558h1.191v1.439h1.118v3.952h4.073v1.439h1.116v11.709h-0.475v3.43
		c8.871,0.236,17.742,0.372,26.614,0.081v-3.494H519.398z"/>
	<path fill="#333333" stroke="#333333" stroke-width="16" stroke-miterlimit="10" d="M451.889,402.825v1.201h40.703v-0.671
		C479.024,402.983,465.456,402.416,451.889,402.825z"/>
	<path fill="#333333" stroke="#333333" stroke-width="16" stroke-miterlimit="10" d="M492.008,399.958v-10.272h-4.075v-1.437h-1.113
		v-3.952h-23.144v7.48h-1.114v1.441h-9.554v6.741h-1.12v2.867c13.568-0.41,27.135,0.158,40.703,0.531v-3.398L492.008,399.958
		L492.008,399.958z"/>
	<path fill="#333333" stroke="#333333" stroke-width="16" stroke-miterlimit="10" d="M449.736,400.57v-14.738h-0.399v-16.963h-5.862
		c-0.16,0-0.285-0.055-0.377-0.138h-19.206c-0.092,0.083-0.216,0.138-0.377,0.138h-20.156v6.974h11.917v1.439h1.116v10.668
		c0.047,0.08,0.077,0.177,0.077,0.293v15.785h23.641c-0.033-0.348-0.064-0.569-0.064-0.569c3.556-0.283,7.112-0.473,10.668-0.595
		v-1.858C450.381,401.275,449.736,401.131,449.736,400.57z"/>
	<path fill="#333333" stroke="#333333" stroke-width="16" stroke-miterlimit="10" d="M440.11,404.027h10.604v-1.164
		c-3.556,0.123-7.112,0.312-10.668,0.595C440.047,403.458,440.078,403.679,440.11,404.027z"/>
	<path fill="#999999" stroke="#999999" stroke-width="15" stroke-miterlimit="10" d="M560.104,402.286v-12.714h-0.051v-3.74h1.113
		v-1.439h18.492v-11.994h-3.822v2.465h-1.116v1.439h-21.951v19.568h-1.114v1.437h-30.024v2.666h-0.076v3.466
		c3.174-0.124,6.761-0.899,9.573-0.899C540.815,402.323,550.465,402.262,560.104,402.286z"/>
	<path fill="#999999" stroke="#999999" stroke-width="15" stroke-miterlimit="10" d="M560.104,402.286
		c-9.639-0.024-19.289,0.038-28.978,0.255c-2.812,0-6.398,0.774-9.573,0.899v0.587h38.575v-1.137
		c-0.014-0.051-0.024-0.106-0.024-0.167L560.104,402.286L560.104,402.286z"/>
	<path fill="#333333" stroke="#333333" stroke-width="16" stroke-miterlimit="10" d="M598.872,398.006
		c0-0.549,0.617-0.697,0.956-0.449v-4.452l-4.524-5.834h-33.02v2.301h-1.006v6.946c0.014,0.051,0.024,0.106,0.024,0.167v5.603
		c12.52,0.039,25.023,0.219,37.57,0.388L598.872,398.006L598.872,398.006z"/>
	<path fill="#333333" stroke="#333333" stroke-width="16" stroke-miterlimit="10" d="M561.302,402.288v1.739h37.57v-1.351
		C586.326,402.507,573.822,402.328,561.302,402.288z"/>
	<path fill="#666666" stroke="#666666" stroke-width="15" stroke-miterlimit="10" d="M609.537,352.601h-13.996v5.536h-5.478v14.126
		h-4.688v-0.458h-3.486v12.589h13.878v1.439l0.786-1.018l5.804,7.484l-0.789,1.014l-0.566,0.729v8.663
		c2.842,0.038,5.687,0.074,8.535,0.108V352.601z"/>
	<path fill="#666666" stroke="#666666" stroke-width="15" stroke-miterlimit="10" d="M601.003,402.704v0.019
		c0,0.549-0.617,0.697-0.956,0.449v0.855h9.491v-1.214C606.69,402.779,603.845,402.742,601.003,402.704z"/>
	<polygon fill="#999999" stroke="#999999" stroke-width="15" stroke-miterlimit="10" points="531.925,358.137 527.506,358.137 
		527.506,353.607 498.963,353.607 498.963,362.682 497.342,362.682 497.342,373.987 531.925,373.987 	"/>
	<polygon fill="#BFBFBF" stroke="#BFBEBE" stroke-width="12" stroke-miterlimit="10" points="574.815,342.518 574.815,329.411 
		546.272,329.411 546.272,364.703 537.672,364.703 537.672,358.137 533.099,358.137 533.099,373.987 534.643,373.987 
		534.643,375.426 535.755,375.426 535.755,391.777 535.056,391.777 535.056,394.43 550.539,394.43 550.539,374.865 551.654,374.865 
		551.654,373.43 573.606,373.43 573.606,370.964 574.719,370.964 574.719,369.523 580.773,369.523 580.773,370.63 585.375,370.63 
		585.375,342.518 	"/>
	<path fill="#999999" stroke="#999999" stroke-width="26" stroke-miterlimit="10" d="M268.27,362.781h1.116v-1.437h8.649v1.437
		h1.118v1.722h5.815v-31.835h-1.761c-0.757,0-0.756-1.174,0-1.174h1.912c0.225-0.231,0.646-0.231,0.871,0h24.568v-4.098h1.116
		v-6.556h-3.127v-6.051l-7.43-5.039l-7.037,4.538v6.552h-2.347v4.537h-9.772c-2.738-10.589-7.821-0.505-7.821-0.505v0.311h-15.134
		v-1.435l-0.976,0.69c-0.098-0.225-0.202-0.457-0.311-0.69h-6.666c-0.112,0.24-0.204,0.461-0.27,0.627l-0.305,0.808h-4.483v39.32
		h22.276V362.781L268.27,362.781z"/>
	<path fill="#BFBFBF" stroke="#BFBEBE" stroke-width="12" stroke-miterlimit="10" d="M22.16,378.654
		c0.219-0.001,0.372,0.097,0.464,0.236H39.92v-10.903h1.116l-0.513-1.275l8.937-5.949l0.515,1.277v-1.435h10.128v-30.167h1.116
		v-1.437h8.686v-2.11h0.525V309.75h-3.519v-11.709H54.008l-32.451,3.639v11.09h-3.125v65.869
		C19.668,378.705,20.911,378.661,22.16,378.654z"/>
</g>
<g enable-background="new    ">
	<path fill="#0EB2AF" d="M119.065,428.164c3.369,3.263,5.562,7.969,5.562,13.478c0,4.76-1.711,9.627-5.562,13.37
		c-3.316,3.209-7.809,5.241-13.798,5.241c-6.686,0-11.231-2.674-13.905-5.241c-3.423-3.208-5.562-8.021-5.562-13.263
		c0-5.135,2.3-10.322,5.509-13.531c2.407-2.407,6.846-5.241,13.959-5.241C110.829,422.977,115.482,424.688,119.065,428.164z
		 M97.405,433.619c-1.551,1.498-3.156,4.118-3.156,8.076c0,3.263,1.07,5.883,3.263,8.022c2.3,2.192,4.867,2.941,7.648,2.941
		c3.637,0,6.204-1.337,7.915-3.049c1.391-1.337,3.102-3.851,3.102-7.969c0-3.69-1.498-6.418-3.102-8.022
		c-1.765-1.711-4.599-3.048-7.862-3.048C102.111,430.571,99.331,431.694,97.405,433.619z"/>
	<path fill="#0EB2AF" d="M150.677,452.713h-13.478l-2.728,6.738h-8.557l14.387-35.673h7.541l14.066,35.673h-8.557L150.677,452.713z
		 M148.431,446.401l-4.386-11.979l-4.439,11.979H148.431z"/>
	<path fill="#0EB2AF" d="M174.158,438.646l12.194-14.868h10.055l-14.44,16.9l15.563,18.772H186.94l-12.782-15.831v15.831h-8.236
		v-35.673h8.236V438.646z"/>
	<path fill="#0EB2AF" d="M209.994,423.778v28.72h11.071v6.953h-19.307v-35.673H209.994z"/>
	<path fill="#0EB2AF" d="M248.341,452.713h-13.478l-2.728,6.738h-8.557l14.387-35.673h7.541l14.066,35.673h-8.557L248.341,452.713z
		 M246.095,446.401l-4.386-11.979l-4.439,11.979H246.095z"/>
	<path fill="#0EB2AF" d="M263.586,459.451v-35.673h7.167l19.36,22.998v-22.998h8.236v35.673h-7.167l-19.36-23.104v23.104H263.586z"
		/>
	<path fill="#0EB2AF" d="M317.445,423.778c4.707,0,9.681,0.695,14.066,4.921c3.155,3.048,5.134,7.22,5.134,12.782
		c0,5.615-1.925,9.68-4.866,12.621c-4.921,4.975-11.071,5.349-14.066,5.349h-11.552v-35.673H317.445z M314.397,452.498h2.192
		c1.712,0,5.455-0.16,8.13-2.406c1.925-1.604,3.476-4.653,3.476-8.61c0-3.851-1.551-6.312-2.941-7.702
		c-2.674-2.674-6.15-3.048-8.664-3.048h-2.192V452.498z"/>
</g>
<g enable-background="new    ">
	<path fill="#0EB2AF" d="M406.762,426.835h-22.467V416.9h40.501l-30.185,52.116l-10.928-2.675L406.762,426.835z"/>
	<path fill="#0EB2AF" d="M458.568,426.835h-17.193L440,433.636c1.299-0.229,2.903-0.382,4.202-0.382
		c5.731,0,10.163,2.062,12.991,4.967c2.292,2.293,4.661,6.266,4.661,12.303c0,6.572-2.827,10.775-5.196,13.144
		c-4.661,4.585-10.24,5.35-15.436,5.35c-4.814,0-10.546-0.611-16.965-5.579l2.675-10.927c1.375,1.528,3.286,3.209,4.891,4.202
		c2.14,1.376,4.661,2.217,7.718,2.217c2.675,0,5.426-0.611,7.26-2.063c1.604-1.223,2.98-3.438,2.98-6.419
		c0-3.057-1.376-4.891-2.599-5.961c-0.611-0.534-3.133-2.674-8.482-2.674c-4.279,0-7.87,1.299-10.393,2.674l5.196-27.586h25.064
		V426.835z"/>
	<path fill="#0EB2AF" d="M492.492,437.15c-2.369,2.445-6.037,3.821-10.087,3.821s-7.718-1.376-10.087-3.821
		c-1.299-1.299-3.285-4.05-3.285-8.559c0-4.508,1.986-7.259,3.285-8.559c2.369-2.445,6.037-3.82,10.087-3.82
		s7.718,1.375,10.087,3.82c1.299,1.3,3.286,4.051,3.286,8.559C495.778,433.101,493.791,435.852,492.492,437.15z M478.05,424.16
		c-0.993,0.993-1.681,2.598-1.681,4.432s0.688,3.439,1.681,4.433c0.841,0.917,2.292,1.758,4.355,1.758s3.516-0.841,4.356-1.758
		c0.993-0.993,1.681-2.599,1.681-4.433s-0.688-3.438-1.681-4.432c-0.841-0.917-2.293-1.758-4.356-1.758
		S478.891,423.243,478.05,424.16z M510.756,416.061l5.35,1.146l-29.955,51.733l-5.273-1.223L510.756,416.061z M524.587,464.737
		c-2.368,2.445-6.036,3.82-10.087,3.82c-4.05,0-7.718-1.375-10.087-3.82c-1.299-1.3-3.286-4.05-3.286-8.559s1.987-7.26,3.286-8.559
		c2.369-2.445,6.037-3.821,10.087-3.821c4.051,0,7.719,1.376,10.087,3.821c1.3,1.299,3.286,4.05,3.286,8.559
		S525.887,463.438,524.587,464.737z M510.145,451.746c-0.993,0.994-1.682,2.599-1.682,4.433s0.688,3.438,1.682,4.432
		c0.841,0.917,2.293,1.758,4.355,1.758c2.063,0,3.516-0.841,4.355-1.758c0.994-0.993,1.682-2.598,1.682-4.432
		s-0.688-3.438-1.682-4.433c-0.84-0.917-2.292-1.758-4.355-1.758C512.438,449.988,510.985,450.829,510.145,451.746z"/>
</g>
</svg>
