<?xml version="1.0" encoding="utf-8"?>
<!-- Generator: Adobe Illustrator 18.1.1, SVG Export Plug-In . SVG Version: 6.00 Build 0)  -->
<svg version="1.1" id="Layer_1" xmlns="http://www.w3.org/2000/svg" xmlns:xlink="http://www.w3.org/1999/xlink" x="0px" y="0px"
	 viewBox="0 0 2002.383 915.091" enable-background="new 0 0 2002.383 915.091" xml:space="preserve">
<g>
	<polygon fill="#BFBFBF" stroke="#BFBEBE" stroke-width="12" stroke-miterlimit="10" points="1036.232,314.965 1036.232,288.348 
		1039.878,288.348 1039.878,283.646 1061.702,283.646 1061.702,270.419 1065.354,270.419 1065.354,265.697 1155.55,265.697 
		1155.55,185.227 1111.869,185.227 1111.869,247.913 1056.856,247.913 1056.856,233.079 1023.412,233.079 1023.412,314.965 	"/>
	<polygon fill="#BFBFBF" stroke="#BFBEBE" stroke-width="12" stroke-miterlimit="10" points="1306.844,265.697 1306.844,270.419 
		1310.496,270.419 1310.496,283.646 1337.973,283.646 1337.973,288.348 1341.632,288.348 1341.632,299.313 1352.125,299.313 
		1358.728,299.313 1364.388,299.313 1369.005,299.313 1369.005,238.017 1351.089,238.017 1351.089,211.629 1305.04,211.629 
		1305.04,180.283 1284.58,180.283 1215.304,180.283 1215.304,265.697 	"/>
	<polygon fill="#BFBFBF" stroke="#BFBEBE" stroke-width="12" stroke-miterlimit="10" points="477.164,238.332 509.724,238.332 
		540.224,238.332 540.224,162.151 532.354,162.151 532.354,152.248 479.912,152.248 479.912,170.387 473.512,186.886 
		473.512,208.331 477.164,208.331 	"/>
	<path fill="#999999" stroke="#999999" stroke-width="15" stroke-miterlimit="10" d="M473.512,247.742v-4.709h-3.652v-24.342
		c-0.585-0.27-1.032-0.817-1.032-1.657v-13.323l-38.807-38.269l-48.626,49.485h-21.746V200.08l-51.17-47.832l-56.278,47.832v16.5
		h-7.679v14.846h-8.499v11.607h-3.646v4.709h-28.428v171.668h-4.341c-0.656,5.54-1.945,12.171,0.297,16.602
		c3.179,6.282,15.44,3.17,21.141,3.833c1.001,0.116,1.586,0.838,1.766,1.626h214.39v-42.743h3.652v-4.702h29.005v-14.748h3.652
		v-4.709h32.553V247.742H473.512z M352.294,221.143c-2.476,0-2.472-3.842,0-3.842C354.77,217.301,354.766,221.143,352.294,221.143z"
		/>
	<polygon fill="#999999" stroke="#999999" stroke-width="15" stroke-miterlimit="10" points="569.963,243.034 569.963,328.953 
		639.082,328.953 639.082,319.667 642.728,319.667 642.728,314.965 738.005,314.965 738.005,319.667 741.664,319.667 
		741.664,320.117 743.632,320.117 743.632,183.588 729.185,183.588 729.185,311.156 721.88,311.156 721.88,183.588 725.533,183.588 
		725.533,38.445 603.997,16.995 543.876,16.995 543.876,162.151 547.523,162.151 547.523,238.332 566.324,238.332 566.324,243.034 	
		"/>
	<path fill="#BFBFBF" stroke="#BFBEBE" stroke-width="12" stroke-miterlimit="10" d="M863.698,101.117V87.917h-81.874v11.555h-14.08
		l-20.466,18.139v65.977h3.652v136.529h0.406v-0.449h3.646v-4.702h42.573v-93.821h3.659v-4.696h13.857
		c2.419-5.364,8.459-16.473,17.083-16.762c6.367-0.262,12.138,5.47,17.359,16.762h47.438V101.117H863.698z"/>
	<path fill="#666666" stroke="#666666" stroke-width="15" stroke-miterlimit="10" d="M750.931,323.958v9.704h-7.299v-9.704h-1.968
		v9.704h-7.299v-9.286h-87.985v9.286h-3.653v4.695h-75.351c-0.094,8.828-0.312,17.654-0.544,26.48h40.176v-15.981h3.646v-4.702
		h83.959v4.702h3.652v5.633h36.101v-5.633h3.64v-4.702h13.332v-20.196H750.931z"/>
	<path fill="#666666" stroke="#666666" stroke-width="15" stroke-miterlimit="10" d="M538.014,379.278h3.652v14.748h20.697
		c0.229-20.124,1.105-40.237,1.205-60.364h-0.903v-85.919h-49.301v126.827h24.651V379.278z"/>
	<path fill="#333333" stroke="#333333" stroke-width="16" stroke-miterlimit="10" d="M218.806,483.808h669.507
		c-0.222-4.434-0.393-8.871-0.499-13.312h-1.578v-31.773H705.82v31.773h-7.311v-67.047H565.557c-0.724,0.633-1.942,0.633-2.664,0
		h-24.879v-4.721h-3.646v-14.742h-57.203v14.742h-3.652v4.721H444.5v56.108h-7.299v-8.67H219.989v19.608h-1.183V483.808z"/>
	<path fill="#666666" stroke="#666666" stroke-width="15" stroke-miterlimit="10" d="M214.964,470.496h-2.28v-24.33h3.659v-2.61
		c-6.575,0.176-14.221,1.167-18.589-3.852c-5.213-5.989-1.796-17.077-1.678-24.188c0.01-0.588,0.238-1.031,0.574-1.34v-63.037
		h-32.264l-26.467,17.621v37.517h-3.652v4.695H70.118v-6.316c-3.288,0.038-6.556,0.074-9.81-0.091v1.712H4.01v77.532h210.954
		V470.496z"/>
	<path fill="#333333" stroke="#333333" stroke-width="16" stroke-miterlimit="10" d="M930.574,470.496v-106.59h-20.88v-4.709h-3.639
		v-5.626h-21.011v5.626h-3.646v4.709h-80.181v-4.709h-3.659v-34.821h-38.92v24.48h-3.653v4.715h-13.319v5.626h-3.659v4.709h-43.393
		v-4.709h-3.646v-5.626h-76.66v15.975h-3.652v4.708h-44.065c-0.166,6.59-0.309,13.18-0.384,19.772h135.956v4.702h3.659v30.585
		h184.07v4.695h3.639v36.487h-1.873c0.106,4.441,0.276,8.878,0.499,13.312h36.622c0.772-4.451,1.612-8.889,2.536-13.312H930.574z"/>
	<path fill="#333333" stroke="#333333" stroke-width="16" stroke-miterlimit="10" d="M937.872,470.496h-2.641
		c-0.937,4.423-1.787,8.861-2.569,13.312h83.905c-0.194-0.281-0.316-0.633-0.316-1.065V359.197h-0.145V250.328h-79.887v108.869
		h1.653V470.496z"/>
	<path fill="#999999" stroke="#969696" stroke-width="10" stroke-miterlimit="10" d="M1130.859,400.997v1.39h1.346v68.109h-1.346
		v10.967c0,0.931-0.543,1.51-1.22,1.741c-0.012,0.201-0.025,0.403-0.037,0.604h226.523c-0.252-4.432-0.269-8.87-0.246-13.312h-0.796
		v-69.499H1130.859z"/>
	<path fill="#666666" stroke="#666666" stroke-width="26" stroke-miterlimit="10" d="M1125.76,483.808
		c0.273-4.436,0.523-8.873,0.712-13.312h-1.566v-68.109h2.111v-6.079c0-1.071,0.719-1.676,1.535-1.82v-2.895h132.197v-24.645
		h-14.696l-0.99-2.688c-0.315-0.872-0.656-1.6-0.99-2.342h-0.033l-0.846-0.019l-0.839-0.007l-0.859-0.007l-0.846-0.013l-0.846-0.013
		l-0.853-0.026h-0.846l-0.845-0.026l-0.853-0.013l-0.846-0.013h-0.846l-0.852-0.019h-0.472c-0.735,1.095-1.351,2.184-1.757,2.997
		l-1.076,2.19h-47.727l-0.984-2.728c-0.426-1.174-0.859-2.269-1.299-3.305h-0.117l-0.853-0.007l-0.846-0.019h-0.852l-0.853-0.026
		h-0.845l-0.839-0.026l-0.846-0.013l-0.859-0.02h-0.846l-0.846-0.019l-0.846-0.013l-0.852-0.019l-0.846-0.013h-0.853l-0.839-0.019
		l-0.852-0.013l-0.846-0.013h-0.846l-0.859-0.04h-0.846l-0.649-0.013c-0.164,0.308-0.321,0.616-0.439,0.892l-1.043,2.374h-86.667
		v38.481h-3.346v68.719c0.197,0.282,0.32,0.637,0.32,1.072v11.629H1125.76z"/>
	<path fill="#999999" stroke="#999999" stroke-width="15" stroke-miterlimit="10" d="M1377.969,333.662v-24.716h-8.965v-0.217
		h-31.031v-4.715h-3.646v-10.958h-27.483v-4.708h-3.646v-13.233h-91.539v-4.696h-3.653v-90.136h3.653V163.79
		c-11.516-9.902-20.474-70.915-20.474-70.915h-10.237c-5.115,51.124-21.746,74.22-21.746,74.22v18.132h3.646v85.191h-3.646v4.696
		h-90.202v13.233h-3.646v4.708h-21.824v26.611h-3.652v4.709h-16.466v34.821h-3.318v123.546c0,0.432-0.122,0.784-0.315,1.065h48.015
		v-6.395c-0.197-0.282-0.32-0.637-0.32-1.072v-73.953h-0.111v-43.19h3.646v-4.708h86.189c2.374-4.479,7.915-13.325,15.535-12.906
		c5.62,0.289,10.557,5.66,14.702,15.955h39.229c2.223-3.764,7.056-10.696,13.397-10.25c4.132,0.315,7.679,3.764,10.519,10.25h13.817
		v4.702h3.652v29.353h47.846v-24.097c0-0.194,0.031-0.367,0.074-0.531c-0.048-0.996,0.564-2.03,1.847-2.03h67.826v-31.273H1377.969z
		"/>
	<path fill="#666666" stroke="#666666" stroke-width="15" stroke-miterlimit="10" d="M1571.359,360.863h-93.89v4.84
		c0.452,0.671,0.452,1.632,0,2.303v56.27h-2.15v19.45h3.226v-4.702h31.248v-24.48h3.653v-4.708h57.669v-47.596h0.244V360.863z"/>
	<path fill="#BFBFBF" stroke="#BFBEBE" stroke-width="12" stroke-miterlimit="10" d="M1595.444,211.629V200.08h-46.055v-31.333
		h-44.777v42.881H1462.4v153.306h7.771v-8.78h3.653v-4.708h100.936v2.023c0.266,0.301,0.44,0.704,0.44,1.221v7.55h3.206v47.596
		h6.853v-19.608h3.646v-4.708h31.037v-36.986h3.646V223.177L1595.444,211.629z"/>
	<polygon fill="#666666" stroke="#666666" stroke-width="15" stroke-miterlimit="10" points="1745.623,443.727 1745.623,394.925 
		1592.558,394.925 1592.558,409.837 1596.453,409.837 1596.453,414.545 1600.113,414.545 1600.113,427.477 1613.438,427.477 
		1613.438,432.186 1617.09,432.186 1617.09,470.496 1615.537,470.496 1615.537,483.808 1702.613,483.808 1702.613,470.548 
		1699.403,470.548 1699.403,457.078 1703.056,457.078 1703.056,452.409 1746.791,452.409 1746.791,443.727 	"/>
	<polygon fill="#333333" stroke="#333333" stroke-width="16" stroke-miterlimit="10" points="1609.785,470.496 1609.785,436.887 
		1596.453,436.887 1596.453,432.186 1592.814,432.186 1592.814,419.253 1517.091,419.253 1517.091,443.727 1513.446,443.727 
		1513.446,448.442 1482.185,448.442 1482.185,470.496 1478.521,470.496 1478.521,483.808 1611.695,483.808 1611.695,470.496 	"/>
	<path fill="#333333" stroke="#333333" stroke-width="16" stroke-miterlimit="10" d="M1474.679,483.808v-9.889
		c-1.092,0.885-3.201,0.413-3.201-1.42v-48.222h-1.307v-55.501h-19.181c-0.525,0-0.931-0.179-1.233-0.451h-62.841
		c-0.302,0.272-0.708,0.451-1.232,0.451h-65.947v22.817h38.993v4.708h3.653v34.903c0.154,0.263,0.252,0.578,0.252,0.958v51.646
		H1474.679z"/>
	<path fill="#999999" stroke="#999999" stroke-width="15" stroke-miterlimit="10" d="M1832.666,480.089
		c-0.047-0.168-0.08-0.347-0.08-0.548v-43.029h-0.166v-12.236h3.64v-4.709h60.502v-39.242h-12.505v8.066h-3.653v4.709h-71.82v64.023
		h-3.646v4.702h-98.235v8.722h-0.248v13.26h126.211V480.089z"/>
	<path fill="#333333" stroke="#333333" stroke-width="16" stroke-miterlimit="10" d="M1947.758,428.985H1839.72v7.528h-3.292v22.728
		c0.047,0.168,0.08,0.347,0.08,0.548v24.02h122.924V464.11c0-1.797,2.018-2.281,3.128-1.47v-14.567L1947.758,428.985z"/>
	<path fill="#666666" stroke="#666666" stroke-width="15" stroke-miterlimit="10" d="M1948.532,315.549v18.113h-17.923v46.219
		h-15.339v-1.5h-11.404v41.188h45.406v4.709l2.57-3.331l18.991,24.486l-2.583,3.319l-1.851,2.386v28.405
		c0,1.797-2.018,2.281-3.128,1.47v2.796h31.052V315.549H1948.532z"/>
	<polygon fill="#999999" stroke="#999999" stroke-width="15" stroke-miterlimit="10" points="1740.388,333.662 1725.929,333.662 
		1725.929,318.841 1632.541,318.841 1632.541,348.535 1627.236,348.535 1627.236,385.521 1740.388,385.521 	"/>
	<polygon fill="#BFBFBF" stroke="#BFBEBE" stroke-width="12" stroke-miterlimit="10" points="1880.718,282.558 1880.718,239.676 
		1787.33,239.676 1787.33,355.145 1759.191,355.145 1759.191,333.662 1744.23,333.662 1744.23,385.521 1749.282,385.521 
		1749.282,390.229 1752.921,390.229 1752.921,443.727 1750.632,443.727 1750.632,452.409 1801.291,452.409 1801.291,388.393 
		1804.938,388.393 1804.938,383.698 1876.764,383.698 1876.764,375.631 1880.403,375.631 1880.403,370.917 1900.214,370.917 
		1900.214,374.539 1915.271,374.539 1915.271,282.558 	"/>
	<path fill="#999999" stroke="#999999" stroke-width="26" stroke-miterlimit="10" d="M877.744,348.856h3.652v-4.702h28.297v4.702
		h3.659v5.633h19.025V250.328h-5.762c-2.476,0-2.472-3.842,0-3.842h6.257c0.737-0.757,2.113-0.757,2.85,0h80.383v-13.407h3.652
		v-21.45h-10.23v-19.798l-24.309-16.486l-23.025,14.847v21.437h-7.679v14.846H922.54c-8.958-34.645-25.589-1.653-25.589-1.653v1.017
		h-49.517v-4.695l-3.194,2.256c-0.321-0.735-0.662-1.495-1.017-2.256h-21.811c-0.367,0.786-0.669,1.508-0.885,2.052l-0.997,2.643
		h-14.669v128.65h72.883V348.856z"/>
	<path fill="#BFBFBF" stroke="#BFBEBE" stroke-width="12" stroke-miterlimit="10" d="M72.505,400.79
		c0.715-0.004,1.216,0.317,1.518,0.771h56.59v-35.674h3.653l-1.679-4.171l29.241-19.463l1.685,4.178v-4.695h33.136v-98.701h3.653
		v-4.702h28.421v-6.905h1.718v-56.082h-11.515v-38.31h-42.219L70.532,148.943v36.284H60.308v215.514
		C64.351,400.96,68.418,400.815,72.505,400.79z"/>
	<g>
		<polygon fill="#CCCCCC" stroke="#CCCCCC" stroke-width="4" stroke-miterlimit="10" points="1036.232,631.633 1036.232,654.716 
			1039.878,654.716 1039.878,658.788 1061.702,658.788 1061.702,670.264 1065.354,670.264 1065.354,674.35 1155.55,674.35 
			1155.55,744.138 1111.869,744.138 1111.869,689.774 1056.856,689.774 1056.856,702.64 1023.412,702.64 1023.412,631.633 		"/>
		<polygon fill="#CCCCCC" stroke="#CCCCCC" stroke-width="4" stroke-miterlimit="10" points="730.285,641.83 730.285,664.913 
			733.931,664.913 733.931,668.985 755.756,668.985 755.756,680.462 759.408,680.462 759.408,684.547 849.604,684.547 
			849.604,754.335 805.922,754.335 805.922,699.971 750.909,699.971 750.909,712.837 717.465,712.837 717.465,641.83 		"/>
		<polygon fill="#CCCCCC" stroke="#CCCCCC" stroke-width="4" stroke-miterlimit="10" points="1079.938,532.702 1079.938,555.786 
			1083.584,555.786 1083.584,559.858 1105.409,559.858 1105.409,571.334 1109.061,571.334 1109.061,575.419 1199.257,575.419 
			1199.257,645.207 1155.575,645.207 1155.575,590.843 1100.562,590.843 1100.562,603.709 1067.118,603.709 1067.118,532.702 		"/>
		<polygon fill="#CCCCCC" stroke="#CCCCCC" stroke-width="4" stroke-miterlimit="10" points="1306.844,674.35 1306.844,670.264 
			1310.496,670.264 1310.496,658.788 1337.973,658.788 1337.973,654.716 1341.632,654.716 1341.632,645.207 1352.125,645.207 
			1358.728,645.207 1364.388,645.207 1369.005,645.207 1369.005,698.351 1351.089,698.351 1351.089,721.238 1305.04,721.238 
			1305.04,748.42 1284.58,748.42 1215.304,748.42 1215.304,674.35 		"/>
		<polygon fill="#CCCCCC" stroke="#CCCCCC" stroke-width="4" stroke-miterlimit="10" points="477.164,698.083 509.724,698.083 
			540.224,698.083 540.224,764.145 532.354,764.145 532.354,772.729 479.912,772.729 479.912,757.004 473.512,742.694 
			473.512,724.097 477.164,724.097 		"/>
		<path fill="#CCCCCC" stroke="#CCCCCC" stroke-width="15" stroke-miterlimit="10" d="M1706.454,485.224v2.641
			c0,2.476-3.842,2.472-3.842,0v-2.641h-87.076v2.641c0,2.476-3.842,2.472-3.842,0v-2.641h-133.175v11.542h3.664v19.122h31.261
			v4.092h3.646v21.221h75.723v-11.214h3.64v-4.079h13.332v-29.142h7.305v33.221h-3.652v4.086h-13.325v11.208h-3.659v4.086h-3.896
			v12.925h153.065V519.98h7.299v46.389h-3.64v4.086h-122.046v32.061h5.305v25.753h93.389v-12.847h33.261v-18.637h28.139v100.137
			h93.389v-37.189h34.553v-84.392h15.339v40.081h17.923v15.706h45.792V485.224H1706.454z M1951.844,539.732l-2.57-2.885v4.079
			h-45.406v38.101h-3.653v4.092h-19.811v-4.092h-3.639v-6.99h-71.827v-4.066h-3.646v-55.518h-98.235V508.4h-3.653v-11.673h7.299
			v7.555h98.235v4.079h3.646v55.518h71.82v4.092h3.653v6.984h12.505v-34.028h-60.502v-4.079h-3.64v-10.611h7.3v6.532h108.038
			l17.909-20.027l2.584,2.885l2.583,2.872L1951.844,539.732z"/>
		<polygon fill="#CCCCCC" stroke="#CCCCCC" stroke-width="15" stroke-miterlimit="10" points="473.512,575.866 469.859,575.866 
			469.859,563.078 440.854,563.078 440.854,558.999 437.202,558.999 437.202,521.935 216.343,521.935 216.343,517.856 
			212.684,517.856 212.684,496.766 214.964,496.766 214.964,485.224 4.01,485.224 4.01,552.454 60.308,552.454 60.308,744.138 
			70.532,744.138 70.532,775.589 176.708,785.923 218.927,785.923 218.927,752.702 230.442,752.702 230.442,704.076 
			228.724,704.076 228.724,698.083 200.303,698.083 200.303,694.003 196.65,694.003 196.65,608.418 163.514,608.418 
			163.514,604.353 161.829,607.972 132.588,591.099 134.267,587.473 130.614,587.473 130.614,556.534 70.118,556.534 
			70.118,548.382 134.267,548.382 134.267,552.454 137.919,552.454 137.919,584.988 164.386,600.26 196.65,600.26 196.65,541.064 
			203.949,541.064 203.949,689.918 232.377,689.918 232.377,694.003 236.023,694.003 236.023,704.076 244.522,704.076 
			244.522,716.949 252.201,716.949 252.201,731.245 308.479,772.729 359.649,731.245 359.649,718.372 381.395,718.372 
			430.02,761.286 473.512,724.097 469.859,724.097 469.859,694.003 473.512,694.003 473.512,689.918 506.065,689.918 
			506.065,579.945 473.512,579.945 		"/>
		<path fill="#CCCCCC" stroke="#CCCCCC" stroke-width="15" stroke-miterlimit="10" d="M888.385,485.224H218.806v11.542h1.183v17.011
			h217.212v-7.528h7.299v48.659h29.011v4.092h3.652v12.788h57.203v-12.788h3.646v-4.092h160.494v-58.141h7.311v27.556h180.417
			v-27.556h2.862C888.826,492.921,888.588,489.074,888.385,485.224z"/>
		<path fill="#CCCCCC" stroke="#CCCCCC" stroke-width="15" stroke-miterlimit="10" d="M1619.943,602.516v-32.061h-31.037v-4.086
			h-3.646v-17.004h-6.853v41.275h-7.292v-41.275h-57.669v-4.086h-3.653v-21.221h-31.248v-4.079h-3.659v-20.99
			c-0.127-0.248-0.207-0.538-0.207-0.882v-12.885h-112.465c-0.508,0.596-1.384,0.771-2.124,0.547
			c0.083,1.125,0.181,2.25,0.303,3.374c0.267,2.459-3.577,2.432-3.842,0c-0.142-1.306-0.247-2.614-0.337-3.922h-226.699
			c-0.24,3.847-0.489,7.694-0.724,11.542h3.413v59.059h-7.299v-31.02c-0.559-0.278-0.977-0.819-0.975-1.634
			c0.028-8.577,0.457-17.138,0.975-25.694v-0.711h0.044c0.235-3.848,0.484-7.695,0.724-11.542h-54.038v3.281
			c0,2.476-3.842,2.472-3.842,0v-3.281H932.415c-2.582,14.971-4.432,30.072-6.314,45.15c-0.303,2.425-4.147,2.447-3.842,0
			c1.882-15.074,3.719-30.175,6.271-45.15h-36.303c0.203,3.849,0.441,7.697,0.714,11.542h0.589v7.701
			c1.051,12.973,2.399,25.927,3.761,38.871c0.259,2.46-3.586,2.434-3.842,0c-0.524-4.976-1.045-9.953-1.549-14.931h-2.01v4.072
			H705.82v26.52h-3.659v4.079H541.666v12.788h-3.652v4.079h-24.651v109.973h49.301v-74.496h3.659v-4.079h76.404v4.079h3.653v8.053
			h87.985v-8.053h7.299v12.132h-3.659v4.079h-95.278v-4.079h-3.646v-8.053h-69.119v74.502h-3.64v4.079h-18.801v66.063h-3.646
			v125.869h60.121l121.535-18.604V745.554h-3.653V634.937h7.305v110.616h14.447V615.422h7.299v130.132h-3.652v57.21l20.466,15.725
			h14.08v10.027h81.874v-11.45h33.254v-99.999h-47.438c-5.22,9.778-10.991,14.755-17.359,14.526
			c-8.624-0.242-14.663-9.883-17.083-14.526h-13.857v-4.079h-3.659v-81.355h-42.573v-4.079h-3.646V606.32h-13.332v-4.079h-3.64
			v-4.879h-36.101v4.879h-3.652v4.079h-83.959v-4.079h-3.646v-13.857h-40.684v-8.158h44.331v4.072h3.652v13.85h76.66v-4.879h3.646
			v-4.079h43.393v4.079h3.659v4.879h13.319v4.092h3.653v21.234h38.92V593.27h3.659v-4.079h80.181v4.079h3.646v4.879h21.011v-4.879
			h3.639v-4.079h20.88v-92.424h7.299v96.504h-3.653v4.092h-20.866v4.879h-3.659v4.079h-28.297v-4.079h-3.652v-4.879h-72.883v111.548
			h14.669l0.997,2.301c0.216,0.466,0.518,1.089,0.885,1.777h21.811c0.355-0.656,0.696-1.325,1.017-1.954l3.194,1.954v-4.079h49.517
			v0.892c0,0,16.631,28.605,25.589-1.43h31.975v12.866h7.679v18.598l23.025,12.867l24.309-14.296v-17.169h10.23V702.64h-3.652
			V593.27h7.305v30.205h16.466v4.079h3.652v23.07h21.824v4.092h3.646v11.476h90.202v4.073h3.646v73.873h-3.646v15.712
			c0,0,16.631,20.027,21.746,64.371h10.237c0,0,8.958-52.914,20.474-61.499V748.42h-3.653v-78.155h3.653v-4.073h91.539v-11.476
			h3.646v-4.092h27.483v-9.496h3.646v-4.086h31.031v-0.19h8.965v-21.431h7.672v-30.067h76.759v135.883h42.212v37.182h44.777v-27.175
			h46.055v-10.007l28.146-10.02V602.516H1619.943z M1362.381,561.098h-3.653v4.091h-90.681v25.451h-3.652v4.072h-13.817
			c-2.84,5.627-6.387,8.617-10.519,8.892c-6.341,0.387-11.174-5.627-13.397-8.892h-39.229c-4.145,8.932-9.082,13.588-14.702,13.837
			c-7.62,0.367-13.161-7.305-15.535-11.188h-86.189v-4.092h-3.646v-37.445h7.299v33.366h86.667l1.043,2.066
			c0.118,0.236,0.275,0.505,0.439,0.767l0.649-0.007l0.846-0.006l0.859-0.026h0.846l0.846-0.013l0.852-0.013l0.839-0.02h0.853
			l0.846-0.006l0.852-0.02l0.846-0.007l0.846-0.026h0.846l0.859-0.013l0.846-0.013l0.839-0.013l0.845-0.013l0.853-0.013l0.852-0.007
			l0.846-0.019h0.97c0.44-0.905,0.872-1.849,1.299-2.866l0.984-2.367h47.727l1.076,1.902c0.406,0.708,1.023,1.646,1.757,2.597h0.472
			l0.852-0.013h0.846l0.846-0.013l0.853-0.013l0.845-0.02l0.846-0.007l0.853-0.026h0.846l0.846-0.013l0.859-0.013h0.839l0.846-0.013
			h0.033c0.334-0.643,0.676-1.273,0.99-2.033l0.99-2.334h14.696v-21.366h-132.197v-8.158h226.531v-60.266h7.299V561.098z
			 M1574.76,599.998h-100.936v-4.086h-3.653v-59.066h7.299v54.98h97.291V599.998z"/>
	</g>
</g>
<g>
	<path fill="#0EB2AF" d="M212.844,402.848c13.86,13.42,22.88,32.78,22.88,55.44c0,19.58-7.04,39.6-22.88,55
		c-13.64,13.2-32.12,21.56-56.76,21.56c-27.5,0-46.2-11-57.2-21.56c-14.08-13.2-22.88-33-22.88-54.56
		c0-21.12,9.46-42.46,22.66-55.66c9.9-9.9,28.16-21.561,57.42-21.561C178.965,381.508,198.105,388.548,212.844,402.848z
		 M123.744,425.288c-6.38,6.16-12.98,16.94-12.98,33.22c0,13.42,4.4,24.2,13.42,33c9.46,9.02,20.02,12.1,31.46,12.1
		c14.96,0,25.521-5.5,32.561-12.541c5.72-5.5,12.76-15.84,12.76-32.78c0-15.18-6.16-26.4-12.76-33
		c-7.26-7.04-18.92-12.54-32.34-12.54C143.104,412.748,131.664,417.368,123.744,425.288z"/>
	<path fill="#0EB2AF" d="M342.867,503.829h-55.44l-11.22,27.72h-35.2l59.18-146.741h31.021l57.86,146.741h-35.2L342.867,503.829z
		 M333.627,477.869l-18.04-49.28l-18.26,49.28H333.627z"/>
	<path fill="#0EB2AF" d="M439.444,445.968l50.16-61.16h41.36l-59.4,69.521l64.02,77.22h-43.56l-52.58-65.12v65.12h-33.88V384.808
		h33.88V445.968z"/>
	<path fill="#0EB2AF" d="M586.843,384.808v118.141h45.54v28.6h-79.42V384.808H586.843z"/>
	<path fill="#0EB2AF" d="M744.581,503.829h-55.44l-11.22,27.72h-35.2l59.18-146.741h31.021l57.86,146.741h-35.2L744.581,503.829z
		 M735.341,477.869l-18.04-49.28l-18.26,49.28H735.341z"/>
	<path fill="#0EB2AF" d="M807.277,531.549V384.808h29.48l79.641,94.601v-94.601h33.88v146.741h-29.48l-79.64-95.041v95.041H807.277z
		"/>
	<path fill="#0EB2AF" d="M1028.815,384.808c19.36,0,39.82,2.86,57.86,20.24c12.98,12.54,21.12,29.7,21.12,52.58
		c0,23.1-7.92,39.82-20.021,51.92c-20.24,20.46-45.54,22-57.86,22h-47.52V384.808H1028.815z M1016.275,502.949h9.02
		c7.04,0,22.44-0.66,33.44-9.9c7.92-6.6,14.3-19.14,14.3-35.42c0-15.84-6.38-25.96-12.1-31.68c-11-11-25.3-12.54-35.64-12.54h-9.02
		V502.949z"/>
</g>
<g>
	<path fill="#0EB2AF" d="M1491.242,395.447h-88.201v-39h159.001l-118.501,204.602l-42.9-10.5L1491.242,395.447z"/>
	<path fill="#0EB2AF" d="M1694.643,395.447h-67.5l-5.4,26.7c5.1-0.9,11.4-1.5,16.5-1.5c22.5,0,39.9,8.1,51,19.5
		c9.001,9,18.301,24.601,18.301,48.301c0,25.8-11.101,42.3-20.4,51.601c-18.3,18-40.2,21-60.601,21c-18.9,0-41.4-2.4-66.601-21.9
		l10.5-42.9c5.4,6,12.9,12.6,19.2,16.5c8.4,5.4,18.3,8.7,30.3,8.7c10.5,0,21.3-2.4,28.5-8.1c6.3-4.8,11.7-13.5,11.7-25.201
		c0-12-5.4-19.2-10.2-23.4c-2.4-2.1-12.3-10.5-33.3-10.5c-16.8,0-30.9,5.1-40.801,10.5l20.4-108.301h98.401V395.447z"/>
	<path fill="#0EB2AF" d="M1827.839,435.948c-9.3,9.6-23.7,15-39.6,15c-15.9,0-30.301-5.4-39.601-15
		c-5.101-5.1-12.9-15.9-12.9-33.601s7.8-28.5,12.9-33.6c9.3-9.6,23.7-15,39.601-15c15.899,0,30.3,5.4,39.6,15
		c5.101,5.1,12.9,15.9,12.9,33.6S1832.94,430.848,1827.839,435.948z M1771.139,384.947c-3.9,3.9-6.6,10.2-6.6,17.4
		s2.699,13.5,6.6,17.4c3.3,3.6,9,6.9,17.101,6.9c8.1,0,13.8-3.3,17.1-6.9c3.9-3.9,6.601-10.2,6.601-17.4s-2.7-13.5-6.601-17.4
		c-3.3-3.6-9-6.9-17.1-6.9C1780.139,378.047,1774.439,381.347,1771.139,384.947z M1899.541,353.147l21,4.5L1802.94,560.749
		l-20.7-4.8L1899.541,353.147z M1953.841,544.248c-9.301,9.6-23.7,15-39.601,15s-30.301-5.4-39.601-15c-5.1-5.1-12.9-15.9-12.9-33.6
		s7.801-28.5,12.9-33.601c9.3-9.6,23.7-15,39.601-15s30.3,5.4,39.601,15c5.1,5.1,12.899,15.9,12.899,33.601
		S1958.941,539.148,1953.841,544.248z M1897.14,493.248c-3.899,3.9-6.6,10.2-6.6,17.4s2.7,13.5,6.6,17.4c3.301,3.6,9,6.9,17.101,6.9
		c8.1,0,13.8-3.3,17.101-6.9c3.899-3.9,6.6-10.2,6.6-17.4s-2.7-13.5-6.6-17.4c-3.301-3.6-9.001-6.9-17.101-6.9
		C1906.14,486.348,1900.441,489.648,1897.14,493.248z"/>
</g>
</svg>
