<?xml version="1.0" encoding="utf-8"?>
<!-- Generator: Adobe Illustrator 18.1.1, SVG Export Plug-In . SVG Version: 6.00 Build 0)  -->
<svg version="1.1" id="Layer_1" xmlns="http://www.w3.org/2000/svg" xmlns:xlink="http://www.w3.org/1999/xlink" x="0px" y="0px"
	 viewBox="0 0 2009.421 1205.653" enable-background="new 0 0 2009.421 1205.653" xml:space="preserve">
<g>
	<path fill="#8AADA9" d="M2.251,696.519c-2.481,29.833-7.354,59.476-8.81,89.39h8.109v40.906h59.499v-29.56h13.927v12.701h48.935
		v30.169h32.874v9.724h65.748v-31.932h54.764v69.393h4.306v40.848h10.337v-5.396h17.224v5.396h8.614v-5.396h5.167v-49.515h46.008
		v-11.731h21.22v-13.871h29.055v40.711h6.972v8.23h21.689v-8.23h13.943v-34.024h13.904v16.65h7.818v7.48h6.316v-3.116h4.508v3.116
		h4.812v-3.116h6.315v-4.364h2.705v4.364h6.617v5.3h5.712v-9.664h2.105v-8.091h76.775v18.107h68.503v32.526h91.831v-3.315h24.994
		v65.038h34.609v5.311h7.377v5.307h9.645v-5.307h8.51v-5.311h9.079V940.08h17.022v16.715h30.581v15.248h9.317v6.846h37.127v16.863
		h16.663v14.213h14.953v27.907h15.166v16.848h2.992v-16.848h15.166v-27.907h14.956v-14.213h16.659v-32.268h21.395v15.044h68.815
		v10.029h32.788v22.555h76.897v7.551h2.18v3.971h10.363v-3.971h17.997v16.294h4.908v-16.294h4.361v-7.551h71.987v-78.438h10.197
		v64.241h12.715V1101.5l19.235,4.78l10.036,98.733h8.042l10.053-98.897l19.22-4.617V964.161l3.933-31.536v15.671h15.786v8.123
		h18.109v-8.123h15.788v-15.622h12.045v64.494h20.734v2.307h4.393v3.571h8.288v2.307h24.148v20.788h2.195v18.055h1.098v16.588h1.1
		v-65.578h11.543v65.578h1.098v-16.588h1.098v-18.055h2.195v-20.788h24.148v-2.307h8.29v-3.571h4.391v-2.307h20.734v-64.494h21.471
		v-38.446h20.645v-28.418h23.171v0.724h3.584v4.321h-0.829v1.306h0.829v0.6h0.164c-0.096,0.224-0.164,0.457-0.164,0.706
		c0,0.992,0.862,1.828,2.068,2.157v17.631h0.988v1.678h15.304v9.807h18.507v-9.807h15.307v-46.367h15.889v37.978h14.948v8.002
		h10.322v-4.003h3.913v2h6.407v-5.999h8.541v-6.218h37.47v79.249h24.159v10.356h11.606v4.834h4.738v-4.834h22.737v4.834h9.473
		v-4.834h11.133v-10.356h24.159V849.438h9.547v-46.17h20.645V737.73h4.897v-41.211H2.251z M1865.405,766.678h-7.58v-1.873h7.58
		V766.678z"/>
</g>
<g>
	<rect x="123.91" y="504.498" fill="#A8C6C4" width="65.748" height="175.483"/>
	<rect x="74.975" y="545.897" fill="#A8C6C4" width="65.748" height="92.687"/>
	<rect x="1.55" y="522.764" fill="#A8C6C4" width="59.499" height="125.652"/>
	<polyline fill="#A8C6C4" points="1.551,578.9 165.118,578.9 165.118,661.386 1.551,661.386 	"/>
	<rect x="156.784" y="491.156" fill="#A8C6C4" width="65.748" height="175.483"/>
	<rect x="208.56" y="534.974" fill="#A8C6C4" width="88.783" height="155.954"/>
	<rect x="93.422" y="625.382" fill="#095F5B" width="188.68" height="26.269"/>
	<rect x="1894.175" y="491.721" fill="#A8C6C4" width="88.783" height="155.954"/>
	<rect x="1804.26" y="449.334" fill="#A8C6C4" width="88.783" height="155.954"/>
	<rect x="1737.739" y="492.917" fill="#D1D3D4" width="88.783" height="155.954"/>
	<rect x="1674.406" y="469.253" fill="#A8C6C4" width="55.87" height="155.954"/>
	<rect x="1633.117" y="430.258" fill="#A8C6C4" width="55.87" height="155.954"/>
	<rect x="1612.472" y="377.5" fill="#A8C6C4" width="55.87" height="155.954"/>
	<rect x="1474.842" y="377.5" fill="#D1D3D4" width="55.87" height="155.954"/>
	<rect x="1338.52" y="377.5" fill="#D1D3D4" width="55.87" height="237.965"/>
	<rect x="1366.456" y="289.346" fill="#A8C6C4" width="55.87" height="237.965"/>
	<rect x="1134.779" y="300.815" fill="#D1D3D4" width="55.87" height="237.965"/>
	<rect x="1065.964" y="314.578" fill="#A8C6C4" width="86.966" height="237.965"/>
	<rect x="1008.618" y="335.223" fill="#A8C6C4" width="66.553" height="244.874"/>
	<rect x="870.988" y="344.398" fill="#A8C6C4" width="66.553" height="237.965"/>
	<rect x="841.169" y="367.336" fill="#A8C6C4" width="66.553" height="237.965"/>
	<rect x="751.469" y="408.329" fill="#A8C6C4" width="66.553" height="237.966"/>
	<rect x="667.92" y="403.78" fill="#A8C6C4" width="91.831" height="237.967"/>
	<rect x="513.061" y="473.258" fill="#A8C6C4" width="91.831" height="221.906"/>
	<rect x="352.387" y="494.181" fill="#A8C6C4" width="68.551" height="176.368"/>
	<rect x="300.401" y="459.047" fill="#D1D3D4" width="68.551" height="176.368"/>
	<rect x="321.621" y="475.144" fill="#A8C6C4" width="68.551" height="176.368"/>
	<rect x="441.46" y="485.003" fill="#D1D3D4" width="68.551" height="176.368"/>
	<rect x="599.418" y="448.411" fill="#A8C6C4" width="80.976" height="237.963"/>
	<rect x="1914.819" y="555.077" fill="#A8C6C4" width="88.783" height="94.892"/>
	<polygon fill="#619B97" points="1626.137,289 1626.137,285.831 1621.746,285.831 1621.746,280.935 1613.456,280.935 
		1613.456,277.765 1589.307,277.765 1589.307,249.24 1587.112,249.24 1587.112,224.466 1586.015,224.466 1586.015,201.703 
		1584.917,201.703 1584.917,224.466 1584.917,228.788 1584.917,249.24 1584.917,256.731 1584.917,289 1584.917,291.691 
		1573.374,291.691 1573.374,289 1573.374,256.731 1573.374,249.24 1573.374,228.788 1573.374,224.466 1573.374,201.703 
		1572.274,201.703 1572.274,224.466 1571.176,224.466 1571.176,249.24 1568.981,249.24 1568.981,277.765 1544.833,277.765 
		1544.833,280.935 1536.545,280.935 1536.545,285.831 1532.152,285.831 1532.152,289 1511.418,289 1511.418,647.408 
		1562.48,647.408 1573.374,647.408 1584.917,647.408 1600.853,647.408 1646.871,647.408 1646.871,289 	"/>
	<polygon fill="#619B97" points="520.538,462.157 520.538,448.895 514.826,448.895 514.826,456.166 508.209,456.166 
		508.209,462.157 505.504,462.157 505.504,456.166 499.189,456.166 499.189,451.892 494.377,451.892 494.377,456.166 
		489.869,456.166 489.869,451.892 483.554,451.892 483.554,462.157 475.736,462.157 475.736,677.761 522.643,677.761 
		522.643,462.157 	"/>
	<polygon fill="#095F5B" points="1483.585,356.06 1483.585,344.916 1465.477,344.916 1465.477,356.06 1449.691,356.06 
		1449.691,647.654 1499.373,647.654 1499.373,356.06 	"/>
	<polygon fill="#05B2AE" points="1536.216,462.34 1536.216,454.91 1533.138,454.91 1533.138,443.304 1527.744,443.304 
		1527.744,437.267 1520.983,437.267 1520.983,428.909 1508.345,428.909 1508.345,437.267 1501.582,437.267 1501.582,443.304 
		1496.19,443.304 1496.19,454.91 1493.112,454.91 1493.112,462.34 1489.707,462.34 1489.707,650.856 1539.618,650.856 
		1539.618,462.34 	"/>
	<polygon fill="#619B97" points="1027.91,290.944 1027.91,271.437 1012.954,271.437 1012.954,233.143 997.788,233.143 
		997.788,210.023 994.796,210.023 994.796,233.143 979.63,233.143 979.63,271.437 964.676,271.437 964.676,290.944 948.013,290.944 
		948.013,626.921 1044.569,626.921 1044.569,290.944 	"/>
	<polygon fill="#095F5B" points="1949.251,340.588 1949.251,326.374 1938.118,326.374 1938.118,319.742 1928.645,319.742 
		1928.645,326.374 1905.908,326.374 1905.908,319.742 1901.17,319.742 1901.17,326.374 1889.564,326.374 1889.564,340.588 
		1865.405,340.588 1865.405,653.239 1973.41,653.239 1973.41,340.588 	"/>
	<polygon fill="#095F5B" points="1752.609,429.289 1752.609,415.834 1734.101,415.834 1734.101,429.289 1718.797,429.289 
		1718.797,624.617 1767.915,624.617 1767.915,429.289 	"/>
	<polygon fill="#619B97" points="590.712,515.244 590.712,507.03 588.276,507.03 588.276,515.244 574.265,515.244 574.265,650.768 
		644.313,650.768 644.313,515.244 	"/>
	<polygon fill="#619B97" points="1819.394,440.804 1819.394,435.314 1819.394,432.568 1812.988,432.568 1812.988,435.314 
		1809.074,435.314 1809.074,429.823 1798.752,429.823 1798.752,435.314 1798.752,440.804 1783.804,440.804 1783.804,629.087 
		1827.936,629.087 1827.936,440.804 	"/>
	<polygon fill="#619B97" points="1284.273,269.864 1284.273,259.502 1279.911,259.502 1279.911,237.143 1275.003,237.143 
		1275.003,259.502 1257.007,259.502 1257.007,254.052 1246.644,254.052 1246.644,259.502 1244.464,259.502 1244.464,269.864 
		1167.567,269.864 1167.567,646.158 1356.26,646.158 1356.26,269.864 	"/>
	<polygon fill="#095F5B" points="317.777,391.103 317.777,383.7 309.163,383.7 309.163,391.103 291.939,391.103 291.939,383.7 
		281.602,383.7 281.602,391.103 281.602,439.749 277.297,439.749 277.297,661.825 281.602,661.825 322.944,661.825 322.944,391.103 
			"/>
	<polygon fill="#619B97" points="447.888,438.313 447.888,427.021 426.199,427.021 426.199,438.313 419.226,438.313 
		419.226,667.439 461.831,667.439 461.831,438.313 	"/>
	<polygon fill="#095F5B" points="1850.804,544.596 1850.804,537.947 1838.106,537.947 1838.106,544.596 1830.084,544.596 
		1830.084,537.947 1823.736,537.947 1823.736,527.311 1806.355,527.311 1806.355,537.947 1800.004,537.947 1800.004,544.596 
		1791.985,544.596 1791.985,537.947 1779.284,537.947 1779.284,544.596 1772.266,544.596 1772.266,637.671 1857.825,637.671 
		1857.825,544.596 	"/>
	<polygon fill="#095F5B" points="1641.311,473.433 1641.311,457.477 1603.877,457.477 1603.877,446.841 1593.85,446.841 
		1593.85,457.477 1587.168,457.477 1587.168,473.433 1579.144,473.433 1579.144,647.619 1680.747,647.619 1680.747,473.433 	"/>
	<polygon fill="#095F5B" points="422.73,540.987 422.73,535.292 407.542,535.292 407.542,540.987 386.663,540.987 386.663,535.292 
		341.106,535.292 341.106,540.987 328.768,540.987 328.768,649.184 444.557,649.184 444.557,540.987 	"/>
	<g>
		<path fill="#05B2AE" d="M1740.277,535.252v-4.135h-2.504v-18.472h1.678v-5.515h-1.678h-4.801v-3.17h2.204v-2.619h-2.204v-3.309
			h-3.311v-9.097h1.519v-3.033h-1.519v-1.929h-5.513v-13.785h1.519v-1.929h-1.519h-2.065v-5.927h0.824v-1.794h-0.824v-0.824h-0.168
			c0.101-0.307,0.168-0.627,0.168-0.968c0-1.36-0.865-2.509-2.07-2.959v-24.194h-2.204v24.194c-1.205,0.45-2.068,1.599-2.068,2.959
			c0,0.341,0.067,0.661,0.164,0.968h-0.164v0.824h-0.829v1.794h0.829v5.927h-2.07h-1.514v1.929h1.514v13.785h-5.513v1.929h-1.514
			v3.033h1.514v9.097h-3.306v3.309h-2.206v2.619h2.206v3.17h-4.801h-1.68v5.515h1.68v18.472h-2.506v4.135h2.506v4.133h-1.68v2.48
			h1.68v66.992h37.721v-66.992h1.678v-2.48h-1.678v-4.133H1740.277z"/>
		<polygon fill="#05B2AE" points="1981.21,607.857 1671.429,607.857 1663.255,613.7 1644.205,604.159 1624.506,614.022 
			1624.506,606.784 1606.679,599.993 1588.857,606.784 1588.857,613.023 1569.411,613.023 1569.411,650.856 1588.857,650.856 
			1593.051,650.856 1622.154,650.856 1624.506,650.856 1649.16,650.856 1666.256,650.856 1998.533,650.856 1998.533,623.771 		"/>
	</g>
	<polygon fill="#05B2AE" points="1330.026,378.431 1330.026,345.162 1305.961,345.162 1305.961,378.431 1293.219,378.431 
		1293.219,432.935 1273.399,432.935 1273.399,647.408 1338.52,647.408 1338.52,439.303 1338.52,432.935 1338.52,378.431 	"/>
	<polygon fill="#05B2AE" points="1445.757,334.293 1445.757,145.829 1426.537,139.494 1416.484,3.783 1408.442,3.783 
		1398.406,139.269 1379.171,145.829 1379.171,334.293 1350.395,650.856 1474.533,650.856 	"/>
	<polygon fill="#095F5B" points="1137.855,359.322 1137.855,354.678 1116.498,354.678 1116.498,348.641 1082.601,348.641 
		1082.601,359.322 1075.171,359.322 1075.171,653.239 1187.074,653.239 1187.074,359.322 	"/>
	<polygon fill="#05B2AE" points="1229.516,537.725 1229.516,530.284 1229.516,528.928 1239.668,528.928 1239.668,520.132 
		1229.516,520.132 1229.516,515.735 1239.668,515.735 1239.668,503.894 1221.398,503.894 1221.398,501.777 1213.619,501.777 
		1213.619,498.649 1202.622,498.649 1202.622,503.894 1199.744,503.894 1199.744,492.388 1177.755,492.388 1177.755,503.894 
		1161.515,503.894 1161.515,515.735 1175.725,515.735 1175.725,520.132 1161.515,520.132 1161.515,528.928 1175.725,528.928 
		1175.725,530.284 1175.725,537.725 1101.29,537.725 1101.29,647.005 1258.274,647.005 1258.274,537.725 	"/>
	<polygon fill="#619B97" points="844.887,319.079 844.887,311.794 836.377,311.794 836.377,304.507 826.731,304.507 
		826.731,311.794 819.355,311.794 819.355,319.079 784.746,319.079 784.746,625.03 853.966,625.03 853.966,319.079 	"/>
	<polygon fill="#095F5B" points="948.148,323.473 948.148,314.083 910.886,314.083 910.886,323.473 901.57,323.473 901.57,648.721 
		957.46,648.721 957.46,323.473 	"/>
	<polygon fill="#619B97" points="755.254,438.801 755.254,434.53 744.9,434.53 731.499,434.53 731.499,438.801 713.836,438.801 
		713.836,645.233 775.966,645.233 775.966,438.801 	"/>
	<polygon fill="#095F5B" points="879.092,426.408 879.092,423.917 865.692,423.917 865.692,426.408 860.515,426.408 
		860.515,423.917 847.114,423.917 847.114,426.408 841.632,426.408 841.632,423.917 828.839,423.917 828.839,426.408 
		821.685,426.408 821.685,630.704 886.248,630.704 886.248,426.408 	"/>
	<polygon fill="#095F5B" points="1057.589,404.376 1057.589,392.407 1044.222,392.407 1044.222,404.376 1034.863,404.376 
		1034.863,392.407 1012.135,392.407 1012.135,404.376 1002.779,404.376 1002.779,629.087 1066.945,629.087 1066.945,404.376 	"/>
	<path fill="#05B2AE" d="M1082.023,580.419v-5.764h-29.511v-1.552h-6.214v1.552h-29.51v5.764h-2.769v1.72h0.708v1.416h0.506v1.467
		h0.632v0.656h0.923v13.16h-77.852v-14.502h0.833v-0.594h0.571v-1.324h0.457v-1.279h0.638v-1.552h-2.5v-5.206h-58.923v5.206h-2.5
		v1.552h0.641v1.279h0.457v1.324h0.571v0.594h0.831v14.502h-77.852v-13.16h0.923v-0.656h0.629v-1.467h0.509v-1.416h0.708v-1.72
		h-2.769v-5.764h-29.513v-1.552h-6.212v1.552h-29.511v5.764h-2.771v1.72h0.708v1.416h0.506v1.467h0.631v0.656h0.925v58.175h-1.566
		v1.987h1.566v1.147l345.061,0.018v-1.165h1.339v-1.987h-1.339V608.09v-2.238v-1.461h0.036v-18.714h0.923v-0.656h0.632v-1.467h0.506
		v-1.416h0.708v-1.72H1082.023z M804.611,605.835h-2.115v-0.845h1.12v-4.659h-1.12v-0.847h2.115V605.835z M805.706,605.835h-0.455
		v-6.351h0.455V605.835z M806.801,605.835h-0.455v-6.351h0.455V605.835z M807.899,605.835h-0.457v-6.351h0.457V605.835z
		 M808.994,605.835h-0.455v-6.351h0.455V605.835z M811.725,600.331h-1.12v4.659h1.12v0.845h-2.09v-6.351h2.09V600.331z
		 M814.476,605.835h-2.112v-0.845h1.118v-4.659h-1.118v-0.847h2.112V605.835z M815.571,605.835h-0.455v-6.351h0.455V605.835z
		 M816.667,605.835h-0.455v-6.351h0.455V605.835z M817.764,605.835h-0.455v-6.351h0.455V605.835z M818.86,605.835h-0.455v-6.351
		h0.455V605.835z M821.59,600.331h-1.12v4.659h1.12v0.845h-2.09v-6.351h2.09V600.331z M824.341,605.835h-2.112v-0.845h1.118v-4.659
		h-1.118v-0.847h2.112V605.835z M825.439,605.835h-0.457v-6.351h0.457V605.835z M826.534,605.835h-0.457v-6.351h0.457V605.835z
		 M827.63,605.835h-0.455v-6.351h0.455V605.835z M828.727,605.835h-0.457v-6.351h0.457V605.835z M831.456,600.331h-1.12v4.659h1.12
		v0.845h-2.088v-6.351h2.088V600.331z M834.209,605.835h-2.112v-0.845h1.118v-4.659h-1.118v-0.847h2.112V605.835z M835.304,605.835
		h-0.457v-6.351h0.457V605.835z M836.399,605.835h-0.455v-6.351h0.455V605.835z M837.495,605.835h-0.455v-6.351h0.455V605.835z
		 M838.593,605.835h-0.457v-6.351h0.457V605.835z M841.321,600.331h-1.118v4.659h1.118v0.845h-2.088v-6.351h2.088V600.331z
		 M844.074,605.835h-2.112v-0.845h1.118v-4.659h-1.118v-0.847h2.112V605.835z M845.169,605.835h-0.457v-6.351h0.457V605.835z
		 M846.267,605.835h-0.457v-6.351h0.457V605.835z M847.362,605.835h-0.457v-6.351h0.457V605.835z M848.458,605.835h-0.455v-6.351
		h0.455V605.835z M851.188,600.331h-1.12v4.659h1.12v0.845h-2.09v-6.351h2.09V600.331z M853.939,605.835h-2.112v-0.845h1.12v-4.659
		h-1.12v-0.847h2.112V605.835z M855.035,605.835h-0.455v-6.351h0.455V605.835z M856.132,605.835h-0.457v-6.351h0.457V605.835z
		 M857.228,605.835h-0.455v-6.351h0.455V605.835z M858.323,605.835h-0.455v-6.351h0.455V605.835z M861.054,600.331h-1.12v4.659h1.12
		v0.845h-2.09v-6.351h2.09V600.331z M863.805,605.835h-2.11v-0.845h1.118v-4.659h-1.118v-0.847h2.11V605.835z M864.902,605.835
		h-0.457v-6.351h0.457V605.835z M865.997,605.835h-0.457v-6.351h0.457V605.835z M867.095,605.835h-0.459v-6.351h0.459V605.835z
		 M868.191,605.835h-0.457v-6.351h0.457V605.835z M870.919,600.331h-1.118v4.659h1.118v0.845h-2.088v-6.351h2.088V600.331z
		 M873.672,605.835h-2.112v-0.845h1.118v-4.659h-1.118v-0.847h2.112V605.835z M874.767,605.835h-0.457v-6.351h0.457V605.835z
		 M875.863,605.835h-0.455v-6.351h0.455V605.835z M876.96,605.835h-0.457v-6.351h0.457V605.835z M878.056,605.835h-0.457v-6.351
		h0.457V605.835z M880.786,605.835h-2.09v-6.351h1.317v0.847h-0.347v4.659h1.12V605.835z M1016.767,605.846l-78.744-0.007v-0.004
		h0.143v-0.845h1.118v-4.659h-0.347v-0.847h1.317v6.351h0.641v-6.351h0.457v6.351h0.641v-6.351h0.457v6.351h0.638v-6.351h0.457
		v6.351h0.638v-6.351h0.457v6.351h0.638v-6.351h2.112v0.847h-1.118v4.659h1.118v0.845h0.641v-0.845h1.118v-4.659h-1.118v-0.847h2.09
		v6.351h0.639v-6.351h0.457v6.351h0.641v-6.351h0.457v6.351h0.638v-6.351h0.457v6.351h0.641v-6.351h0.457v6.351h0.638v-6.351h2.112
		v0.847h-1.12v4.659h1.12v0.845h0.638v-0.845h1.12v-4.659h-1.12v-0.847h2.09v6.351h0.641v-6.351h0.455v6.351h0.641v-6.351h0.457
		v6.351h0.638v-6.351h0.457v6.351h0.641v-6.351h0.457v6.351h0.639v-6.351h2.112v0.847h-1.12v4.659h1.12v0.845h0.641v-0.845h1.118
		v-4.659h-1.118v-0.847h2.088v6.351h0.641v-6.351h0.457v6.351h0.638v-6.351h0.457v6.351h0.641v-6.351h0.455v6.351h0.641v-6.351
		h0.457v6.351h0.638v-6.351h2.112v0.847h-1.118v4.659h1.118v0.845h0.64v-0.845h1.12v-4.659h-1.12v-0.847h2.092v6.351h0.636v-6.351
		h0.457v6.351h0.641v-6.351h0.457v6.351h0.641v-6.351h0.457v6.351h0.636v-6.351h0.457v6.351h0.641v-6.351h2.11v0.847h-1.115v4.659
		h1.115v0.845h0.641v-0.845h1.12v-4.659h-1.12v-0.847h2.092v6.351h0.636v-6.351h0.457v6.351h0.641v-6.351h0.457v6.351h0.641v-6.351
		h0.457v6.351h0.641v-6.351h0.453v6.351h0.641v-6.351h2.115v0.847h-1.12v4.659h1.12v0.845h0.636v-0.845h1.12v-4.659h-1.12v-0.847
		h2.092v6.351h0.636v-6.351h0.461v6.351h0.636v-6.351h0.457v6.351h0.641v-6.351h0.457v6.351h0.636v-6.351h0.461v6.351h0.636v-6.351
		h2.114v0.847h-1.12v4.659h1.12v0.845h0.641v-0.845h1.116v-4.659h-1.116v-0.847h2.088v6.351h0.641v-6.351h0.457v6.351h0.636v-6.351
		h0.457v6.351h0.641v-6.351h0.457v6.351h0.641v-6.351h0.457v6.351h0.636v-6.351h2.114v0.847h-1.12v4.659h1.12v0.845h0.314V605.846z"
		/>
	<polygon fill="#095F5B" points="717.039,519.07 717.039,496.295 713.839,496.295 713.839,494.033 705.922,494.033 705.922,496.295 
		688.563,496.295 688.563,491.77 679.121,491.77 679.121,496.295 666.939,496.295 666.939,481.403 663.285,481.403 663.285,496.295 
		659.175,496.295 659.175,519.07 653.995,519.07 653.995,653.38 722.216,653.38 722.216,519.07 	"/>
	<rect x="15.476" y="563.327" fill="#619B97" width="59.499" height="85.089"/>
	<rect x="416.613" y="620.984" fill="#231F20" width="65.265" height="24.027"/>
	<polygon fill="#05B2AE" points="423.142,609.609 423.142,607.221 419.259,607.221 419.259,606.437 419.259,604.979 420.23,604.977 
		420.229,604.146 419.259,604.146 419.259,602.513 415.906,602.513 409.219,594.374 390.49,594.374 390.49,593.413 381.581,593.413 
		381.581,588.391 382.195,588.391 382.195,587.294 381.581,587.294 381.581,586.194 380.042,586.194 375.224,580.625 
		367.679,580.625 367.679,579.682 365.296,579.682 365.296,578.898 363.088,578.898 363.088,579.682 360.707,579.682 
		360.707,580.625 351.088,580.625 351.088,579.682 348.706,579.682 348.706,578.898 346.498,578.898 346.498,579.682 
		344.115,579.682 344.115,580.625 336.57,580.625 331.751,586.194 330.211,586.194 330.211,587.294 329.598,587.294 
		329.598,588.391 330.211,588.391 330.211,593.413 321.302,593.413 321.302,594.374 302.574,594.374 295.887,602.513 
		292.533,602.513 292.533,604.24 292.533,604.403 291.562,604.403 291.565,605.239 292.533,605.234 292.533,606.437 
		292.533,607.221 288.65,607.221 288.65,609.609 287.768,609.609 287.768,610.443 288.65,610.443 288.65,611.421 289.886,611.421 
		289.886,647.005 421.906,647.005 421.906,611.421 423.142,611.421 423.142,610.443 424.025,610.443 424.025,609.609 	"/>
	<path fill="#05B2AE" d="M675.201,602.846h-1.325v-1.048h-1.839v-3.497h0.898v-1.201h0.471v-0.798h-0.471v-1.75h-1.797v-0.851
		h-1.096v-57.816h-0.479v2.711c-0.226,0.625-0.575,1.579-0.879,2.377c-0.466,1.219-1.038,2.173-1.582,3.17
		c-0.661,1.205-0.295,2.191-1.01,3.228c-0.986,1.416-2.614,0.188-3.536,4.895c-0.227,1.14-0.518-0.092-0.763,0.974
		c-0.282,1.243,0.325,1.873,0.214,3.179c-0.287,3.403,0.579,10.537,1.027,9.677c1.885-3.629,3.983-1.514,4.742-4.666
		c0.468-1.944,1.361-2.065,1.786-2v34.273h-2.856l-8.591-1.203v-45.825h-0.479v2.71c-0.228,0.625-0.576,1.581-0.879,2.379
		c-0.464,1.219-1.038,2.171-1.582,3.168c-0.661,1.207-0.292,2.193-1.01,3.23c-0.986,1.416-2.614,0.188-3.534,4.895
		c-0.229,1.14-0.519-0.092-0.764,0.974c-0.283,1.245,0.324,1.875,0.213,3.176c-0.287,3.403,0.58,10.537,1.027,9.68
		c1.885-3.631,3.983-1.514,4.741-4.668c0.469-1.945,1.361-2.065,1.788-1.998v22.21l-5.893-0.824h-5.554v-36.24h-0.478v2.713
		c-0.226,0.623-0.576,1.579-0.88,2.377c-0.464,1.216-1.037,2.173-1.583,3.167c-0.659,1.21-0.292,2.195-1.009,3.23
		c-0.985,1.416-2.613,0.186-3.535,4.895c-0.228,1.14-0.516-0.092-0.763,0.972c-0.283,1.246,0.324,1.875,0.213,3.181
		c-0.284,3.403,0.579,10.535,1.027,9.677c1.884-3.631,3.982-1.514,4.742-4.666c0.468-1.944,1.36-2.067,1.788-2v12.694h-53.566
		v-1.149h-1.154v-2.697h0.299v-1.1h0.47v-0.6h-0.47v-2.596h-5.814v-2.65h0.598v-0.948h-0.598v-2.798h-0.94v-13.786h-0.683v-1.048
		h0.898v-1.725h-0.898v-1.046h1.057v-1.653h-0.393v-2.372h-0.343v-1.246h-0.406v-0.553h0.406v-0.849h-0.32v-0.699h-0.283
		c0.068-0.226,0.112-0.542,0.112-0.898c0-0.692-0.161-1.248-0.363-1.248c-0.199,0-0.363,0.556-0.363,1.248
		c0,0.356,0.043,0.672,0.112,0.898h-0.283v0.699h-0.319v0.849h0.406v0.553h-0.406v1.246h-0.343v2.372h-0.451v-3.721h-0.47v-1.599
		h-0.343v-1.246h-0.404v-0.551h0.404v-0.849h-0.319v-0.699h-0.283c0.069-0.228,0.112-0.547,0.112-0.898
		c0-0.692-0.161-1.25-0.364-1.25c-0.146,0-0.269,0.296-0.327,0.723v-0.374h-0.865c0.001-0.112,0.007-0.226,0.007-0.336
		c0-9.552-4.94-17.748-11.994-21.303c0.267-0.314,0.42-0.674,0.42-1.066c0-0.69-0.486-1.302-1.235-1.689
		c0.012-0.07,0.019-0.137,0.019-0.208c0-0.594-0.412-1.073-0.921-1.073h-0.166v-1.7h-0.237v-0.876h-0.286v-0.385h0.286v-0.596
		h-0.225v-0.488h-0.198c0.047-0.161,0.076-0.383,0.076-0.632c0-0.484-0.113-0.876-0.254-0.876c-0.14,0-0.253,0.392-0.253,0.876
		c0,0.249,0.03,0.47,0.077,0.632h-0.197v0.488h-0.225v0.596h0.285v0.385h-0.285v0.876h-0.241v1.7h-0.169v-8.542h0.581v-0.9h-0.343
		v-1.595h-0.206v-0.753h-0.244v-0.331h0.244v-0.511h-0.192v-0.421h-0.171c0.042-0.136,0.067-0.327,0.067-0.542
		c0-0.414-0.096-0.753-0.217-0.753c-0.122,0-0.22,0.338-0.22,0.753c0,0.215,0.025,0.406,0.067,0.542h-0.171v0.421h-0.194v0.511
		h0.246v0.331h-0.246v0.753h-0.205v-0.603h-0.631v-1.75h0.361v-0.959h-0.488v-1.089v-1.149h-0.6v-0.901h0.6v-1.198h-0.215v-0.847
		h-0.866l-0.479-6.395h-0.303v-2.834c0.303-0.056,0.536-0.356,0.536-0.726c0-0.37-0.234-0.672-0.536-0.726v-1.709h-0.594v1.709
		c-0.303,0.054-0.537,0.356-0.537,0.726c0,0.37,0.234,0.672,0.537,0.726v2.834h-0.301l-0.482,6.395h-0.866v0.847h-0.213v1.198h0.599
		v0.901h-0.599v1.149v1.089h-0.488v0.959h0.359v1.75h-0.629v0.603h-0.206v-0.753h-0.245v-0.331h0.245v-0.511h-0.192v-0.421h-0.172
		c0.043-0.136,0.068-0.327,0.068-0.542c0-0.414-0.099-0.753-0.22-0.753c-0.121,0-0.218,0.338-0.218,0.753
		c0,0.215,0.025,0.406,0.067,0.542h-0.171v0.421h-0.193v0.511h0.245v0.331h-0.245v0.753h-0.205v1.595h-0.343v0.9h0.582v8.542h-0.17
		v-1.7h-0.241v-0.876h-0.284v-0.385h0.284v-0.596h-0.224v-0.488h-0.198c0.047-0.161,0.079-0.383,0.079-0.632
		c0-0.484-0.115-0.876-0.256-0.876c-0.14,0-0.255,0.392-0.255,0.876c0,0.249,0.031,0.47,0.079,0.632h-0.198v0.488h-0.225v0.596
		h0.284v0.385h-0.284v0.876h-0.239v1.7h-0.167c-0.506,0-0.92,0.479-0.92,1.073c0,0.072,0.007,0.139,0.018,0.208
		c-0.749,0.387-1.235,0.999-1.235,1.689c0,0.392,0.156,0.753,0.423,1.066c-7.055,3.555-11.997,11.752-11.997,21.303
		c0,0.11,0.007,0.224,0.009,0.336h-0.866v0.374c-0.058-0.428-0.183-0.723-0.329-0.723c-0.199,0-0.363,0.558-0.363,1.25
		c0,0.352,0.044,0.67,0.111,0.898h-0.28v0.699h-0.321v0.849h0.406v0.551h-0.406v1.246h-0.343v1.599h-0.47v3.721h-0.49v-2.372h-0.342
		v-1.246h-0.404v-0.553h0.404v-0.849h-0.319v-0.699h-0.285c0.071-0.226,0.113-0.542,0.113-0.898c0-0.692-0.162-1.248-0.364-1.248
		c-0.201,0-0.363,0.556-0.363,1.248c0,0.356,0.044,0.672,0.112,0.898h-0.282v0.699h-0.321v0.849h0.407v0.553h-0.407v1.246h-0.342
		v2.372h-0.355v1.653h1.058v1.046H533.2v1.725h0.898v1.048h-0.684v13.786h-0.941v2.798h-0.598v0.948h0.598v2.65h-5.813v2.596h-0.47
		v0.6h0.47v1.1h0.299v2.697h-1.155v1.149h-53.91v-12.694c0.426-0.067,1.321,0.056,1.788,2c0.758,3.152,2.857,1.035,4.742,4.666
		c0.447,0.858,1.313-6.274,1.028-9.677c-0.113-1.306,0.494-1.936,0.212-3.181c-0.245-1.064-0.537,0.168-0.763-0.972
		c-0.922-4.709-2.549-3.479-3.535-4.895c-0.717-1.035-0.349-2.02-1.01-3.23c-0.543-0.995-1.118-1.951-1.583-3.167
		c-0.303-0.798-0.652-1.754-0.879-2.377v-2.713h-0.478v36.24h-5.209l-6.239,0.874v-22.26c0.426-0.067,1.321,0.054,1.788,1.998
		c0.759,3.154,2.857,1.037,4.742,4.668c0.448,0.858,1.313-6.277,1.028-9.68c-0.111-1.302,0.495-1.931,0.212-3.176
		c-0.246-1.066-0.537,0.166-0.764-0.974c-0.92-4.706-2.549-3.479-3.535-4.895c-0.716-1.037-0.349-2.023-1.008-3.23
		c-0.544-0.997-1.118-1.949-1.582-3.168c-0.306-0.798-0.655-1.754-0.882-2.379v-2.71h-0.479v45.872l-8.247,1.156h-3.2v-34.273
		c0.427-0.065,1.319,0.056,1.789,2c0.758,3.152,2.856,1.037,4.742,4.666c0.447,0.86,1.312-6.275,1.027-9.677
		c-0.11-1.306,0.495-1.935,0.212-3.179c-0.245-1.066-0.534,0.166-0.764-0.974c-0.92-4.707-2.548-3.479-3.534-4.895
		c-0.716-1.037-0.351-2.023-1.01-3.228c-0.545-0.997-1.117-1.951-1.582-3.17c-0.305-0.798-0.653-1.752-0.88-2.377v-2.711h-0.478
		v57.816h-0.753v0.851h-1.794v1.75h-0.472v0.798h0.472v1.201h0.897v3.497h-1.838v1.048h-1.325h-2.223v1.048h0.684v0.647h1.539
		v42.463h85.833h2.394h55.994h2.396h85.833v-42.463h1.538v-0.647h0.684v-1.048H675.201z M538.274,549.145h-0.078
		c0.033-0.108,0.059-0.235,0.078-0.374V549.145z M538.8,552.391v-0.098h0.855c0.006,0.031,0.013,0.065,0.019,0.098H538.8z
		 M579.152,552.391h-0.875c0.007-0.034,0.013-0.067,0.02-0.098h0.854V552.391z M579.678,549.145v-0.374
		c0.019,0.139,0.046,0.267,0.076,0.374H579.678z"/>
	<rect x="677.423" y="616.287" fill="#05B2AE" width="50.71" height="28.836"/>
	<rect x="1340.971" y="610.666" fill="#05B2AE" width="76.998" height="36.218"/>
	<rect x="1443.259" y="577.296" fill="#05B2AE" width="62.545" height="69.588"/>
	<rect x="1122.716" y="587.927" fill="#05B2AE" width="57.066" height="58.957"/>
	<rect x="1253.062" y="562.332" fill="#05B2AE" width="52.897" height="84.552"/>
	<rect x="1523.004" y="582.99" fill="#05B2AE" width="43.063" height="68.833"/>
	<rect x="1088.17" y="625.202" fill="#231F20" width="26.24" height="20.665"/>
	<rect x="692.792" y="601.979" fill="#05B2AE" width="35.207" height="46.101"/>
	<rect x="1495.549" y="591.836" fill="#05B2AE" width="49.477" height="55.048"/>
	<path fill="#05B2AE" d="M12.222,645.011c0.708,18.679-0.671,37.575-2.78,56.553h1999.057v-56.553H12.222z"/>
</g>
<g>
	<path fill="#DADBD7" d="M114.201,656.754c-8.75-7.875-16.275-8.4-19.6-8.4c-3.675,0-8.225,0.525-11.375,4.025
		c-1.75,1.75-2.975,4.375-2.975,7.35c0,2.8,0.875,4.9,2.625,6.475c2.8,2.625,6.825,3.675,14.7,6.65l8.75,3.325
		c5.075,1.925,11.375,4.55,15.925,8.925c6.825,6.475,8.575,14.875,8.575,21.7c0,12.075-4.2,22.576-10.325,28.875
		c-10.325,10.851-25.375,11.9-33.076,11.9c-8.4,0-15.75-1.225-23.1-4.9c-5.95-2.975-12.775-8.4-17.15-12.775l14-19.25
		c2.975,2.975,7.7,7,10.851,8.925c4.55,2.8,9.275,4.2,14.7,4.2c3.5,0,8.4-0.7,12.25-4.025c2.275-1.925,4.2-5.075,4.2-9.45
		c0-3.85-1.575-6.3-4.025-8.4c-3.15-2.625-10.325-5.25-13.65-6.475l-9.625-3.325c-5.425-1.925-11.725-4.375-16.275-9.275
		c-6.125-6.475-7-14.7-7-20.3c0-10.325,3.15-19.076,10.15-26.25c8.225-8.4,18.025-10.675,28.875-10.675c8.05,0,21,1.4,34.65,11.55
		L114.201,656.754z"/>
	<path fill="#DADBD7" d="M215.175,722.905h-44.101l-8.925,22.05h-28l47.076-116.727H205.9l46.026,116.727h-28L215.175,722.905z
		 M207.825,702.255l-14.35-39.201l-14.525,39.201H207.825z"/>
	<path fill="#DADBD7" d="M265.047,744.955V628.228h23.45l63.351,75.251v-75.251h26.951v116.727h-23.451l-63.351-75.602v75.602
		H265.047z"/>
	<path fill="#DADBD7" d="M509.868,650.979h-37.801v22.575h35v22.75h-35v48.651h-26.95V628.228h64.751V650.979z"/>
	<path fill="#DADBD7" d="M570.591,628.228c14.875,0,24.15,4.9,29.75,10.15c4.9,4.725,10.15,13.125,10.15,26.075
		c0,7.35-1.575,16.45-9.1,23.8c-4.025,3.85-9.8,7.35-16.275,8.925l35.876,47.776h-32.901l-31.5-46.026v46.026h-26.95V628.228
		H570.591z M556.59,681.254h6.125c4.9,0,11.55-0.525,16.101-5.075c1.925-1.925,4.375-5.6,4.375-11.375c0-6.65-3.15-10.15-5.425-11.9
		c-4.375-3.325-11.375-3.675-14.875-3.675h-6.3V681.254z"/>
	<path fill="#DADBD7" d="M706.387,722.905h-44.101l-8.925,22.05h-28l47.076-116.727h24.675l46.026,116.727h-28L706.387,722.905z
		 M699.037,702.255l-14.35-39.201l-14.525,39.201H699.037z"/>
	<path fill="#DADBD7" d="M756.259,744.955V628.228h23.45l63.351,75.251v-75.251h26.951v116.727H846.56l-63.351-75.602v75.602
		H756.259z"/>
	<path fill="#DADBD7" d="M979.909,741.28c-10.325,5.25-18.725,6.3-25.725,6.3c-21.525,0-36.051-7.35-45.851-16.975
		c-10.5-10.15-18.2-25.551-18.2-44.276c0-18.375,7.7-33.775,18.2-43.926c10.325-9.975,25.375-16.8,43.576-16.8
		c7.7,0,16.625,1.575,28,6.475v31.15c-5.95-6.3-14.875-12.425-27.3-12.425c-9.8,0-17.675,3.15-23.8,9.101
		c-6.475,6.3-11.025,15.75-11.025,26.95c0,12.075,4.9,20.65,10.15,25.726c2.45,2.45,10.85,9.8,25.2,9.8
		c7,0,16.451-1.925,26.775-12.075V741.28z"/>
	<path fill="#DADBD7" d="M1028.907,628.228v116.727h-26.95V628.228H1028.907z"/>
	<path fill="#DADBD7" d="M1115.182,656.754c-8.75-7.875-16.275-8.4-19.6-8.4c-3.675,0-8.225,0.525-11.375,4.025
		c-1.75,1.75-2.975,4.375-2.975,7.35c0,2.8,0.875,4.9,2.625,6.475c2.8,2.625,6.825,3.675,14.7,6.65l8.75,3.325
		c5.075,1.925,11.375,4.55,15.925,8.925c6.825,6.475,8.575,14.875,8.575,21.7c0,12.075-4.2,22.576-10.325,28.875
		c-10.325,10.851-25.375,11.9-33.076,11.9c-8.4,0-15.75-1.225-23.1-4.9c-5.95-2.975-12.775-8.4-17.15-12.775l14-19.25
		c2.975,2.975,7.7,7,10.851,8.925c4.55,2.8,9.275,4.2,14.7,4.2c3.5,0,8.4-0.7,12.25-4.025c2.275-1.925,4.2-5.075,4.2-9.45
		c0-3.85-1.575-6.3-4.025-8.4c-3.15-2.625-10.325-5.25-13.65-6.475l-9.625-3.325c-5.425-1.925-11.725-4.375-16.275-9.275
		c-6.125-6.475-7-14.7-7-20.3c0-10.325,3.15-19.076,10.15-26.25c8.225-8.4,18.025-10.675,28.875-10.675c8.05,0,21,1.4,34.65,11.55
		L1115.182,656.754z"/>
	<path fill="#DADBD7" d="M1235.581,741.28c-10.325,5.25-18.725,6.3-25.725,6.3c-21.525,0-36.051-7.35-45.851-16.975
		c-10.5-10.15-18.2-25.551-18.2-44.276c0-18.375,7.7-33.775,18.2-43.926c10.325-9.975,25.375-16.8,43.576-16.8
		c7.7,0,16.625,1.575,28,6.475v31.15c-5.95-6.3-14.875-12.425-27.3-12.425c-9.8,0-17.675,3.15-23.8,9.101
		c-6.475,6.3-11.025,15.75-11.025,26.95c0,12.075,4.9,20.65,10.15,25.726c2.45,2.45,10.85,9.8,25.2,9.8
		c7,0,16.451-1.925,26.775-12.075V741.28z"/>
	<path fill="#DADBD7" d="M1360.53,642.578c11.025,10.675,18.2,26.076,18.2,44.101c0,15.575-5.6,31.5-18.2,43.75
		c-10.851,10.5-25.551,17.15-45.151,17.15c-21.875,0-36.75-8.75-45.5-17.15c-11.2-10.5-18.2-26.25-18.2-43.4
		c0-16.8,7.525-33.776,18.025-44.276c7.875-7.875,22.4-17.15,45.675-17.15C1333.58,625.603,1348.805,631.203,1360.53,642.578z
		 M1289.654,660.429c-5.075,4.9-10.325,13.475-10.325,26.425c0,10.675,3.5,19.25,10.675,26.25
		c7.525,7.175,15.926,9.625,25.025,9.625c11.9,0,20.301-4.375,25.9-9.975c4.55-4.375,10.15-12.6,10.15-26.075
		c0-12.075-4.9-21-10.15-26.25c-5.775-5.6-15.05-9.975-25.726-9.975C1305.054,650.454,1295.954,654.129,1289.654,660.429z"/>
</g>
<g>
	<path fill="#DADBD7" d="M1600.054,591.706l-44,54.75c5-1.75,10.25-2.75,17.5-2.75c21,0,34,8.5,41.25,16
		c6,6.25,14.5,18.25,14.5,38.5c0,16-5,33-15.75,44.75c-15.25,16.5-36.5,18.75-51.25,18.75c-15.25,0-37.5-1.5-54-19.5
		c-11-11.75-14.5-25.75-14.5-40.5c0-26.5,12.5-45.25,26.75-64l38.25-50.25L1600.054,591.706z M1581.054,722.706
		c4.5-4.25,8.75-11.25,8.75-22c0-9.75-4-16.25-8.75-20.5c-6.25-5.5-13.5-7-20-7c-7.5,0-14.5,1.75-20.25,7.25
		c-3.25,3-8.5,9.75-8.5,21.25c0,7.75,2.25,15,8.5,20.75c4.75,4.5,11.75,7.75,20.25,7.75
		C1571.054,730.206,1577.554,725.956,1581.054,722.706z"/>
	<path fill="#DADBD7" d="M1759.049,744.456c-9.75,9.5-24.25,17.25-44.75,17.25c-20,0-34.25-7.5-44.25-17.25
		c-16.25-16-24-41.25-24-69.75c0-28.75,7.75-54.25,24-70c10-9.75,24.25-17.25,44.25-17.25c20.5,0,35,7.75,44.75,17.25
		c16.25,15.75,24,41.25,24,70C1783.049,703.206,1775.299,728.456,1759.049,744.456z M1699.049,626.706c-12.25,12-14,36-14,47.75
		c0,13,2.25,36.5,14,48c4.5,4.25,9,6.25,15.5,6.25s11-2,15.5-6.25c11.75-11.5,14-35,14-48c0-11.75-1.75-35.75-14-47.75
		c-4.5-4.25-9-6.25-15.5-6.25S1703.549,622.456,1699.049,626.706z"/>
	<path fill="#DADBD7" d="M1873.797,657.456c-7.75,8-19.75,12.5-33,12.5s-25.25-4.5-33-12.5c-4.25-4.25-10.75-13.25-10.75-28
		s6.5-23.75,10.75-28c7.75-8,19.75-12.5,33-12.5s25.25,4.5,33,12.5c4.25,4.25,10.75,13.25,10.75,28
		S1878.047,653.206,1873.797,657.456z M1826.547,614.956c-3.25,3.25-5.5,8.5-5.5,14.5s2.25,11.25,5.5,14.5
		c2.75,3,7.5,5.75,14.25,5.75s11.5-2.75,14.25-5.75c3.25-3.25,5.5-8.5,5.5-14.5s-2.25-11.25-5.5-14.5c-2.75-3-7.5-5.75-14.25-5.75
		S1829.297,611.956,1826.547,614.956z M1933.547,588.456l17.5,3.75l-98,169.25l-17.25-4L1933.547,588.456z M1978.797,747.706
		c-7.75,8-19.75,12.5-33,12.5s-25.25-4.5-33-12.5c-4.25-4.25-10.75-13.25-10.75-28s6.5-23.75,10.75-28c7.75-8,19.75-12.5,33-12.5
		s25.25,4.5,33,12.5c4.25,4.25,10.75,13.25,10.75,28S1983.047,743.456,1978.797,747.706z M1931.547,705.206
		c-3.25,3.25-5.5,8.5-5.5,14.5s2.25,11.25,5.5,14.5c2.75,3,7.5,5.75,14.25,5.75s11.5-2.75,14.25-5.75c3.25-3.25,5.5-8.5,5.5-14.5
		s-2.25-11.25-5.5-14.5c-2.75-3-7.5-5.75-14.25-5.75S1934.297,702.206,1931.547,705.206z"/>
</g>
</svg>
